{
.formatVersion = 3;
axes = (
{
name = Weight;
tag = wght;
}
);
classes = (
{
code = "A Aacute Abreve Acircumflex Adieresis Agrave Amacron Aogonek Aring Atilde AE B C Cacute Ccaron Ccedilla Cdotaccent D Eth Dcaron Dcroat E Eacute Ecaron Ecircumflex Edieresis Edotaccent Egrave Emacron Eogonek F G Gbreve Gcommaaccent Gdotaccent H Hbar I Iacute Icircumflex Idieresis Idotaccent Igrave Imacron Iogonek J K Kcommaaccent L Lacute Lcaron Lcommaaccent Lslash M N Nacute Ncaron Ncommaaccent Eng Ntilde O Oacute Ocircumflex Odieresis Ograve Ohungarumlaut Omacron Oslash Otilde OE P Thorn Q R Racute Rcaron Rcommaaccent S Sacute Scaron Scedilla Scommaaccent Germandbls T Tbar Tcaron Tcedilla U Uacute Ucircumflex Udieresis Ugrave Uhungarumlaut Umacron Uogonek Uring V W Wacute Wcircumflex Wdieresis Wgrave X Y Yacute Ycircumflex Ydieresis Ygrave Z Zacute Zcaron Zdotaccent Q.ss01";
name = Uppercase;
}
);
familyName = "League Spartan";
customParameters = (
{
name = glyphOrder;
value = (
A,
Aacute,
Abreve,
Acircumflex,
Adieresis,
Agrave,
Amacron,
Aogonek,
Aring,
Atilde,
AE,
B,
C,
Cacute,
Ccaron,
Ccedilla,
Cdotaccent,
D,
Eth,
Dcaron,
Dcroat,
E,
Eacute,
Ecaron,
Ecircumflex,
Edieresis,
Edotaccent,
Egrave,
Emacron,
Eogonek,
F,
G,
Gbreve,
Gcommaaccent,
Gdotaccent,
H,
Hbar,
I,
Iacute,
Icircumflex,
Idieresis,
Idotaccent,
Igrave,
Imacron,
Iogonek,
J,
K,
Kcommaaccent,
L,
Lacute,
Lcaron,
Lcommaaccent,
Lslash,
M,
N,
Nacute,
Ncaron,
Ncommaaccent,
Eng,
Ntilde,
O,
Oacute,
Ocircumflex,
Odieresis,
Ograve,
Ohungarumlaut,
Omacron,
Oslash,
Otilde,
OE,
P,
Thorn,
Q,
R,
Racute,
Rcaron,
Rcommaaccent,
S,
Sacute,
Scaron,
Scedilla,
Scommaaccent,
Germandbls,
T,
Tbar,
Tcaron,
Tcedilla,
U,
Uacute,
Ucircumflex,
Udieresis,
Ugrave,
Uhungarumlaut,
Umacron,
Uogonek,
Uring,
V,
W,
Wacute,
Wcircumflex,
Wdieresis,
Wgrave,
X,
Y,
Yacute,
Ycircumflex,
Ydieresis,
Ygrave,
Z,
Zacute,
Zcaron,
Zdotaccent,
Q.ss01,
a,
aacute,
abreve,
acircumflex,
adieresis,
agrave,
amacron,
aogonek,
aring,
atilde,
ae,
b,
c,
cacute,
ccaron,
ccedilla,

glyphs = (
{
glyphname = A;
layers = (
{
anchors = (
{
name = bottom;
position = "{630, 0}";
},
{
name = ogonek;
position = "{1176, 16}";
},
{
name = top;
position = "{863, 1320}";
}
);
layerId = "CEE0B0E0-3C1B-4981-BE10-41B2F4187B00";
shapes = (
{
closed = 1;
nodes = (
(-104,0,l),
(310,0,l),
(435.379,229,l),
(906.379,229,l),
(950,0,l),
(1363,0,l),
(1051.752,1320,l),
(672.752,1320,l)
);
},
{
closed = 1;
nodes = (
(779.936,856,l),
(782.936,856,l),
(835.625,565,l),
(624.625,565,l)
);
}
);
width = 1451;
},
{
anchors = (
{
name = bottom;
position = "{527, 0}";
},
{
name = ogonek;
position = "{971, 16}";
},
{
name = top;
position = "{760, 1320}";
}
);
layerId = "2FCE132C-6D1D-4C23-912A-6327D74CCB4B";
shapes = (
{
closed = 1;
nodes = (
(-52,0,l),
(131,0,l),
(308.714,318,l),
(868.714,318,l),
(921,0,l),
(1104,0,l),
(848.681,1320,l),
(670.681,1320,l)
);
},
{
closed = 1;
nodes = (
(736.323,1110,l),
(739.323,1110,l),
(830.777,472,l),
(379.777,472,l)
);
}
);
width = 1208;
},
{
anchors = (
{
name = bottom;
position = "{475, 0}";
},
{
name = ogonek;
position = "{869, 16}";
},
{
name = top;
position = "{708, 1320}";
}
);
layerId = "7F612C2A-B309-47B1-B60E-6F95A45BF26D";
shapes = (
{
closed = 1;
nodes = (
(-26,0,l),
(42,0,l),
(237,362,l),
(842,362,l),
(907,0,l),
(974,0,l),
(747,1320,l),
(670,1320,l)
);
},
{
closed = 1;
nodes = (
(692,1237,l),
(695,1237,l),
(837,426,l),
(265,426,l)
);
}
);
width = 1086;
}
);
leftKerningGroup = A;
rightKerningGroup = A;
unicode = 65;
},
{
glyphname = Aacute;
leftMetricsKey = A;
rightMetricsKey = A;
layers = (
{
layerId = "CEE0B0E0-3C1B-4981-BE10-41B2F4187B00";
shapes = (
{
closed = 1;
nodes = (
(-104,0,l),
(310,0,l),
(435.379,229,l),
(906.379,229,l),
(950,0,l),
(1363,0,l),
(1051.752,1320,l),
(672.752,1320,l)
);
},
{
closed = 1;
nodes = (
(779.936,856,l),
(782.936,856,l),
(835.625,565,l),
(624.625,565,l)
);
},
{
closed = 1;
nodes = (
(1133.196,1642.,l),
(1006.519,1867.6,l),
(605.937,1565.2,l),
(681.437,1413.2,l)
);
}
);
width = 1451;
},
{
layerId = "2FCE132C-6D1D-4C23-912A-6327D74CCB4B";
shapes = (
{
closed = 1;
nodes = (
(-52,0,l),
(131,0,l),
(308.714,318,l),
(868.714,318,l),
(921,0,l),
(1104,0,l),
(848.681,1320,l),
(670.681,1320,l)
);
},
{
closed = 1;
nodes = (
(736.323,1110,l),
(739.323,1110,l),
(830.777,472,l),
(379.777,472,l)
);
},
{
closed = 1;
nodes = (
(933.072,1680.4,l),
(849.416,1805.2,l),
(504.632,1554.,l),
(555.506,1469.2,l)
);
}
);
width = 1208;
},
{
layerId = "7F612C2A-B309-47B1-B60E-6F95A45BF26D";
shapes = (
{
closed = 1;
nodes = (
(-26,0,l),
(42,0,l),
(237,362,l),
(842,362,l),
(907,0,l),
(974,0,l),
(747,1320,l),
(670,1320,l)
);
},
{
closed = 1;
nodes = (
(692,1237,l),
(695,1237,l),
(837,426,l),
(265,426,l)
);
},
{
closed = 1;
nodes = (
(827.003,1699.6,l),
(780.787,1774.8,l),
(455.436,1549.2,l),
(484.689,1498.,l)
);
}
);
width = 1086;
}
);
leftKerningGroup = A;
rightKerningGroup = d;
unicode = 193;
},
{
glyphname = Abreve;
leftMetricsKey = A;
rightMetricsKey = A;
layers = (
{
layerId = "CEE0B0E0-3C1B-4981-BE10-41B2F4187B00";
shapes = (
{
closed = 1;
nodes = (
(-104,0,l),
(310,0,l),
(435.379,229,l),
(906.379,229,l),
(950,0,l),
(1363,0,l),
(1051.752,1320,l),
(672.752,1320,l)
);
},
{
closed = 1;
nodes = (
(779.936,856,l),
(782.936,856,l),
(835.625,565,l),
(624.625,565,l)
);
},
{
closed = 1;
nodes = (
(1099.88,1883.,l),
(1079.475,1811.,o),
(1007.858,1702.2,o),
(894.258,1702.2,cs),
(777.458,1702.2,o),
(755.857,1809.4,o),
(763.88,1883.,c),
(491.164,1819.,l),
(468.42,1609.4,o),
(615.86,1487.8,o),
(843.06,1487.8,cs),
(1073.46,1487.8,o),
(1269.256,1612.6,o),
(1340.,1822.2,c)
);
}
);
width = 1451;
},
{
layerId = "2FCE132C-6D1D-4C23-912A-6327D74CCB4B";
shapes = (
{
closed = 1;
nodes = (
(-52,0,l),
(131,0,l),
(308.714,318,l),
(868.714,318,l),
(921,0,l),
(1104,0,l),
(848.681,1320,l),
(670.681,1320,l)
);
},
{
closed = 1;
nodes = (
(736.323,1110,l),
(739.323,1110,l),
(830.777,472,l),
(379.777,472,l)
);
},
{
closed = 1;
nodes = (
(918.952,1788.6,l),
(900.49,1721.4,o),
(836.648,1644.6,o),
(731.048,1644.6,cs),
(630.248,1644.6,o),
(583.69,1721.4,o),
(582.952,1788.6,c),
(454.715,1758.2,l),
(450.758,1639.8,o),
(541.394,1524.6,o),
(715.794,1524.6,cs),
(890.194,1524.6,o),
(1015.364,1636.6,o),
(1044.921,1755.,c)
);
}
);
width = 1208;
},
{
layerId = "7F612C2A-B309-47B1-B60E-6F95A45BF26D";
shapes = (
{
closed = 1;
nodes = (
(-26,0,l),
(42,0,l),
(237,362,l),
(842,362,l),
(907,0,l),
(974,0,l),
(747,1320,l),
(670,1320,l)
);
},
{
closed = 1;
nodes = (
(692,1237,l),
(695,1237,l),
(837,426,l),
(265,426,l)
);
},
{
closed = 1;
nodes = (
(843.799,1740.6,l),
(825.566,1676.6,o),
(760.805,1615.8,o),
(658.405,1615.8,cs),
(565.605,1615.8,o),
(510.302,1678.2,o),
(507.735,1742.2,c),
(445.912,1727.8,l),
(437.6,1655.8,o),
(498.092,1543.8,o),
(646.892,1543.8,cs),
(794.092,1543.8,o),
(884.321,1647.8,o),
(908.569,1721.4,c)
);
}
);
width = 1086;
}
);
leftKerningGroup = A;
rightKerningGroup = d;
unicode = 258;
},
{
glyphname = Acircumflex;
leftMetricsKey = A;
rightMetricsKey = A;
layers = (
{
layerId = "CEE0B0E0-3C1B-4981-BE10-41B2F4187B00";
shapes = (
{
closed = 1;
nodes = (
(-104,0,l),
(310,0,l),
(435.379,229,l),
(906.379,229,l),
(950,0,l),
(1363,0,l),
(1051.752,1320,l),
(672.752,1320,l)
);
},
{
closed = 1;
nodes = (
(779.936,856,l),
(782.936,856,l),
(835.625,565,l),
(624.625,565,l)
);
},
{
closed = 1;
nodes = (
(889.,1584.6,l),
(1125.8,1392.6,l),
(1268.2,1567.,l),
(930.6,1859.8,l),
(489.,1576.6,l),
(612.2,1392.6,l)
);
}
);
width = 1451;
},
{
layerId = "2FCE132C-6D1D-4C23-912A-6327D74CCB4B";
shapes = (
{
closed = 1;
nodes = (
(-52,0,l),
(131,0,l),
(308.714,318,l),
(868.714,318,l),
(921,0,l),
(1104,0,l),
(848.681,1320,l),
(670.681,1320,l)
);
},
{
closed = 1;
nodes = (
(736.323,1110,l),
(739.323,1110,l),
(830.777,472,l),
(379.777,472,l)
);
},
{
closed = 1;
nodes = (
(801.6,1656.4,l),
(1011.2,1496.4,l),
(1084.8,1582.8,l),
(825.6,1814.8,l),
(484.8,1587.6,l),
(544.,1496.4,l)
);
}
);
width = 1208;
},
{
layerId = "7F612C2A-B309-47B1-B60E-6F95A45BF26D";
shapes = (
{
closed = 1;
nodes = (
(-26,0,l),
(42,0,l),
(237,362,l),
(842,362,l),
(907,0,l),
(974,0,l),
(747,1320,l),
(670,1320,l)
);
},
{
closed = 1;
nodes = (
(692,1237,l),
(695,1237,l),
(837,426,l),
(265,426,l)
);
},
{
closed = 1;
nodes = (
(757.4,1693.6,l),
(954.2,1548.,l),
(992.6,1591.2,l),
(773.4,1792.8,l),
(482.2,1594.4,l),
(509.4,1548.,l)
);
}
);
width = 1086;
}
);
leftKerningGroup = A;
rightKerningGroup = d;
unicode = 194;
},
{
glyphname = Adieresis;
leftMetricsKey = A;
rightMetricsKey = A;
layers = (
{
layerId = "CEE0B0E0-3C1B-4981-BE10-41B2F4187B00";
shapes = (
{
closed = 1;
nodes = (
(-104,0,l),
(310,0,l),
(435.379,229,l),
(906.379,229,l),
(950,0,l),
(1363,0,l),
(1051.752,1320,l),
(672.752,1320,l)
);
},
{
closed = 1;
nodes = (
(779.936,856,l),
(782.936,856,l),
(835.625,565,l),
(624.625,565,l)
);
},
{
closed = 1;
nodes = (
(455.367,1492.4,o),
(513.29,1414.,o),
(610.89,1414.,cs),
(708.49,1414.,o),
(807.367,1492.4,o),
(832.859,1590.,cs),
(858.351,1687.6,o),
(800.428,1766.,o),
(702.828,1766.,cs),
(605.228,1766.,o),
(506.351,1687.6,o),
(480.859,1590.,cs)
);
},
{
closed = 1;
nodes = (
(831.367,1492.4,o),
(889.29,1414.,o),
(986.89,1414.,cs),
(1084.49,1414.,o),
(1183.367,1492.4,o),
(1208.859,1590.,cs),
(1234.351,1687.6,o),
(1176.428,1766.,o),
(1078.828,1766.,cs),
(981.228,1766.,o),
(882.351,1687.6,o),
(856.859,1590.,cs)
);
}
);
width = 1451;
},
{
layerId = "2FCE132C-6D1D-4C23-912A-6327D74CCB4B";
shapes = (
{
closed = 1;
nodes = (
(-52,0,l),
(131,0,l),
(308.714,318,l),
(868.714,318,l),
(921,0,l),
(1104,0,l),
(848.681,1320,l),
(670.681,1320,l)
);
},
{
closed = 1;
nodes = (
(736.323,1110,l),
(739.323,1110,l),
(830.777,472,l),
(379.777,472,l)
);
},
{
closed = 1;
nodes = (
(456.966,1595.,o),
(502.065,1547.,o),
(561.265,1547.,cs),
(620.465,1547.,o),
(671.366,1595.,o),
(675.041,1655.8,cs),
(678.717,1716.6,o),
(633.618,1764.6,o),
(574.418,1764.6,cs),
(515.218,1764.6,o),
(464.317,1716.6,o),
(460.641,1655.8,cs)
);
},
{
closed = 1;
nodes = (
(836.166,1595.,o),
(881.265,1547.,o),
(940.465,1547.,cs),
(999.665,1547.,o),
(1050.566,1595.,o),
(1054.241,1655.8,cs),
(1057.917,1716.6,o),
(1012.818,1764.6,o),
(953.618,1764.6,cs),
(894.418,1764.6,o),
(843.517,1716.6,o),
(839.841,1655.8,cs)
);
}
);
width = 1208;
},
{
layerId = "7F612C2A-B309-47B1-B60E-6F95A45BF26D";
shapes = (
{
closed = 1;
nodes = (
(-26,0,l),
(42,0,l),
(237,362,l),
(842,362,l),
(907,0,l),
(974,0,l),
(747,1320,l),
(670,1320,l)
);
},
{
closed = 1;
nodes = (
(692,1237,l),
(695,1237,l),
(837,426,l),
(265,426,l)
);
},
{
closed = 1;
nodes = (
(821.899,1647.4,o),
(855.246,1613.8,o),
(896.846,1613.8,cs),
(936.846,1613.8,o),
(967.499,1647.4,o),
(965.83,1689.,cs),
(964.226,1729.,o),
(930.878,1762.6,o),
(890.878,1762.6,cs),
(849.278,1762.6,o),
(818.626,1729.,o),
(820.23,1689.,cs)
);
},
{
closed = 1;
nodes = (
(442.699,1647.4,o),
(476.046,1613.8,o),
(517.646,1613.8,cs),
(557.646,1613.8,o),
(588.299,1647.4,o),
(586.63,1689.,cs),
(585.026,1729.,o),
(551.678,1762.6,o),
(511.678,1762.6,cs),
(470.078,1762.6,o),
(439.426,1729.,o),
(441.03,1689.,cs)
);
}
);
width = 1086;
}
);
leftKerningGroup = A;
rightKerningGroup = d;
unicode = 196;
},
{
glyphname = Agrave;
leftMetricsKey = A;
rightMetricsKey = A;
layers = (
{
layerId = "CEE0B0E0-3C1B-4981-BE10-41B2F4187B00";
shapes = (
{
closed = 1;
nodes = (
(-104,0,l),
(310,0,l),
(435.379,229,l),
(906.379,229,l),
(950,0,l),
(1363,0,l),
(1051.752,1320,l),
(672.752,1320,l)
);
},
{
closed = 1;
nodes = (
(779.936,856,l),
(782.936,856,l),
(835.625,565,l),
(624.625,565,l)
);
},
{
closed = 1;
nodes = (
(1125.737,1566.2,l),
(846.319,1868.6,l),
(614.596,1643.,l),
(980.437,1414.2,l)
);
}
);
width = 1451;
},
{
layerId = "2FCE132C-6D1D-4C23-912A-6327D74CCB4B";
shapes = (
{
closed = 1;
nodes = (
(-52,0,l),
(131,0,l),
(308.714,318,l),
(868.714,318,l),
(921,0,l),
(1104,0,l),
(848.681,1320,l),
(670.681,1320,l)
);
},
{
closed = 1;
nodes = (
(736.323,1110,l),
(739.323,1110,l),
(830.777,472,l),
(379.777,472,l)
);
},
{
closed = 1;
nodes = (
(884.632,1555.,l),
(619.816,1806.2,l),
(501.872,1681.4,l),
(810.706,1470.2,l)
);
}
);
width = 1208;
},
{
layerId = "7F612C2A-B309-47B1-B60E-6F95A45BF26D";
shapes = (
{
closed = 1;
nodes = (
(-26,0,l),
(42,0,l),
(237,362,l),
(842,362,l),
(907,0,l),
(974,0,l),
(747,1320,l),
(670,1320,l)
);
},
{
closed = 1;
nodes = (
(692,1237,l),
(695,1237,l),
(837,426,l),
(265,426,l)
);
},
{
closed = 1;
nodes = (
(765.836,1550.2,l),
(515.187,1775.8,l),
(439.803,1700.6,l),
(716.689,1499.,l)
);
}
);
width = 1086;
}
);
leftKerningGroup = A;
rightKerningGroup = d;
unicode = 192;
},
{
glyphname = Amacron;
leftMetricsKey = A;
rightMetricsKey = A;
layers = (
{
layerId = "CEE0B0E0-3C1B-4981-BE10-41B2F4187B00";
shapes = (
{
closed = 1;
nodes = (
(-104,0,l),
(310,0,l),
(435.379,229,l),
(906.379,229,l),
(950,0,l),
(1363,0,l),
(1051.752,1320,l),
(672.752,1320,l)
);
},
{
closed = 1;
nodes = (
(779.936,856,l),
(782.936,856,l),
(835.625,565,l),
(624.625,565,l)
);
},
{
closed = 1;
nodes = (
(1179.699,1473.4,l),
(1286.001,1715.,l),
(586.801,1715.,l),
(480.499,1473.4,l)
);
}
);
width = 1451;
},
{
layerId = "2FCE132C-6D1D-4C23-912A-6327D74CCB4B";
shapes = (
{
closed = 1;
nodes = (
(-52,0,l),
(131,0,l),
(308.714,318,l),
(868.714,318,l),
(921,0,l),
(1104,0,l),
(848.681,1320,l),
(670.681,1320,l)
);
},
{
closed = 1;
nodes = (
(736.323,1110,l),
(739.323,1110,l),
(830.777,472,l),
(379.777,472,l)
);
},
{
closed = 1;
nodes = (
(1027.006,1567.8,l),
(1058.549,1692.6,l),
(468.149,1692.6,l),
(438.206,1567.8,l)
);
}
);
width = 1208;
},
{
layerId = "7F612C2A-B309-47B1-B60E-6F95A45BF26D";
shapes = (
{
closed = 1;
nodes = (
(-26,0,l),
(42,0,l),
(237,362,l),
(842,362,l),
(907,0,l),
(974,0,l),
(747,1320,l),
(670,1320,l)
);
},
{
closed = 1;
nodes = (
(692,1237,l),
(695,1237,l),
(837,426,l),
(265,426,l)
);
},
{
closed = 1;
nodes = (
(936.205,1615.8,l),
(947.973,1681.4,l),
(411.973,1681.4,l),
(401.805,1615.8,l)
);
}
);
width = 1086;
}
);
leftKerningGroup = A;
rightKerningGroup = d;
unicode = 256;
},
{
glyphname = Aogonek;
leftMetricsKey = A;
rightMetricsKey = A;
layers = (
{
layerId = "CEE0B0E0-3C1B-4981-BE10-41B2F4187B00";
shapes = (
{
closed = 1;
nodes = (
(-104,0,l),
(310,0,l),
(435.379,229,l),
(906.379,229,l),
(950,0,l),
(1363,0,l),
(1051.752,1320,l),
(672.752,1320,l)
);
},
{
closed = 1;
nodes = (
(779.936,856,l),
(782.936,856,l),
(835.625,565,l),
(624.625,565,l)
);
},
{
closed = 1;
nodes = (
(1228.4,-245.759,l),
(1121.2,-280.868,o),
(1082.8,-245.759,o),
(1082.8,-193.097,cs),
(1082.8,-116.496,o),
(1174.,9.575,o),
(1294.,0,c),
(1258.8,62.238,l),
(954.8,3.192,o),
(831.6,-146.817,o),
(831.6,-269.697,cs),
(831.6,-414.918,o),
(999.6,-523.436,o),
(1252.4,-387.789,c)
);
}
);
width = 1451;
},
{
layerId = "2FCE132C-6D1D-4C23-912A-6327D74CCB4B";
shapes = (
{
closed = 1;
nodes = (
(-52,0,l),
(131,0,l),
(308.714,318,l),
(868.714,318,l),
(921,0,l),
(1104,0,l),
(848.681,1320,l),
(670.681,1320,l)
);
},
{
closed = 1;
nodes = (
(736.323,1110,l),
(739.323,1110,l),
(830.777,472,l),
(379.777,472,l)
);
},
{
closed = 1;
nodes = (
(1011.6,-293.839,l),
(880.4,-343.615,o),
(822.8,-300.262,o),
(822.8,-232.823,cs),
(822.8,-150.934,o),
(906.,-48.17,o),
(1050.,1.606,c),
(1008.4,49.776,l),
(790.8,-12.845,o),
(686.8,-163.779,o),
(686.8,-279.388,cs),
(686.8,-401.419,o),
(810.,-484.915,o),
(1026.,-382.151,c)
);
}
);
width = 1208;
},
{
layerId = "7F612C2A-B309-47B1-B60E-6F95A45BF26D";
shapes = (
{
closed = 1;
nodes = (
(-26,0,l),
(42,0,l),
(237,362,l),
(842,362,l),
(907,0,l),
(974,0,l),
(747,1320,l),
(670,1320,l)
);
},
{
closed = 1;
nodes = (
(692,1237,l),
(695,1237,l),
(837,426,l),
(265,426,l)
);
},
{
closed = 1;
nodes = (
(903.2,-317.289,l),
(760.8,-375.271,o),
(692.,-328.564,o),
(692.,-252.865,cs),
(692.,-169.114,o),
(772.,-77.309,o),
(928.8,1.611,c),
(884.,43.486,l),
(709.6,-20.938,o),
(613.6,-172.335,o),
(613.6,-283.467,cs),
(613.6,-394.598,o),
(714.4,-465.465,o),
(912.8,-380.103,c)
);
}
);
width = 1086;
}
);
leftKerningGroup = A;
rightKerningGroup = d;
unicode = 260;
},
{
glyphname = Aring;
leftMetricsKey = A;
rightMetricsKey = A;
layers = (
{
layerId = "CEE0B0E0-3C1B-4981-BE10-41B2F4187B00";
shapes = (
{
closed = 1;
nodes = (
(-104,0,l),
(310,0,l),
(435.379,229,l),
(906.379,229,l),
(950,0,l),
(1363,0,l),
(1051.752,1320,l),
(672.752,1320,l)
);
},
{
closed = 1;
nodes = (
(779.936,856,l),
(782.936,856,l),
(835.625,565,l),
(624.625,565,l)
);
},
{
closed = 1;
nodes = (
(547.582,1527.6,o),
(643.201,1422.,o),
(816.001,1422.,cs),
(990.401,1422.,o),
(1138.818,1530.8,o),
(1171.354,1686.,cs),
(1202.636,1836.4,o),
(1097.417,1942.,o),
(932.617,1942.,cs),
(766.217,1942.,o),
(611.4,1833.2,o),
(579.282,1679.6,cs)
);
},
{
closed = 1;
nodes = (
(804.619,1727.6,o),
(851.031,1764.4,o),
(889.431,1764.4,cs),
(932.631,1764.4,o),
(958.983,1724.4,o),
(952.082,1679.6,cs),
(945.599,1636.4,o),
(901.97,1598.,o),
(861.97,1598.,cs),
(813.97,1598.,o),
(789.635,1639.6,o),
(798.554,1686.,c)
);
}
);
width = 1451;
},
{
layerId = "2FCE132C-6D1D-4C23-912A-6327D74CCB4B";
shapes = (
{
closed = 1;
nodes = (
(-52,0,l),
(131,0,l),
(308.714,318,l),
(868.714,318,l),
(921,0,l),
(1104,0,l),
(848.681,1320,l),
(670.681,1320,l)
);
},
{
closed = 1;
nodes = (
(736.323,1110,l),
(739.323,1110,l),
(830.777,472,l),
(379.777,472,l)
);
},
{
closed = 1;
nodes = (
(565.109,1552.2,o),
(637.17,1473.8,o),
(763.57,1473.8,cs),
(881.97,1473.8,o),
(977.619,1547.4,o),
(995.202,1653.,cs),
(1012.979,1761.8,o),
(932.918,1840.2,o),
(812.918,1840.2,cs),
(699.318,1840.2,o),
(598.869,1766.6,o),
(582.982,1662.6,cs)
);
},
{
closed = 1;
nodes = (
(710.297,1704.2,o),
(749.515,1744.2,o),
(803.915,1744.2,cs),
(848.715,1744.2,o),
(883.29,1707.4,o),
(875.782,1662.6,cs),
(866.191,1609.8,o),
(826.876,1568.2,o),
(770.876,1568.2,cs),
(722.876,1568.2,o),
(693.197,1606.6,o),
(702.402,1653.,c)
);
}
);
width = 1208;
},
{
layerId = "7F612C2A-B309-47B1-B60E-6F95A45BF26D";
shapes = (
{
closed = 1;
nodes = (
(-26,0,l),
(42,0,l),
(237,362,l),
(842,362,l),
(907,0,l),
(974,0,l),
(747,1320,l),
(670,1320,l)
);
},
{
closed = 1;
nodes = (
(692,1237,l),
(695,1237,l),
(837,426,l),
(265,426,l)
);
},
{
closed = 1;
nodes = (
(566.231,1563.2,o),
(621.598,1499.2,o),
(725.598,1499.2,cs),
(815.198,1499.2,o),
(889.752,1555.2,o),
(907.343,1635.2,c),
(924.549,1724.8,o),
(861.182,1788.8,o),
(765.182,1788.8,cs),
(677.182,1788.8,o),
(597.829,1732.8,o),
(583.373,1654.4,cs)
);
},
{
closed = 1;
nodes = (
(663.497,1691.2,o),
(698.564,1734.4,o),
(759.364,1734.4,cs),
(805.764,1734.4,o),
(843.976,1699.2,o),
(836.173,1654.4,cs),
(827.284,1596.8,o),
(789.081,1552.,o),
(725.081,1552.,cs),
(677.081,1552.,o),
(646.805,1588.8,o),
(654.543,1635.2,cs)
);
}
);
width = 1086;
}
);
leftKerningGroup = A;
rightKerningGroup = d;
unicode = 197;
},
{
glyphname = Atilde;
leftMetricsKey = A;
rightMetricsKey = A;
layers = (
{
layerId = "CEE0B0E0-3C1B-4981-BE10-41B2F4187B00";
shapes = (
{
closed = 1;
nodes = (
(-104,0,l),
(310,0,l),
(435.379,229,l),
(906.379,229,l),
(950,0,l),
(1363,0,l),
(1051.752,1320,l),
(672.752,1320,l)
);
},
{
closed = 1;
nodes = (
(779.936,856,l),
(782.936,856,l),
(835.625,565,l),
(624.625,565,l)
);
},
{
closed = 1;
nodes = (
(822.579,1568.2,o),
(886.556,1494.6,o),
(1012.956,1494.6,cs),
(1156.956,1494.6,o),
(1272.978,1675.4,o),
(1318.517,1813.,c),
(1131.317,1813.,l),
(1117.395,1784.2,o),
(1087.33,1742.6,o),
(1058.53,1742.6,cs),
(967.33,1742.6,o),
(894.935,1814.6,o),
(768.535,1814.6,cs),
(624.535,1814.6,o),
(508.513,1633.8,o),
(461.374,1496.2,c),
(653.374,1496.2,l),
(666.114,1526.6,o),
(694.161,1566.6,o),
(724.561,1566.6,cs)
);
}
);
width = 1451;
},
{
layerId = "2FCE132C-6D1D-4C23-912A-6327D74CCB4B";
shapes = (
{
closed = 1;
nodes = (
(-52,0,l),
(131,0,l),
(308.714,318,l),
(868.714,318,l),
(921,0,l),
(1104,0,l),
(848.681,1320,l),
(670.681,1320,l)
);
},
{
closed = 1;
nodes = (
(736.323,1110,l),
(739.323,1110,l),
(830.777,472,l),
(379.777,472,l)
);
},
{
closed = 1;
nodes = (
(689.16,1585.2,o),
(742.214,1510.,o),
(868.614,1510.,cs),
(974.214,1510.,o),
(1058.461,1633.2,o),
(1091.174,1724.4,c),
(966.374,1724.4,l),
(949.846,1689.2,o),
(912.035,1646.,o),
(865.635,1646.,cs),
(776.035,1646.,o),
(735.78,1721.2,o),
(609.38,1721.2,cs),
(505.38,1721.2,o),
(421.133,1598.,o),
(388.421,1506.8,c),
(508.421,1506.8,l),
(524.948,1542.,o),
(565.96,1585.2,o),
(612.36,1585.2,cs)
);
}
);
width = 1208;
},
{
layerId = "7F612C2A-B309-47B1-B60E-6F95A45BF26D";
shapes = (
{
closed = 1;
nodes = (
(-26,0,l),
(42,0,l),
(237,362,l),
(842,362,l),
(907,0,l),
(974,0,l),
(747,1320,l),
(670,1320,l)
);
},
{
closed = 1;
nodes = (
(692,1237,l),
(695,1237,l),
(837,426,l),
(265,426,l)
);
},
{
closed = 1;
nodes = (
(614.076,1595.,o),
(661.957,1518.2,o),
(786.757,1518.2,cs),
(873.157,1518.2,o),
(950.97,1612.6,o),
(985.075,1679.8,c),
(890.675,1679.8,l),
(874.615,1641.4,o),
(833.148,1598.2,o),
(777.148,1598.2,cs),
(689.148,1598.2,o),
(663.667,1675.,o),
(537.267,1675.,cs),
(452.467,1675.,o),
(376.254,1580.6,o),
(343.749,1513.4,c),
(428.549,1513.4,l),
(446.273,1550.2,o),
(492.476,1595.,o),
(546.876,1595.,cs)
);
}
);
width = 1086;
}
);
leftKerningGroup = A;
rightKerningGroup = d;
unicode = 195;
},
{
glyphname = AE;
rightMetricsKey = E;
layers = (
{
layerId = "CEE0B0E0-3C1B-4981-BE10-41B2F4187B00";
shapes = (
{
closed = 1;
nodes = (
(-56.,0,l),
(396.8,0,l),
(518.4,225.6,l),
(1000.,225.6,l),
(1224.,1320.,l),
(814.4,1320.,l)
);
},
{
closed = 1;
nodes = (
(907.2,793.6,l),
(864.,568.,l),
(761.6,568.,l)
);
},
{
closed = 1;
nodes = (
(749.2,0,l),
(1589.2,0,l),
(1650.,340.8,l),
(1202.,340.8,l),
(1230.8,491.2,l),
(1659.6,491.2,l),
(1718.8,832.,l),
(1290.,832.,l),
(1315.6,979.2,l),
(1763.6,979.2,l),
(1822.8,1320.,l),
(982.8,1320.,l)
);
}
);
width = 1764;
},
{
layerId = "2FCE132C-6D1D-4C23-912A-6327D74CCB4B";
shapes = (
{
closed = 1;
nodes = (
(-76.8,0,l),
(124.8,0,l),
(350.4,315.2,l),
(872.,315.2,l),
(1056.,1320.,l),
(875.2,1320.,l)
);
},
{
closed = 1;
nodes = (
(892.8,1073.6,l),
(787.2,473.6,l),
(460.8,473.6,l)
);
},
{
closed = 1;
nodes = (
(684.6,0,l),
(1398.2,0,l),
(1427.,158.4,l),
(887.8,158.4,l),
(961.4,582.4,l),
(1483.,582.4,l),
(1510.2,740.8,l),
(991.8,740.8,l),
(1063.8,1161.6,l),
(1603.,1161.6,l),
(1631.8,1320.,l),
(918.2,1320.,l)
);
}
);
width = 1552;
},
{
layerId = "7F612C2A-B309-47B1-B60E-6F95A45BF26D";
shapes = (
{
closed = 1;
nodes = (
(-86.4,0,l),
(-11.2,0,l),
(267.2,360.,l),
(808.,360.,l),
(972.8,1320.,l),
(905.6,1320.,l)
);
},
{
closed = 1;
nodes = (
(884.8,1212.8,l),
(748.8,427.2,l),
(310.4,427.2,l)
);
},
{
closed = 1;
nodes = (
(652.6,0,l),
(1302.2,0,l),
(1315.,67.2,l),
(731.,67.2,l),
(827.,627.2,l),
(1393.4,627.2,l),
(1406.2,696.,l),
(841.4,696.,l),
(937.4,1252.8,l),
(1523.,1252.8,l),
(1535.8,1320.,l),
(886.2,1320.,l)
);
}
);
width = 1446;
}
);
leftKerningGroup = A;
rightKerningGroup = E;
unicode = 198;
},
{
color = 1;
glyphname = B;
leftMetricsKey = H;
layers = (
{
layerId = "E52C74B1-6092-48F4-8F12-B4C74D516FC4";
name = "BoldItalicItalic.Nov 4 17, 14:34";
shapes = (
{
closed = 1;
nodes = (
(-20.8,0,l),
(496.,0,ls),
(769.6,0,o),
(937.6,139.2,o),
(974.4,347.2,cs),
(1012.8,569.6,o),
(920.,670.4,o),
(769.6,696.,c),
(897.6,726.4,o),
(1000.,817.6,o),
(1025.6,963.2,cs),
(1072.,1224.,o),
(884.8,1320.,o),
(657.6,1320.,cs),
(212.8,1320.,l)
);
},
{
closed = 1;
nodes = (
(376.,544.,l),
(480.,544.,ls),
(622.4,544.,o),
(683.2,512.,o),
(665.6,400.,cs),
(648.,286.4,o),
(548.8,232.,o),
(406.4,232.,cs),
(321.6,232.,l)
);
},
{
closed = 1;
nodes = (
(472.,1088.,l),
(566.4,1088.,ls),
(710.4,1088.,o),
(745.6,1040.,o),
(731.2,955.2,cs),
(708.8,835.2,o),
(627.2,803.2,o),
(497.6,803.2,cs),
(422.4,803.2,l)
);
}
);
width = 1066;
},
{
layerId = "CEE0B0E0-3C1B-4981-BE10-41B2F4187B00";
shapes = (
{
closed = 1;
nodes = (
(60.,0,l),
(613.6,0,ls),
(887.2,0,o),
(1080.8,142.4,o),
(1120.8,368.,cs),
(1157.6,585.6,o),
(1108.,672.,o),
(916.,712.,c),
(1048.8,744.,o),
(1148.,828.8,o),
(1175.2,976.,cs),
(1220.,1227.2,o),
(1039.2,1320.,o),
(805.6,1320.,cs),
(288.8,1320.,l)
);
},
{
closed = 1;
nodes = (
(541.6,505.6,l),
(541.6,505.6,l),
(653.6,505.6,o),
(727.2,500.8,o),
(704.8,387.2,c),
(688.8,291.2,o),
(605.6,294.4,o),
(503.2,294.4,c),
(503.2,294.4,l)
);
},
{
closed = 1;
nodes = (
(631.2,1025.6,l),
(647.2,1025.6,ls),
(748.,1025.6,o),
(788.,1001.6,o),
(778.4,937.6,cs),
(760.8,835.2,o),
(706.4,841.6,o),
(600.8,841.6,c),
(600.8,841.6,l)
);
}
);
width = 1181;
},
{
layerId = "2FCE132C-6D1D-4C23-912A-6327D74CCB4B";
shapes = (
{
closed = 1;
nodes = (
(35.2,0,l),
(480.,0,ls),
(753.6,0,o),
(908.8,160.,o),
(945.6,368.,cs),
(979.2,574.4,o),
(848.,670.4,o),
(732.8,686.4,c),
(830.4,705.6,o),
(961.6,828.8,o),
(992.,993.6,cs),
(1036.8,1244.8,o),
(852.8,1320.,o),
(636.8,1320.,cs),
(267.2,1320.,l)
);
},
{
closed = 1;
nodes = (
(313.6,596.8,l),
(532.8,596.8,ls),
(718.4,596.8,o),
(788.8,500.8,o),
(764.8,369.6,cs),
(744.,254.4,o),
(662.4,148.8,o),
(468.8,148.8,cs),
(235.2,148.8,l)
);
},
{
closed = 1;
nodes = (
(416.,1171.2,l),
(595.2,1171.2,ls),
(768.,1171.2,o),
(840.,1112.,o),
(816.,974.4,cs),
(795.2,852.8,o),
(702.4,750.4,o),
(540.8,750.4,cs),
(340.8,750.4,l)
);
}
);
width = 990;
},
{
layerId = "7F612C2A-B309-47B1-B60E-6F95A45BF26D";
shapes = (
{
closed = 1;
nodes = (
(16.,0,l),
(406.4,0,ls),
(680.,0,o),
(816.,169.6,o),
(851.2,368.,cs),
(884.8,569.6,o),
(712.,670.4,o),
(635.2,673.6,c),
(715.2,686.4,o),
(862.4,828.8,o),
(894.4,1003.2,cs),
(939.2,1254.4,o),
(753.6,1320.,o),
(545.6,1320.,cs),
(249.6,1320.,l)
);
},
{
closed = 1;
nodes = (
(193.6,641.6,l),
(523.2,641.6,ls),
(745.6,641.6,o),
(812.8,500.8,o),
(788.8,360.,cs),
(766.4,235.2,o),
(684.8,75.2,o),
(444.8,75.2,cs),
(94.4,75.2,l)
);
},
{
closed = 1;
nodes = (
(302.4,1244.8,l),
(563.2,1244.8,ls),
(772.8,1244.8,o),
(860.8,1166.4,o),
(828.8,993.6,cs),
(806.4,862.4,o),
(694.4,705.6,o),
(505.6,705.6,cs),
(204.8,705.6,l)
);
}
);
width = 888;
}
);
leftKerningGroup = N;
unicode = 66;
},
{
color = 1;
glyphname = C;
leftMetricsKey = O;
layers = (
{
anchors = (
{
name = bottom;
position = "{514, 0}";
},
{
name = top;
position = "{746, 1320}";
}
);
guides = (
{
angle = 79.951;
position = "{994, 790}";
}
);
layerId = "CEE0B0E0-3C1B-4981-BE10-41B2F4187B00";
shapes = (
{
closed = 1;
nodes = (
(470.,345.6,o),
(497.2,592.,o),
(510.,700.8,cs),
(522.8,817.6,o),
(567.6,976.,o),
(847.6,976.,cs),
(1052.4,976.,o),
(1204.4,900.8,o),
(1191.6,910.4,c),
(1257.2,1286.4,l),
(1178.8,1313.6,o),
(1062.,1344.,o),
(879.6,1339.2,cs),
(377.2,1328.,o),
(132.4,998.4,o),
(92.4,686.4,cs),
(49.2,353.6,o),
(217.2,-24.,o),
(734.,-24.,cs),
(852.4,-24.,o),
(962.8,-1.6,o),
(1046.,25.6,c),
(1110.,406.4,l),
(1132.4,417.6,o),
(977.2,345.6,o),
(815.6,345.6,cs)
);
}
);
width = 1174;
},
{
anchors = (
{
name = bottom;
position = "{446, 0}";
},
{
name = top;
position = "{678, 1320}";
}
);
guides = (
{
angle = 79.951;
position = "{995, 790}";
}
);
layerId = "2FCE132C-6D1D-4C23-912A-6327D74CCB4B";
shapes = (
{
closed = 1;
nodes = (
(384.6,144.,o),
(218.2,342.4,o),
(272.6,667.2,cs),
(327.,992.,o),
(560.6,1179.2,o),
(808.6,1179.2,cs),
(984.6,1179.2,o),
(1077.4,1124.8,o),
(1095.,1110.4,c),
(1127.,1284.8,l),
(1069.4,1318.4,o),
(984.6,1344.,o),
(834.2,1342.4,cs),
(416.6,1340.8,o),
(147.8,1035.2,o),
(85.4,665.6,cs),
(23.,292.8,o),
(197.4,-24.,o),
(624.6,-24.,cs),
(749.4,-24.,o),
(856.6,6.4,o),
(917.4,36.8,c),
(949.4,219.2,l),
(925.4,201.6,o),
(816.6,144.,o),
(653.4,144.,cs)
);
}
);
width = 1035;
},
{
anchors = (
{
name = bottom;
position = "{412, 0}";
},
{
name = top;
position = "{644, 1320}";
}
);
guides = (
{
angle = 79.951;
position = "{995, 790}";
}
);
layerId = "7F612C2A-B309-47B1-B60E-6F95A45BF26D";
shapes = (
{
closed = 1;
nodes = (
(342.4,43.2,o),
(78.4,217.6,o),
(153.6,649.6,cs),
(228.8,1080.,o),
(556.8,1281.6,o),
(788.8,1281.6,cs),
(950.4,1281.6,o),
(1014.4,1236.8,o),
(1048.,1211.2,c),
(1062.4,1284.8,l),
(1014.4,1321.6,o),
(945.6,1344.,o),
(812.8,1344.,cs),
(436.8,1347.2,o),
(156.8,1054.4,o),
(83.2,656.,cs),
(11.2,262.4,o),
(188.8,-24.,o),
(569.6,-24.,cs),
(699.2,-24.,o),
(804.8,9.6,o),
(854.4,41.6,c),
(868.8,124.8,l),
(822.4,94.4,o),
(736.,43.2,o),
(572.8,43.2,cs)
);
}
);
width = 966;
}
);
leftKerningGroup = O;
unicode = 67;
},
{
glyphname = Cacute;
leftMetricsKey = C;
rightMetricsKey = C;
layers = (
{
layerId = "CEE0B0E0-3C1B-4981-BE10-41B2F4187B00";
shapes = (
{
closed = 1;
nodes = (
(1115.196,1645.,l),
(988.519,1870.6,l),
(587.937,1568.2,l),
(663.437,1416.2,l)
);
},
{
closed = 1;
nodes = (
(470.,345.6,o),
(497.2,592.,o),
(510.,700.8,cs),
(522.8,817.6,o),
(567.6,976.,o),
(847.6,976.,cs),
(1052.4,976.,o),
(1204.4,900.8,o),
(1191.6,910.4,c),
(1257.2,1286.4,l),
(1178.8,1313.6,o),
(1062.,1344.,o),
(879.6,1339.2,cs),
(377.2,1328.,o),
(132.4,998.4,o),
(92.4,686.4,cs),
(49.2,353.6,o),
(217.2,-24.,o),
(734.,-24.,cs),
(852.4,-24.,o),
(962.8,-1.6,o),
(1046.,25.6,c),
(1110.,406.4,l),
(1132.4,417.6,o),
(977.2,345.6,o),
(815.6,345.6,cs)
);
}
);
width = 1174;
},
{
layerId = "2FCE132C-6D1D-4C23-912A-6327D74CCB4B";
shapes = (
{
closed = 1;
nodes = (
(996.072,1683.4,l),
(912.416,1808.2,l),
(567.632,1557.,l),
(618.506,1472.2,l)
);
},
{
closed = 1;
nodes = (
(384.6,144.,o),
(218.2,342.4,o),
(272.6,667.2,cs),
(327.,992.,o),
(560.6,1179.2,o),
(808.6,1179.2,cs),
(984.6,1179.2,o),
(1077.4,1124.8,o),
(1095.,1110.4,c),
(1127.,1284.8,l),
(1069.4,1318.4,o),
(984.6,1344.,o),
(834.2,1342.4,cs),
(416.6,1340.8,o),
(147.8,1035.2,o),
(85.4,665.6,cs),
(23.,292.8,o),
(197.4,-24.,o),
(624.6,-24.,cs),
(749.4,-24.,o),
(856.6,6.4,o),
(917.4,36.8,c),
(949.4,219.2,l),
(925.4,201.6,o),
(816.6,144.,o),
(653.4,144.,cs)
);
}
);
width = 1035;
},
{
layerId = "7F612C2A-B309-47B1-B60E-6F95A45BF26D";
shapes = (
{
closed = 1;
nodes = (
(930.003,1702.6,l),
(883.787,1777.8,l),
(558.436,1552.2,l),
(587.689,1501.,l)
);
},
{
closed = 1;
nodes = (
(342.4,43.2,o),
(78.4,217.6,o),
(153.6,649.6,cs),
(228.8,1080.,o),
(556.8,1281.6,o),
(788.8,1281.6,cs),
(950.4,1281.6,o),
(1014.4,1236.8,o),
(1048.,1211.2,c),
(1062.4,1284.8,l),
(1014.4,1321.6,o),
(945.6,1344.,o),
(812.8,1344.,cs),
(436.8,1347.2,o),
(156.8,1054.4,o),
(83.2,656.,cs),
(11.2,262.4,o),
(188.8,-24.,o),
(569.6,-24.,cs),
(699.2,-24.,o),
(804.8,9.6,o),
(854.4,41.6,c),
(868.8,124.8,l),
(822.4,94.4,o),
(736.,43.2,o),
(572.8,43.2,cs)
);
}
);
width = 966;
}
);
leftKerningGroup = O;
rightKerningGroup = C;
unicode = 262;
},
{
glyphname = Ccaron;
leftMetricsKey = C;
rightMetricsKey = C;
layers = (
{
layerId = "CEE0B0E0-3C1B-4981-BE10-41B2F4187B00";
shapes = (
{
closed = 1;
nodes = (
(470.,345.6,o),
(497.2,592.,o),
(510.,700.8,cs),
(522.8,817.6,o),
(567.6,976.,o),
(847.6,976.,cs),
(1052.4,976.,o),
(1204.4,900.8,o),
(1191.6,910.4,c),
(1257.2,1286.4,l),
(1178.8,1313.6,o),
(1062.,1344.,o),
(879.6,1339.2,cs),
(377.2,1328.,o),
(132.4,998.4,o),
(92.4,686.4,cs),
(49.2,353.6,o),
(217.2,-24.,o),
(734.,-24.,cs),
(852.4,-24.,o),
(962.8,-1.6,o),
(1046.,25.6,c),
(1110.,406.4,l),
(1132.4,417.6,o),
(977.2,345.6,o),
(815.6,345.6,cs)
);
},
{
closed = 1;
nodes = (
(829.8,1651.,l),
(594.6,1843.,l),
(450.6,1668.6,l),
(783.4,1375.8,l),
(1231.4,1659.,l),
(1108.2,1843.,l)
);
}
);
width = 1174;
},
{
layerId = "2FCE132C-6D1D-4C23-912A-6327D74CCB4B";
shapes = (
{
closed = 1;
nodes = (
(384.6,144.,o),
(218.2,342.4,o),
(272.6,667.2,cs),
(327.,992.,o),
(560.6,1179.2,o),
(808.6,1179.2,cs),
(984.6,1179.2,o),
(1077.4,1124.8,o),
(1095.,1110.4,c),
(1127.,1284.8,l),
(1069.4,1318.4,o),
(984.6,1344.,o),
(834.2,1342.4,cs),
(416.6,1340.8,o),
(147.8,1035.2,o),
(85.4,665.6,cs),
(23.,292.8,o),
(197.4,-24.,o),
(624.6,-24.,cs),
(749.4,-24.,o),
(856.6,6.4,o),
(917.4,36.8,c),
(949.4,219.2,l),
(925.4,201.6,o),
(816.6,144.,o),
(653.4,144.,cs)
);
},
{
closed = 1;
nodes = (
(805.2,1636.8,l),
(592.4,1798.4,l),
(517.2,1712.,l),
(782.8,1478.4,l),
(1118.8,1705.6,l),
(1059.6,1798.4,l)
);
}
);
width = 1035;
},
{
layerId = "7F612C2A-B309-47B1-B60E-6F95A45BF26D";
shapes = (
{
closed = 1;
nodes = (
(342.4,43.2,o),
(78.4,217.6,o),
(153.6,649.6,cs),
(228.8,1080.,o),
(556.8,1281.6,o),
(788.8,1281.6,cs),
(950.4,1281.6,o),
(1014.4,1236.8,o),
(1048.,1211.2,c),
(1062.4,1284.8,l),
(1014.4,1321.6,o),
(945.6,1344.,o),
(812.8,1344.,cs),
(436.8,1347.2,o),
(156.8,1054.4,o),
(83.2,656.,cs),
(11.2,262.4,o),
(188.8,-24.,o),
(569.6,-24.,cs),
(699.2,-24.,o),
(804.8,9.6,o),
(854.4,41.6,c),
(868.8,124.8,l),
(822.4,94.4,o),
(736.,43.2,o),
(572.8,43.2,cs)
);
},
{
closed = 1;
nodes = (
(792.4,1630.,l),
(590.8,1775.6,l),
(550.8,1732.4,l),
(782.8,1529.2,l),
(1062.8,1727.6,l),
(1035.6,1775.6,l)
);
}
);
width = 966;
}
);
leftKerningGroup = O;
rightKerningGroup = C;
unicode = 268;
},
{
glyphname = Ccedilla;
leftMetricsKey = C;
rightMetricsKey = C;
layers = (
{
layerId = "CEE0B0E0-3C1B-4981-BE10-41B2F4187B00";
shapes = (
{
closed = 1;
nodes = (
(470.,345.6,o),
(497.2,592.,o),
(510.,700.8,cs),
(522.8,817.6,o),
(567.6,976.,o),
(847.6,976.,cs),
(1052.4,976.,o),
(1204.4,900.8,o),
(1191.6,910.4,c),
(1257.2,1286.4,l),
(1178.8,1313.6,o),
(1062.,1344.,o),
(879.6,1339.2,cs),
(377.2,1328.,o),
(132.4,998.4,o),
(92.4,686.4,cs),
(49.2,353.6,o),
(217.2,-24.,o),
(734.,-24.,cs),
(852.4,-24.,o),
(962.8,-1.6,o),
(1046.,25.6,c),
(1110.,406.4,l),
(1132.4,417.6,o),
(977.2,345.6,o),
(815.6,345.6,cs)
);
},
{
closed = 1;
nodes = (
(515.,-176.,l),
(553.4,-203.2,l),
(563.,-196.8,o),
(580.6,-193.6,o),
(603.,-193.6,cs),
(646.2,-193.6,o),
(703.8,-206.4,o),
(694.2,-240.,c),
(686.2,-278.4,o),
(652.6,-292.8,o),
(614.2,-292.8,cs),
(571.,-292.8,o),
(516.6,-273.6,o),
(481.4,-240.,c),
(385.4,-369.6,l),
(449.4,-408.,o),
(534.2,-430.4,o),
(615.8,-430.4,cs),
(747.,-430.4,o),
(871.8,-376.,o),
(892.6,-257.6,c),
(911.8,-168.,o),
(838.2,-80.,o),
(671.8,-88.,c),
(723.,22.4,l),
(622.2,60.8,l)
);
}
);
width = 1174;
},
{
layerId = "2FCE132C-6D1D-4C23-912A-6327D74CCB4B";
shapes = (
{
closed = 1;
nodes = (
(384.6,144.,o),
(218.2,342.4,o),
(272.6,667.2,cs),
(327.,992.,o),
(560.6,1179.2,o),
(808.6,1179.2,cs),
(984.6,1179.2,o),
(1077.4,1124.8,o),
(1095.,1110.4,c),
(1127.,1284.8,l),
(1069.4,1318.4,o),
(984.6,1344.,o),
(834.2,1342.4,cs),
(416.6,1340.8,o),
(147.8,1035.2,o),
(85.4,665.6,cs),
(23.,292.8,o),
(197.4,-24.,o),
(624.6,-24.,cs),
(749.4,-24.,o),
(856.6,6.4,o),
(917.4,36.8,c),
(949.4,219.2,l),
(925.4,201.6,o),
(816.6,144.,o),
(653.4,144.,cs)
);
},
{
closed = 1;
nodes = (
(414.2,-177.6,l),
(452.6,-201.6,l),
(475.,-193.6,o),
(499.,-188.8,o),
(521.4,-188.8,cs),
(579.,-188.8,o),
(625.4,-217.6,o),
(615.8,-264.,cs),
(606.2,-316.8,o),
(556.6,-340.8,o),
(497.4,-340.8,cs),
(449.4,-340.8,o),
(391.8,-323.2,o),
(351.8,-289.6,c),
(289.4,-368.,l),
(342.2,-416.,o),
(419.,-438.4,o),
(494.2,-438.4,cs),
(612.6,-438.4,o),
(731.,-379.2,o),
(747.,-262.4,cs),
(758.2,-179.2,o),
(703.8,-104.,o),
(543.8,-118.4,c),
(603.,14.4,l),
(534.2,46.4,l)
);
}
);
width = 1035;
},
{
layerId = "7F612C2A-B309-47B1-B60E-6F95A45BF26D";
shapes = (
{
closed = 1;
nodes = (
(342.4,43.2,o),
(78.4,217.6,o),
(153.6,649.6,cs),
(228.8,1080.,o),
(556.8,1281.6,o),
(788.8,1281.6,cs),
(950.4,1281.6,o),
(1014.4,1236.8,o),
(1048.,1211.2,c),
(1062.4,1284.8,l),
(1014.4,1321.6,o),
(945.6,1344.,o),
(812.8,1344.,cs),
(436.8,1347.2,o),
(156.8,1054.4,o),
(83.2,656.,cs),
(11.2,262.4,o),
(188.8,-24.,o),
(569.6,-24.,cs),
(699.2,-24.,o),
(804.8,9.6,o),
(854.4,41.6,c),
(868.8,124.8,l),
(822.4,94.4,o),
(736.,43.2,o),
(572.8,43.2,cs)
);
},
{
closed = 1;
nodes = (
(363.8,-177.6,l),
(402.2,-201.6,l),
(431.,-192.,o),
(458.2,-185.6,o),
(480.6,-185.6,cs),
(546.2,-185.6,o),
(586.2,-222.4,o),
(576.6,-275.2,cs),
(565.4,-336.,o),
(507.8,-364.8,o),
(439.,-364.8,cs),
(387.8,-364.8,o),
(330.2,-347.2,o),
(287.,-313.6,c),
(240.6,-368.,l),
(288.6,-419.2,o),
(362.2,-443.2,o),
(432.6,-443.2,cs),
(546.2,-443.2,o),
(659.8,-380.8,o),
(674.2,-265.6,c),
(682.2,-184.,o),
(635.8,-115.2,o),
(480.6,-132.8,c),
(543.,11.2,l),
(490.2,38.4,l)
);
}
);
width = 966;
}
);
leftKerningGroup = O;
rightKerningGroup = C;
unicode = 199;
},
{
glyphname = Cdotaccent;
leftMetricsKey = C;
rightMetricsKey = C;
layers = (
{
layerId = "CEE0B0E0-3C1B-4981-BE10-41B2F4187B00";
shapes = (
{
closed = 1;
nodes = (
(470.,345.6,o),
(497.2,592.,o),
(510.,700.8,cs),
(522.8,817.6,o),
(567.6,976.,o),
(847.6,976.,cs),
(1052.4,976.,o),
(1204.4,900.8,o),
(1191.6,910.4,c),
(1257.2,1286.4,l),
(1178.8,1313.6,o),
(1062.,1344.,o),
(879.6,1339.2,cs),
(377.2,1328.,o),
(132.4,998.4,o),
(92.4,686.4,cs),
(49.2,353.6,o),
(217.2,-24.,o),
(734.,-24.,cs),
(852.4,-24.,o),
(962.8,-1.6,o),
(1046.,25.6,c),
(1110.,406.4,l),
(1132.4,417.6,o),
(977.2,345.6,o),
(815.6,345.6,cs)
);
},
{
closed = 1;
nodes = (
(854.845,1735.6,o),
(755.969,1657.2,o),
(734.441,1556.4,cs),
(714.167,1460.4,o),
(774.526,1385.2,o),
(870.526,1385.2,cs),
(969.726,1385.2,o),
(1067.003,1463.6,o),
(1088.531,1564.4,cs),
(1110.404,1660.4,o),
(1050.045,1735.6,o),
(954.045,1735.6,cs)
);
}
);
width = 1174;
},
{
layerId = "2FCE132C-6D1D-4C23-912A-6327D74CCB4B";
shapes = (
{
closed = 1;
nodes = (
(384.6,144.,o),
(218.2,342.4,o),
(272.6,667.2,cs),
(327.,992.,o),
(560.6,1179.2,o),
(808.6,1179.2,cs),
(984.6,1179.2,o),
(1077.4,1124.8,o),
(1095.,1110.4,c),
(1127.,1284.8,l),
(1069.4,1318.4,o),
(984.6,1344.,o),
(834.2,1342.4,cs),
(416.6,1340.8,o),
(147.8,1035.2,o),
(85.4,665.6,cs),
(23.,292.8,o),
(197.4,-24.,o),
(624.6,-24.,cs),
(749.4,-24.,o),
(856.6,6.4,o),
(917.4,36.8,c),
(949.4,219.2,l),
(925.4,201.6,o),
(816.6,144.,o),
(653.4,144.,cs)
);
},
{
closed = 1;
nodes = (
(789.328,1714.8,o),
(737.02,1670.,o),
(728.738,1612.4,cs),
(718.566,1550.,o),
(760.271,1498.8,o),
(822.671,1498.8,cs),
(880.271,1498.8,o),
(934.276,1545.2,o),
(942.558,1602.8,cs),
(952.73,1665.2,o),
(907.728,1714.8,o),
(846.928,1714.8,cs)
);
}
);
width = 1035;
},
{
layerId = "7F612C2A-B309-47B1-B60E-6F95A45BF26D";
shapes = (
{
closed = 1;
nodes = (
(342.4,43.2,o),
(78.4,217.6,o),
(153.6,649.6,cs),
(228.8,1080.,o),
(556.8,1281.6,o),
(788.8,1281.6,cs),
(950.4,1281.6,o),
(1014.4,1236.8,o),
(1048.,1211.2,c),
(1062.4,1284.8,l),
(1014.4,1321.6,o),
(945.6,1344.,o),
(812.8,1344.,cs),
(436.8,1347.2,o),
(156.8,1054.4,o),
(83.2,656.,cs),
(11.2,262.4,o),
(188.8,-24.,o),
(569.6,-24.,cs),
(699.2,-24.,o),
(804.8,9.6,o),
(854.4,41.6,c),
(868.8,124.8,l),
(822.4,94.4,o),
(736.,43.2,o),
(572.8,43.2,cs)
);
},
{
closed = 1;
nodes = (
(760.735,1705.2,o),
(725.09,1676.4,o),
(716.902,1641.2,cs),
(707.563,1594.8,o),
(736.303,1556.4,o),
(782.703,1556.4,cs),
(817.903,1556.4,o),
(855.084,1586.8,o),
(863.272,1622.,cs),
(872.611,1668.4,o),
(840.735,1705.2,o),
(797.535,1705.2,cs)
);
}
);
width = 966;
}
);
leftKerningGroup = O;
unicode = 266;
},
{
glyphname = D;
leftMetricsKey = H;
rightMetricsKey = O;
layers = (
{
layerId = "CEE0B0E0-3C1B-4981-BE10-41B2F4187B00";
shapes = (
{
closed = 1;
nodes = (
(56.,0,l),
(529.6,0,ls),
(870.4,0,o),
(1196.8,259.2,o),
(1267.2,630.4,cs),
(1340.8,1028.8,o),
(1084.8,1320.,o),
(747.2,1320.,cs),
(300.8,1320.,l)
);
},
{
closed = 1;
nodes = (
(676.8,969.6,ls),
(825.6,969.6,o),
(884.8,835.2,o),
(862.4,689.6,cs),
(835.2,516.8,o),
(689.6,345.6,o),
(529.6,345.6,cs),
(512.,345.6,l),
(630.4,969.6,l)
);
}
);
width = 1270;
},
{
layerId = "2FCE132C-6D1D-4C23-912A-6327D74CCB4B";
shapes = (
{
closed = 1;
nodes = (
(48.,0,l),
(366.4,0,ls),
(760.,0,o),
(1022.4,272.,o),
(1084.8,654.4,cs),
(1148.8,1041.6,o),
(971.2,1320.,o),
(577.6,1320.,cs),
(267.2,1320.,l)
);
},
{
closed = 1;
nodes = (
(521.6,1163.2,ls),
(849.6,1163.2,o),
(953.6,968.,o),
(904.,665.6,cs),
(852.8,358.4,o),
(659.2,163.2,o),
(352.,163.2,cs),
(251.2,163.2,l),
(414.4,1163.2,l)
);
}
);
width = 1082;
},
{
layerId = "7F612C2A-B309-47B1-B60E-6F95A45BF26D";
shapes = (
{
closed = 1;
nodes = (
(44.8,0,l),
(284.8,0,ls),
(705.6,0,o),
(934.4,278.4,o),
(993.6,665.6,cs),
(1052.8,1048.,o),
(913.6,1320.,o),
(492.8,1320.,cs),
(249.6,1320.,l)
);
},
{
closed = 1;
nodes = (
(444.8,1259.2,ls),
(860.8,1259.2,o),
(988.8,1035.2,o),
(924.8,654.4,cs),
(862.4,278.4,o),
(643.2,72.,o),
(264.,72.,cs),
(120.,72.,l),
(305.6,1259.2,l)
);
}
);
width = 988;
}
);
leftKerningGroup = N;
rightKerningGroup = O;
unicode = 68;
},
{
glyphname = Eth;
layers = (
{
layerId = "CEE0B0E0-3C1B-4981-BE10-41B2F4187B00";
shapes = (
{
closed = 1;
nodes = (
(233.6,1320.,l),
(144.,820.8,l),
(52.8,820.8,l),
(-1.6,499.2,l),
(89.6,499.2,l),
(0,0,l),
(448.,0,ls),
(785.6,0,o),
(1172.8,257.6,o),
(1241.6,632.,cs),
(1310.4,1030.4,o),
(998.4,1320.,o),
(657.6,1320.,cs)
);
},
{
closed = 1;
nodes = (
(454.4,345.6,l),
(483.2,499.2,l),
(628.8,499.2,l),
(681.6,820.8,l),
(537.6,820.8,l),
(564.8,974.4,l),
(585.6,974.4,ls),
(745.6,974.4,o),
(843.2,833.6,o),
(820.8,688.,cs),
(792.,516.8,o),
(612.8,345.6,o),
(449.6,345.6,c)
);
}
);
width = 1283;
},
{
layerId = "2FCE132C-6D1D-4C23-912A-6327D74CCB4B";
shapes = (
{
closed = 1;
nodes = (
(328.,1320.,l),
(224.,729.6,l),
(38.4,729.6,l),
(12.8,590.4,l),
(200.,590.4,l),
(94.4,0,l),
(409.6,0,ls),
(803.2,0,o),
(1078.4,268.8,o),
(1147.2,648.,cs),
(1216.,1038.4,o),
(1024.,1320.,o),
(630.4,1320.,cs)
);
},
{
closed = 1;
nodes = (
(297.6,163.2,l),
(372.8,590.4,l),
(588.8,590.4,l),
(612.8,729.6,l),
(398.4,729.6,l),
(473.6,1156.8,l),
(577.6,1156.8,ls),
(886.4,1156.8,o),
(1020.8,969.6,o),
(968.,672.,cs),
(912.,360.,o),
(699.2,163.2,o),
(392.,163.2,cs)
);
}
);
width = 1186;
},
{
layerId = "7F612C2A-B309-47B1-B60E-6F95A45BF26D";
shapes = (
{
closed = 1;
nodes = (
(376.,1320.,l),
(264.,684.8,l),
(30.4,684.8,l),
(20.8,635.2,l),
(254.4,635.2,l),
(142.4,0,l),
(390.4,0,ls),
(812.8,0,o),
(1032.,273.6,o),
(1099.2,656.,cs),
(1168.,1043.2,o),
(1036.8,1320.,o),
(617.6,1320.,cs)
);
},
{
closed = 1;
nodes = (
(219.2,72.,l),
(318.4,635.2,l),
(568.,635.2,l),
(577.6,684.8,l),
(329.6,684.8,l),
(428.8,1248.,l),
(574.4,1248.,ls),
(956.8,1248.,o),
(1110.4,1038.4,o),
(1041.6,664.,cs),
(972.8,281.6,o),
(742.4,72.,o),
(363.2,72.,cs)
);
}
);
width = 1138;
}
);
rightKerningGroup = O;
unicode = 208;
},
{
glyphname = Dcaron;
layers = (
{
layerId = "CEE0B0E0-3C1B-4981-BE10-41B2F4187B00";
shapes = (
{
closed = 1;
nodes = (
(56.,0,l),
(529.6,0,ls),
(870.4,0,o),
(1196.8,259.2,o),
(1267.2,630.4,cs),
(1340.8,1028.8,o),
(1084.8,1320.,o),
(747.2,1320.,cs),
(300.8,1320.,l)
);
},
{
closed = 1;
nodes = (
(676.8,969.6,ls),
(825.6,969.6,o),
(884.8,835.2,o),
(862.4,689.6,cs),
(835.2,516.8,o),
(689.6,345.6,o),
(529.6,345.6,cs),
(512.,345.6,l),
(630.4,969.6,l)
);
},
{
closed = 1;
nodes = (
(753.8,1651.,l),
(518.6,1843.,l),
(374.6,1668.6,l),
(707.4,1375.8,l),
(1155.4,1659.,l),
(1032.2,1843.,l)
);
}
);
width = 1226;
},
{
layerId = "2FCE132C-6D1D-4C23-912A-6327D74CCB4B";
shapes = (
{
closed = 1;
nodes = (
(48.,0,l),
(366.4,0,ls),
(760.,0,o),
(1022.4,272.,o),
(1084.8,654.4,cs),
(1148.8,1041.6,o),
(971.2,1320.,o),
(577.6,1320.,cs),
(267.2,1320.,l)
);
},
{
closed = 1;
nodes = (
(521.6,1163.2,ls),
(849.6,1163.2,o),
(953.6,968.,o),
(904.,665.6,cs),
(852.8,358.4,o),
(659.2,163.2,o),
(352.,163.2,cs),
(251.2,163.2,l),
(414.4,1163.2,l)
);
},
{
closed = 1;
nodes = (
(649.2,1636.8,l),
(436.4,1798.4,l),
(361.2,1712.,l),
(626.8,1478.4,l),
(962.8,1705.6,l),
(903.6,1798.4,l)
);
}
);
width = 1065;
},
{
layerId = "7F612C2A-B309-47B1-B60E-6F95A45BF26D";
shapes = (
{
closed = 1;
nodes = (
(44.8,0,l),
(284.8,0,ls),
(705.6,0,o),
(934.4,278.4,o),
(993.6,665.6,cs),
(1052.8,1048.,o),
(913.6,1320.,o),
(492.8,1320.,cs),
(249.6,1320.,l)
);
},
{
closed = 1;
nodes = (
(444.8,1259.2,ls),
(860.8,1259.2,o),
(988.8,1035.2,o),
(924.8,654.4,cs),
(862.4,278.4,o),
(643.2,72.,o),
(264.,72.,cs),
(120.,72.,l),
(305.6,1259.2,l)
);
},
{
closed = 1;
nodes = (
(596.4,1630.,l),
(394.8,1775.6,l),
(354.8,1732.4,l),
(586.8,1529.2,l),
(866.8,1727.6,l),
(839.6,1775.6,l)
);
}
);
width = 984;
}
);
rightKerningGroup = O;
unicode = 270;
},
{
glyphname = Dcroat;
layers = (
{
layerId = "CEE0B0E0-3C1B-4981-BE10-41B2F4187B00";
shapes = (
{
closed = 1;
nodes = (
(448.,0,ls),
(788.8,0,o),
(1174.4,260.8,o),
(1241.6,633.6,cs),
(1310.4,1030.4,o),
(996.8,1320.,o),
(657.6,1320.,cs),
(233.6,1320.,l),
(144.,820.8,l),
(52.8,820.8,l),
(-1.6,499.2,l),
(89.6,499.2,l),
(0,0,l)
);
},
{
closed = 1;
nodes = (
(483.2,499.2,l),
(628.8,499.2,l),
(681.6,820.8,l),
(537.6,820.8,l),
(564.8,974.4,l),
(585.6,974.4,ls),
(747.2,974.4,o),
(844.8,833.6,o),
(820.8,686.4,cs),
(790.4,515.2,o),
(611.2,345.6,o),
(449.6,345.6,c),
(454.4,345.6,l)
);
}
);
width = 1283;
},
{
layerId = "2FCE132C-6D1D-4C23-912A-6327D74CCB4B";
shapes = (
{
closed = 1;
nodes = (
(409.6,0,ls),
(804.8,0,o),
(1080.,268.8,o),
(1147.2,648.,cs),
(1216.,1038.4,o),
(1024.,1320.,o),
(630.4,1320.,cs),
(328.,1320.,l),
(224.,729.6,l),
(38.4,729.6,l),
(12.8,590.4,l),
(200.,590.4,l),
(94.4,0,l)
);
},
{
closed = 1;
nodes = (
(372.8,590.4,l),
(588.8,590.4,l),
(612.8,729.6,l),
(398.4,729.6,l),
(473.6,1156.8,l),
(577.6,1156.8,ls),
(886.4,1156.8,o),
(1022.4,969.6,o),
(968.,672.,cs),
(912.,360.,o),
(699.2,163.2,o),
(392.,163.2,cs),
(297.6,163.2,l)
);
}
);
width = 1186;
},
{
layerId = "7F612C2A-B309-47B1-B60E-6F95A45BF26D";
shapes = (
{
closed = 1;
nodes = (
(390.4,0,ls),
(812.8,0,o),
(1032.,273.6,o),
(1099.2,656.,cs),
(1168.,1043.2,o),
(1036.8,1320.,o),
(617.6,1320.,cs),
(376.,1320.,l),
(264.,684.8,l),
(30.4,684.8,l),
(20.8,635.2,l),
(254.4,635.2,l),
(142.4,0,l)
);
},
{
closed = 1;
nodes = (
(318.4,635.2,l),
(568.,635.2,l),
(577.6,684.8,l),
(329.6,684.8,l),
(428.8,1248.,l),
(574.4,1248.,ls),
(955.2,1248.,o),
(1110.4,1038.4,o),
(1041.6,664.,cs),
(972.8,283.2,o),
(742.4,72.,o),
(363.2,72.,cs),
(219.2,72.,l)
);
}
);
width = 1138;
}
);
rightKerningGroup = O;
unicode = 272;
},
{
color = 1;
glyphname = E;
leftMetricsKey = H;
layers = (
{
anchors = (
{
name = bottom;
position = "{457, 0}";
},
{
name = ogonek;
position = "{893, 16}";
},
{
name = top;
position = "{689, 1320}";
},
{
name = topleft;
position = "{181, 1320}";
}
);
layerId = "CEE0B0E0-3C1B-4981-BE10-41B2F4187B00";
shapes = (
{
closed = 1;
nodes = (
(56.2,0,l),
(896.2,0,l),
(957.,340.8,l),
(509.,340.8,l),
(537.8,491.2,l),
(966.6,491.2,l),
(1025.8,832.,l),
(597.,832.,l),
(622.6,979.2,l),
(1070.6,979.2,l),
(1129.8,1320.,l),
(289.8,1320.,l)
);
}
);
width = 1071;
},
{
anchors = (
{
name = bottom;
position = "{379, 0}";
},
{
name = ogonek;
position = "{742, 16}";
},
{
name = top;
position = "{611, 1320}";
},
{
name = topleft;
position = "{193, 1320}";
}
);
layerId = "2FCE132C-6D1D-4C23-912A-6327D74CCB4B";
shapes = (
{
closed = 1;
nodes = (
(34.6,0,l),
(748.2,0,l),
(777.,158.4,l),
(237.8,158.4,l),
(311.4,582.4,l),
(833.,582.4,l),
(860.2,740.8,l),
(341.8,740.8,l),
(413.8,1161.6,l),
(953.,1161.6,l),
(981.8,1320.,l),
(268.2,1320.,l)
);
}
);
width = 902;
},
{
anchors = (
{
name = bottom;
position = "{333, 0}";
},
{
name = ogonek;
position = "{659, 16}";
},
{
name = top;
position = "{565, 1320}";
},
{
name = topleft;
position = "{191, 1320}";
}
);
layerId = "7F612C2A-B309-47B1-B60E-6F95A45BF26D";
shapes = (
{
closed = 1;
nodes = (
(16.6,0,l),
(666.2,0,l),
(679.,67.2,l),
(95.,67.2,l),
(191.,627.2,l),
(757.4,627.2,l),
(770.2,696.,l),
(205.4,696.,l),
(301.4,1252.8,l),
(887.,1252.8,l),
(899.8,1320.,l),
(250.2,1320.,l)
);
}
);
width = 810;
}
);
leftKerningGroup = N;
rightKerningGroup = E;
unicode = 69;
},
{
glyphname = Eacute;
layers = (
{
layerId = "CEE0B0E0-3C1B-4981-BE10-41B2F4187B00";
shapes = (
{
closed = 1;
nodes = (
(67.2,0,l),
(907.2,0,l),
(968.,340.8,l),
(520.,340.8,l),
(548.8,491.2,l),
(977.6,491.2,l),
(1036.8,832.,l),
(608.,832.,l),
(633.6,979.2,l),
(1081.6,979.2,l),
(1140.8,1320.,l),
(300.8,1320.,l)
);
},
{
closed = 1;
nodes = (
(1053.196,1643.,l),
(926.519,1868.6,l),
(525.937,1566.2,l),
(601.437,1414.2,l)
);
}
);
width = 997;
},
{
layerId = "2FCE132C-6D1D-4C23-912A-6327D74CCB4B";
shapes = (
{
closed = 1;
nodes = (
(33.6,0,l),
(747.2,0,l),
(776.,158.4,l),
(236.8,158.4,l),
(310.4,582.4,l),
(832.,582.4,l),
(859.2,740.8,l),
(340.8,740.8,l),
(412.8,1161.6,l),
(952.,1161.6,l),
(980.8,1320.,l),
(267.2,1320.,l)
);
},
{
closed = 1;
nodes = (
(871.072,1681.4,l),
(787.416,1806.2,l),
(442.632,1555.,l),
(493.506,1470.2,l)
);
}
);
width = 909;
},
{
layerId = "7F612C2A-B309-47B1-B60E-6F95A45BF26D";
shapes = (
{
closed = 1;
nodes = (
(16.6,0,l),
(666.2,0,l),
(679.,67.2,l),
(95.,67.2,l),
(191.,627.2,l),
(757.4,627.2,l),
(770.2,696.,l),
(205.4,696.,l),
(301.4,1252.8,l),
(887.,1252.8,l),
(899.8,1320.,l),
(250.2,1320.,l)
);
},
{
closed = 1;
nodes = (
(774.003,1700.6,l),
(727.787,1775.8,l),
(402.436,1550.2,l),
(431.689,1499.,l)
);
}
);
width = 865;
}
);
leftKerningGroup = N;
rightKerningGroup = E;
unicode = 201;
},
{
glyphname = Ecaron;
layers = (
{
layerId = "CEE0B0E0-3C1B-4981-BE10-41B2F4187B00";
shapes = (
{
closed = 1;
nodes = (
(67.2,0,l),
(907.2,0,l),
(968.,340.8,l),
(520.,340.8,l),
(548.8,491.2,l),
(977.6,491.2,l),
(1036.8,832.,l),
(608.,832.,l),
(633.6,979.2,l),
(1081.6,979.2,l),
(1140.8,1320.,l),
(300.8,1320.,l)
);
},
{
closed = 1;
nodes = (
(790.8,1651.,l),
(555.6,1843.,l),
(411.6,1668.6,l),
(744.4,1375.8,l),
(1192.4,1659.,l),
(1069.2,1843.,l)
);
}
);
width = 997;
},
{
layerId = "2FCE132C-6D1D-4C23-912A-6327D74CCB4B";
shapes = (
{
closed = 1;
nodes = (
(33.6,0,l),
(747.2,0,l),
(776.,158.4,l),
(236.8,158.4,l),
(310.4,582.4,l),
(832.,582.4,l),
(859.2,740.8,l),
(340.8,740.8,l),
(412.8,1161.6,l),
(952.,1161.6,l),
(980.8,1320.,l),
(267.2,1320.,l)
);
},
{
closed = 1;
nodes = (
(670.2,1636.8,l),
(457.4,1798.4,l),
(382.2,1712.,l),
(647.8,1478.4,l),
(983.8,1705.6,l),
(924.6,1798.4,l)
);
}
);
width = 909;
},
{
layerId = "7F612C2A-B309-47B1-B60E-6F95A45BF26D";
shapes = (
{
closed = 1;
nodes = (
(16.6,0,l),
(666.2,0,l),
(679.,67.2,l),
(95.,67.2,l),
(191.,627.2,l),
(757.4,627.2,l),
(770.2,696.,l),
(205.4,696.,l),
(301.4,1252.8,l),
(887.,1252.8,l),
(899.8,1320.,l),
(250.2,1320.,l)
);
},
{
closed = 1;
nodes = (
(609.4,1630.,l),
(407.8,1775.6,l),
(367.8,1732.4,l),
(599.8,1529.2,l),
(879.8,1727.6,l),
(852.6,1775.6,l)
);
}
);
width = 865;
}
);
leftKerningGroup = N;
rightKerningGroup = E;
unicode = 282;
},
{
glyphname = Ecircumflex;
layers = (
{
layerId = "CEE0B0E0-3C1B-4981-BE10-41B2F4187B00";
shapes = (
{
closed = 1;
nodes = (
(67.2,0,l),
(907.2,0,l),
(968.,340.8,l),
(520.,340.8,l),
(548.8,491.2,l),
(977.6,491.2,l),
(1036.8,832.,l),
(608.,832.,l),
(633.6,979.2,l),
(1081.6,979.2,l),
(1140.8,1320.,l),
(300.8,1320.,l)
);
},
{
closed = 1;
nodes = (
(743.,1584.6,l),
(979.8,1392.6,l),
(1122.2,1567.,l),
(784.6,1859.8,l),
(343.,1576.6,l),
(466.2,1392.6,l)
);
}
);
width = 997;
},
{
layerId = "2FCE132C-6D1D-4C23-912A-6327D74CCB4B";
shapes = (
{
closed = 1;
nodes = (
(33.6,0,l),
(747.2,0,l),
(776.,158.4,l),
(236.8,158.4,l),
(310.4,582.4,l),
(832.,582.4,l),
(859.2,740.8,l),
(340.8,740.8,l),
(412.8,1161.6,l),
(952.,1161.6,l),
(980.8,1320.,l),
(267.2,1320.,l)
);
},
{
closed = 1;
nodes = (
(658.6,1656.4,l),
(868.2,1496.4,l),
(941.8,1582.8,l),
(682.6,1814.8,l),
(341.8,1587.6,l),
(401.,1496.4,l)
);
}
);
width = 909;
},
{
layerId = "7F612C2A-B309-47B1-B60E-6F95A45BF26D";
shapes = (
{
closed = 1;
nodes = (
(16.6,0,l),
(666.2,0,l),
(679.,67.2,l),
(95.,67.2,l),
(191.,627.2,l),
(757.4,627.2,l),
(770.2,696.,l),
(205.4,696.,l),
(301.4,1252.8,l),
(887.,1252.8,l),
(899.8,1320.,l),
(250.2,1320.,l)
);
},
{
closed = 1;
nodes = (
(616.4,1693.6,l),
(813.2,1548.,l),
(851.6,1591.2,l),
(632.4,1792.8,l),
(341.2,1594.4,l),
(368.4,1548.,l)
);
}
);
width = 865;
}
);
leftKerningGroup = N;
rightKerningGroup = E;
unicode = 202;
},
{
glyphname = Edieresis;
layers = (
{
layerId = "CEE0B0E0-3C1B-4981-BE10-41B2F4187B00";
shapes = (
{
closed = 1;
nodes = (
(67.2,0,l),
(907.2,0,l),
(968.,340.8,l),
(520.,340.8,l),
(548.8,491.2,l),
(977.6,491.2,l),
(1036.8,832.,l),
(608.,832.,l),
(633.6,979.2,l),
(1081.6,979.2,l),
(1140.8,1320.,l),
(300.8,1320.,l)
);
},
{
closed = 1;
nodes = (
(366.367,1497.4,o),
(424.29,1419.,o),
(521.89,1419.,cs),
(619.49,1419.,o),
(718.367,1497.4,o),
(743.859,1595.,cs),
(769.351,1692.6,o),
(711.428,1771.,o),
(613.828,1771.,cs),
(516.228,1771.,o),
(417.351,1692.6,o),
(391.859,1595.,cs)
);
},
{
closed = 1;
nodes = (
(742.367,1497.4,o),
(800.29,1419.,o),
(897.89,1419.,cs),
(995.49,1419.,o),
(1094.367,1497.4,o),
(1119.859,1595.,cs),
(1145.351,1692.6,o),
(1087.428,1771.,o),
(989.828,1771.,cs),
(892.228,1771.,o),
(793.351,1692.6,o),
(767.859,1595.,cs)
);
}
);
width = 997;
},
{
layerId = "2FCE132C-6D1D-4C23-912A-6327D74CCB4B";
shapes = (
{
closed = 1;
nodes = (
(33.6,0,l),
(747.2,0,l),
(776.,158.4,l),
(236.8,158.4,l),
(310.4,582.4,l),
(832.,582.4,l),
(859.2,740.8,l),
(340.8,740.8,l),
(412.8,1161.6,l),
(952.,1161.6,l),
(980.8,1320.,l),
(267.2,1320.,l)
);
},
{
closed = 1;
nodes = (
(375.966,1587.,o),
(421.065,1539.,o),
(480.265,1539.,cs),
(539.465,1539.,o),
(590.366,1587.,o),
(594.041,1647.8,cs),
(597.717,1708.6,o),
(552.618,1756.6,o),
(493.418,1756.6,cs),
(434.218,1756.6,o),
(383.317,1708.6,o),
(379.641,1647.8,cs)
);
},
{
closed = 1;
nodes = (
(755.166,1587.,o),
(800.265,1539.,o),
(859.465,1539.,cs),
(918.665,1539.,o),
(969.566,1587.,o),
(973.241,1647.8,cs),
(976.917,1708.6,o),
(931.818,1756.6,o),
(872.618,1756.6,cs),
(813.418,1756.6,o),
(762.517,1708.6,o),
(758.841,1647.8,cs)
);
}
);
width = 909;
},
{
layerId = "7F612C2A-B309-47B1-B60E-6F95A45BF26D";
shapes = (
{
closed = 1;
nodes = (
(16.6,0,l),
(666.2,0,l),
(679.,67.2,l),
(95.,67.2,l),
(191.,627.2,l),
(757.4,627.2,l),
(770.2,696.,l),
(205.4,696.,l),
(301.4,1252.8,l),
(887.,1252.8,l),
(899.8,1320.,l),
(250.2,1320.,l)
);
},
{
closed = 1;
nodes = (
(745.899,1633.4,o),
(779.246,1599.8,o),
(820.846,1599.8,cs),
(860.846,1599.8,o),
(891.499,1633.4,o),
(889.83,1675.,cs),
(888.226,1715.,o),
(854.878,1748.6,o),
(814.878,1748.6,cs),
(773.278,1748.6,o),
(742.626,1715.,o),
(744.23,1675.,cs)
);
},
{
closed = 1;
nodes = (
(366.699,1633.4,o),
(400.046,1599.8,o),
(441.646,1599.8,cs),
(481.646,1599.8,o),
(512.299,1633.4,o),
(510.63,1675.,cs),
(509.026,1715.,o),
(475.678,1748.6,o),
(435.678,1748.6,cs),
(394.078,1748.6,o),
(363.426,1715.,o),
(365.03,1675.,cs)
);
}
);
width = 865;
}
);
leftKerningGroup = N;
rightKerningGroup = E;
unicode = 203;
},
{
glyphname = Edotaccent;
layers = (
{
layerId = "CEE0B0E0-3C1B-4981-BE10-41B2F4187B00";
shapes = (
{
closed = 1;
nodes = (
(67.2,0,l),
(907.2,0,l),
(968.,340.8,l),
(520.,340.8,l),
(548.8,491.2,l),
(977.6,491.2,l),
(1036.8,832.,l),
(608.,832.,l),
(633.6,979.2,l),
(1081.6,979.2,l),
(1140.8,1320.,l),
(300.8,1320.,l)
);
},
{
closed = 1;
nodes = (
(688.845,1772.6,o),
(589.969,1694.2,o),
(568.441,1593.4,cs),
(548.167,1497.4,o),
(608.526,1422.2,o),
(704.526,1422.2,cs),
(803.726,1422.2,o),
(901.003,1500.6,o),
(922.531,1601.4,cs),
(944.404,1697.4,o),
(884.045,1772.6,o),
(788.045,1772.6,cs)
);
}
);
width = 997;
},
{
layerId = "2FCE132C-6D1D-4C23-912A-6327D74CCB4B";
shapes = (
{
closed = 1;
nodes = (
(33.6,0,l),
(747.2,0,l),
(776.,158.4,l),
(236.8,158.4,l),
(310.4,582.4,l),
(832.,582.4,l),
(859.2,740.8,l),
(340.8,740.8,l),
(412.8,1161.6,l),
(952.,1161.6,l),
(980.8,1320.,l),
(267.2,1320.,l)
);
},
{
closed = 1;
nodes = (
(615.328,1751.8,o),
(563.02,1707.,o),
(554.738,1649.4,cs),
(544.566,1587.,o),
(586.271,1535.8,o),
(648.671,1535.8,cs),
(706.271,1535.8,o),
(760.276,1582.2,o),
(768.558,1639.8,cs),
(778.73,1702.2,o),
(733.728,1751.8,o),
(672.928,1751.8,cs)
);
}
);
width = 909;
},
{
layerId = "7F612C2A-B309-47B1-B60E-6F95A45BF26D";
shapes = (
{
closed = 1;
nodes = (
(16.6,0,l),
(666.2,0,l),
(679.,67.2,l),
(95.,67.2,l),
(191.,627.2,l),
(757.4,627.2,l),
(770.2,696.,l),
(205.4,696.,l),
(301.4,1252.8,l),
(887.,1252.8,l),
(899.8,1320.,l),
(250.2,1320.,l)
);
},
{
closed = 1;
nodes = (
(582.735,1742.2,o),
(547.09,1713.4,o),
(538.902,1678.2,cs),
(529.563,1631.8,o),
(558.303,1593.4,o),
(604.703,1593.4,cs),
(639.903,1593.4,o),
(677.084,1623.8,o),
(685.272,1659.,cs),
(694.611,1705.4,o),
(662.735,1742.2,o),
(619.535,1742.2,cs)
);
}
);
width = 865;
}
);
leftKerningGroup = N;
rightKerningGroup = E;
unicode = 278;
},
{
glyphname = Egrave;
layers = (
{
layerId = "CEE0B0E0-3C1B-4981-BE10-41B2F4187B00";
shapes = (
{
closed = 1;
nodes = (
(67.2,0,l),
(907.2,0,l),
(968.,340.8,l),
(520.,340.8,l),
(548.8,491.2,l),
(977.6,491.2,l),
(1036.8,832.,l),
(608.,832.,l),
(633.6,979.2,l),
(1081.6,979.2,l),
(1140.8,1320.,l),
(300.8,1320.,l)
);
},
{
closed = 1;
nodes = (
(916.737,1566.2,l),
(637.319,1868.6,l),
(405.596,1643.,l),
(771.437,1414.2,l)
);
}
);
width = 997;
},
{
layerId = "2FCE132C-6D1D-4C23-912A-6327D74CCB4B";
shapes = (
{
closed = 1;
nodes = (
(33.6,0,l),
(747.2,0,l),
(776.,158.4,l),
(236.8,158.4,l),
(310.4,582.4,l),
(832.,582.4,l),
(859.2,740.8,l),
(340.8,740.8,l),
(412.8,1161.6,l),
(952.,1161.6,l),
(980.8,1320.,l),
(267.2,1320.,l)
);
},
{
closed = 1;
nodes = (
(781.632,1555.,l),
(516.816,1806.2,l),
(398.872,1681.4,l),
(707.706,1470.2,l)
);
}
);
width = 909;
},
{
layerId = "7F612C2A-B309-47B1-B60E-6F95A45BF26D";
shapes = (
{
closed = 1;
nodes = (
(16.6,0,l),
(666.2,0,l),
(679.,67.2,l),
(95.,67.2,l),
(191.,627.2,l),
(757.4,627.2,l),
(770.2,696.,l),
(205.4,696.,l),
(301.4,1252.8,l),
(887.,1252.8,l),
(899.8,1320.,l),
(250.2,1320.,l)
);
},
{
closed = 1;
nodes = (
(716.836,1550.2,l),
(466.187,1775.8,l),
(390.803,1700.6,l),
(667.689,1499.,l)
);
}
);
width = 865;
}
);
leftKerningGroup = N;
rightKerningGroup = E;
unicode = 200;
},
{
glyphname = Emacron;
layers = (
{
layerId = "CEE0B0E0-3C1B-4981-BE10-41B2F4187B00";
shapes = (
{
closed = 1;
nodes = (
(67.2,0,l),
(907.2,0,l),
(968.,340.8,l),
(520.,340.8,l),
(548.8,491.2,l),
(977.6,491.2,l),
(1036.8,832.,l),
(608.,832.,l),
(633.6,979.2,l),
(1081.6,979.2,l),
(1140.8,1320.,l),
(300.8,1320.,l)
);
},
{
closed = 1;
nodes = (
(1053.699,1473.4,l),
(1160.001,1715.,l),
(460.801,1715.,l),
(354.499,1473.4,l)
);
}
);
width = 997;
},
{
layerId = "2FCE132C-6D1D-4C23-912A-6327D74CCB4B";
shapes = (
{
closed = 1;
nodes = (
(33.6,0,l),
(747.2,0,l),
(776.,158.4,l),
(236.8,158.4,l),
(310.4,582.4,l),
(832.,582.4,l),
(859.2,740.8,l),
(340.8,740.8,l),
(412.8,1161.6,l),
(952.,1161.6,l),
(980.8,1320.,l),
(267.2,1320.,l)
);
},
{
closed = 1;
nodes = (
(960.006,1567.8,l),
(991.549,1692.6,l),
(401.149,1692.6,l),
(371.206,1567.8,l)
);
}
);
width = 909;
},
{
layerId = "7F612C2A-B309-47B1-B60E-6F95A45BF26D";
shapes = (
{
closed = 1;
nodes = (
(16.6,0,l),
(666.2,0,l),
(679.,67.2,l),
(95.,67.2,l),
(191.,627.2,l),
(757.4,627.2,l),
(770.2,696.,l),
(205.4,696.,l),
(301.4,1252.8,l),
(887.,1252.8,l),
(899.8,1320.,l),
(250.2,1320.,l)
);
},
{
closed = 1;
nodes = (
(899.205,1615.8,l),
(910.973,1681.4,l),
(374.973,1681.4,l),
(364.805,1615.8,l)
);
}
);
width = 865;
}
);
leftKerningGroup = N;
rightKerningGroup = E;
unicode = 274;
},
{
glyphname = Eogonek;
layers = (
{
layerId = "CEE0B0E0-3C1B-4981-BE10-41B2F4187B00";
shapes = (
{
closed = 1;
nodes = (
(67.2,0,l),
(907.2,0,l),
(968.,340.8,l),
(520.,340.8,l),
(548.8,491.2,l),
(977.6,491.2,l),
(1036.8,832.,l),
(608.,832.,l),
(633.6,979.2,l),
(1081.6,979.2,l),
(1140.8,1320.,l),
(300.8,1320.,l)
);
},
{
closed = 1;
nodes = (
(840.4,-246.4,l),
(733.2,-281.6,o),
(694.8,-246.4,o),
(694.8,-193.6,cs),
(694.8,-116.8,o),
(786.,9.6,o),
(906.,0,c),
(870.8,62.4,l),
(566.8,3.2,o),
(443.6,-147.2,o),
(443.6,-270.4,cs),
(443.6,-416.,o),
(611.6,-524.8,o),
(864.4,-388.8,c)
);
}
);
width = 1077;
},
{
layerId = "2FCE132C-6D1D-4C23-912A-6327D74CCB4B";
shapes = (
{
closed = 1;
nodes = (
(33.6,0,l),
(747.2,0,l),
(776.,158.4,l),
(236.8,158.4,l),
(310.4,582.4,l),
(832.,582.4,l),
(859.2,740.8,l),
(340.8,740.8,l),
(412.8,1161.6,l),
(952.,1161.6,l),
(980.8,1320.,l),
(267.2,1320.,l)
);
},
{
closed = 1;
nodes = (
(708.6,-292.8,l),
(577.4,-342.4,o),
(519.8,-299.2,o),
(519.8,-232.,cs),
(519.8,-150.4,o),
(603.,-48.,o),
(747.,1.6,c),
(705.4,49.6,l),
(487.8,-12.8,o),
(383.8,-163.2,o),
(383.8,-278.4,cs),
(383.8,-400.,o),
(507.,-483.2,o),
(723.,-380.8,c)
);
}
);
width = 907;
},
{
layerId = "7F612C2A-B309-47B1-B60E-6F95A45BF26D";
shapes = (
{
closed = 1;
nodes = (
(16.6,0,l),
(666.2,0,l),
(679.,67.2,l),
(95.,67.2,l),
(191.,627.2,l),
(757.4,627.2,l),
(770.2,696.,l),
(205.4,696.,l),
(301.4,1252.8,l),
(887.,1252.8,l),
(899.8,1320.,l),
(250.2,1320.,l)
);
},
{
closed = 1;
nodes = (
(643.2,-315.2,l),
(500.8,-372.8,o),
(432.,-326.4,o),
(432.,-251.2,cs),
(432.,-168.,o),
(512.,-76.8,o),
(668.8,1.6,c),
(624.,43.2,l),
(449.6,-20.8,o),
(353.6,-171.2,o),
(353.6,-281.6,cs),
(353.6,-392.,o),
(454.4,-462.4,o),
(652.8,-377.6,c)
);
}
);
width = 822;
}
);
leftKerningGroup = N;
rightKerningGroup = E;
unicode = 280;
},
{
color = 1;
glyphname = F;
leftMetricsKey = H;
layers = (
{
layerId = "CEE0B0E0-3C1B-4981-BE10-41B2F4187B00";
shapes = (
{
closed = 1;
nodes = (
(56.,0,l),
(449.6,0,l),
(542.4,491.2,l),
(931.2,491.2,l),
(992.,832.,l),
(603.2,832.,l),
(633.6,979.2,l),
(1057.6,979.2,l),
(1118.4,1320.,l),
(300.8,1320.,l)
);
}
);
width = 996;
},
{
layerId = "2FCE132C-6D1D-4C23-912A-6327D74CCB4B";
shapes = (
{
closed = 1;
nodes = (
(48.,0,l),
(222.4,0,l),
(318.4,582.4,l),
(798.4,582.4,l),
(824.,740.8,l),
(345.6,740.8,l),
(412.8,1161.6,l),
(928.,1161.6,l),
(956.8,1320.,l),
(267.2,1320.,l)
);
}
);
width = 841;
},
{
layerId = "7F612C2A-B309-47B1-B60E-6F95A45BF26D";
shapes = (
{
closed = 1;
nodes = (
(43.2,0,l),
(108.8,0,l),
(206.4,627.2,l),
(731.2,627.2,l),
(740.8,696.,l),
(216.,696.,l),
(302.4,1252.8,l),
(864.,1252.8,l),
(875.2,1320.,l),
(249.6,1320.,l)
);
}
);
width = 764;
}
);
leftKerningGroup = N;
rightKerningGroup = F;
unicode = 70;
},
{
glyphname = G;
leftMetricsKey = O;
rightMetricsKey = O;
layers = (
{
anchors = (
{
name = bottom;
position = "{626, 0}";
},
{
name = top;
position = "{858, 1320}";
}
);
layerId = "CEE0B0E0-3C1B-4981-BE10-41B2F4187B00";
shapes = (
{
closed = 1;
nodes = (
(717.4,465.6,l),
(968.6,465.6,l),
(952.6,380.8,o),
(853.4,331.2,o),
(731.8,331.2,cs),
(539.8,331.2,o),
(466.2,457.6,o),
(507.8,672.,cs),
(544.6,868.8,o),
(650.2,992.,o),
(808.6,992.,cs),
(839.,992.,o),
(1013.4,987.2,o),
(1077.4,825.6,c),
(1360.6,1097.6,l),
(1231.,1297.6,o),
(1019.8,1345.6,o),
(840.6,1345.6,cs),
(450.2,1345.6,o),
(173.4,1120.,o),
(103.,752.,cs),
(34.2,385.6,o),
(189.4,-24.,o),
(712.6,-24.,cs),
(1056.6,-24.,o),
(1312.6,152.,o),
(1362.2,457.6,cs),
(1410.2,755.2,l),
(770.2,755.2,l)
);
}
);
width = 1395;
},
{
anchors = (
{
name = bottom;
position = "{567, 0}";
},
{
name = top;
position = "{799, 1320}";
}
);
layerId = "2FCE132C-6D1D-4C23-912A-6327D74CCB4B";
shapes = (
{
closed = 1;
nodes = (
(680.6,571.2,l),
(1082.2,571.2,l),
(1040.6,305.6,o),
(859.8,142.4,o),
(615.,142.4,cs),
(343.,142.4,o),
(216.6,337.6,o),
(269.4,652.8,cs),
(322.2,977.6,o),
(527.,1182.4,o),
(797.4,1182.4,cs),
(959.,1182.4,o),
(1063.,1100.8,o),
(1107.8,1032.,c),
(1247.,1153.6,l),
(1178.2,1244.8,o),
(1045.4,1344.,o),
(811.8,1344.,cs),
(431.,1344.,o),
(155.8,1094.4,o),
(88.6,683.2,cs),
(23.,278.4,o),
(197.4,-24.,o),
(608.6,-24.,cs),
(960.6,-24.,o),
(1207.,201.6,o),
(1267.8,577.6,cs),
(1290.2,718.4,l),
(704.6,718.4,l)
);
}
);
width = 1279;
},
{
anchors = (
{
name = bottom;
position = "{537, 0}";
},
{
name = top;
position = "{769, 1320}";
}
);
layerId = "7F612C2A-B309-47B1-B60E-6F95A45BF26D";
shapes = (
{
closed = 1;
nodes = (
(661.4,624.,l),
(1139.8,624.,l),
(1085.4,267.2,o),
(863.,48.,o),
(557.4,48.,cs),
(245.4,48.,o),
(91.8,278.4,o),
(149.4,643.2,cs),
(210.2,1032.,o),
(464.6,1276.8,o),
(792.6,1276.8,cs),
(1019.8,1276.8,o),
(1088.6,1158.4,o),
(1123.8,1134.4,c),
(1191.,1182.4,l),
(1151.,1217.6,o),
(1058.2,1344.,o),
(797.4,1344.,cs),
(421.4,1344.,o),
(147.8,1081.6,o),
(82.2,649.6,cs),
(16.6,225.6,o),
(202.2,-24.,o),
(557.4,-24.,cs),
(912.6,-24.,o),
(1154.2,225.6,o),
(1219.8,638.4,cs),
(1229.4,699.2,l),
(672.6,699.2,l)
);
}
);
width = 1219;
}
);
leftKerningGroup = O;
rightKerningGroup = d;
unicode = 71;
},
{
glyphname = Gbreve;
layers = (
{
layerId = "CEE0B0E0-3C1B-4981-BE10-41B2F4187B00";
shapes = (
{
closed = 1;
nodes = (
(717.4,465.6,l),
(968.6,465.6,l),
(952.6,380.8,o),
(853.4,331.2,o),
(731.8,331.2,cs),
(539.8,331.2,o),
(466.2,457.6,o),
(507.8,672.,cs),
(544.6,868.8,o),
(650.2,992.,o),
(808.6,992.,cs),
(839.,992.,o),
(1013.4,987.2,o),
(1077.4,825.6,c),
(1360.6,1097.6,l),
(1231.,1297.6,o),
(1019.8,1345.6,o),
(840.6,1345.6,cs),
(450.2,1345.6,o),
(173.4,1120.,o),
(103.,752.,cs),
(34.2,385.6,o),
(189.4,-24.,o),
(712.6,-24.,cs),
(1056.6,-24.,o),
(1312.6,152.,o),
(1362.2,457.6,cs),
(1410.2,755.2,l),
(770.2,755.2,l)
);
},
{
closed = 1;
nodes = (
(1158.88,1867.,l),
(1138.475,1795.,o),
(1066.858,1686.2,o),
(953.258,1686.2,cs),
(836.458,1686.2,o),
(814.857,1793.4,o),
(822.88,1867.,c),
(550.164,1803.,l),
(527.42,1593.4,o),
(674.86,1471.8,o),
(902.06,1471.8,cs),
(1132.46,1471.8,o),
(1328.256,1596.6,o),
(1399.,1806.2,c)
);
}
);
width = 1387;
},
{
layerId = "2FCE132C-6D1D-4C23-912A-6327D74CCB4B";
shapes = (
{
closed = 1;
nodes = (
(680.6,571.2,l),
(1082.2,571.2,l),
(1040.6,305.6,o),
(859.8,142.4,o),
(615.,142.4,cs),
(343.,142.4,o),
(216.6,337.6,o),
(269.4,652.8,cs),
(322.2,977.6,o),
(527.,1182.4,o),
(797.4,1182.4,cs),
(959.,1182.4,o),
(1063.,1100.8,o),
(1107.8,1032.,c),
(1247.,1153.6,l),
(1178.2,1244.8,o),
(1045.4,1344.,o),
(811.8,1344.,cs),
(431.,1344.,o),
(155.8,1094.4,o),
(88.6,683.2,cs),
(23.,278.4,o),
(197.4,-24.,o),
(608.6,-24.,cs),
(960.6,-24.,o),
(1207.,201.6,o),
(1267.8,577.6,cs),
(1290.2,718.4,l),
(704.6,718.4,l)
);
},
{
closed = 1;
nodes = (
(1022.952,1771.6,l),
(1004.49,1704.4,o),
(940.648,1627.6,o),
(835.048,1627.6,cs),
(734.248,1627.6,o),
(687.69,1704.4,o),
(686.952,1771.6,c),
(558.715,1741.2,l),
(554.758,1622.8,o),
(645.394,1507.6,o),
(819.794,1507.6,cs),
(994.194,1507.6,o),
(1119.364,1619.6,o),
(1148.921,1738.,c)
);
}
);
width = 1266;
},
{
layerId = "7F612C2A-B309-47B1-B60E-6F95A45BF26D";
shapes = (
{
closed = 1;
nodes = (
(661.4,624.,l),
(1139.8,624.,l),
(1085.4,267.2,o),
(863.,48.,o),
(557.4,48.,cs),
(245.4,48.,o),
(91.8,278.4,o),
(149.4,643.2,cs),
(210.2,1032.,o),
(464.6,1276.8,o),
(792.6,1276.8,cs),
(1019.8,1276.8,o),
(1088.6,1158.4,o),
(1123.8,1134.4,c),
(1191.,1182.4,l),
(1151.,1217.6,o),
(1058.2,1344.,o),
(797.4,1344.,cs),
(421.4,1344.,o),
(147.8,1081.6,o),
(82.2,649.6,cs),
(16.6,225.6,o),
(202.2,-24.,o),
(557.4,-24.,cs),
(912.6,-24.,o),
(1154.2,225.6,o),
(1219.8,638.4,cs),
(1229.4,699.2,l),
(672.6,699.2,l)
);
},
{
closed = 1;
nodes = (
(969.799,1723.6,l),
(951.566,1659.6,o),
(886.805,1598.8,o),
(784.405,1598.8,cs),
(691.605,1598.8,o),
(636.302,1661.2,o),
(633.735,1725.2,c),
(571.912,1710.8,l),
(563.6,1638.8,o),
(624.092,1526.8,o),
(772.892,1526.8,cs),
(920.092,1526.8,o),
(1010.321,1630.8,o),
(1034.569,1704.4,c)
);
}
);
width = 1206;
}
);
leftKerningGroup = O;
unicode = 286;
},
{
glyphname = Gcommaaccent;
layers = (
{
layerId = "CEE0B0E0-3C1B-4981-BE10-41B2F4187B00";
shapes = (
{
closed = 1;
nodes = (
(560.,-48.,o),
(505.6,-108.8,o),
(497.6,-166.4,cs),
(488.,-228.8,o),
(536.,-286.4,o),
(611.2,-294.4,c),
(596.8,-321.6,o),
(577.6,-331.2,o),
(489.6,-377.6,c),
(553.6,-462.4,l),
(662.4,-436.8,o),
(811.2,-331.2,o),
(825.6,-235.2,c),
(844.8,-121.6,o),
(785.6,-48.,o),
(673.6,-48.,cs)
);
},
{
closed = 1;
nodes = (
(717.4,465.6,l),
(968.6,465.6,l),
(952.6,380.8,o),
(853.4,331.2,o),
(731.8,331.2,cs),
(539.8,331.2,o),
(466.2,457.6,o),
(507.8,672.,cs),
(544.6,868.8,o),
(650.2,992.,o),
(808.6,992.,cs),
(839.,992.,o),
(1013.4,987.2,o),
(1077.4,825.6,c),
(1360.6,1097.6,l),
(1231.,1297.6,o),
(1019.8,1345.6,o),
(840.6,1345.6,cs),
(450.2,1345.6,o),
(173.4,1120.,o),
(103.,752.,cs),
(34.2,385.6,o),
(189.4,-24.,o),
(712.6,-24.,cs),
(1056.6,-24.,o),
(1312.6,152.,o),
(1362.2,457.6,cs),
(1410.2,755.2,l),
(770.2,755.2,l)
);
}
);
width = 1403;
},
{
layerId = "2FCE132C-6D1D-4C23-912A-6327D74CCB4B";
shapes = (
{
closed = 1;
nodes = (
(529.6,-72.,o),
(478.4,-121.6,o),
(467.2,-177.6,cs),
(457.6,-233.6,o),
(510.4,-284.8,o),
(577.6,-276.8,c),
(540.8,-329.6,o),
(464.,-371.2,o),
(443.2,-382.4,c),
(496.,-432.,l),
(574.4,-398.4,o),
(689.6,-310.4,o),
(707.2,-204.8,c),
(721.6,-129.6,o),
(675.2,-72.,o),
(598.4,-72.,cs)
);
},
{
closed = 1;
nodes = (
(680.6,571.2,l),
(1082.2,571.2,l),
(1040.6,305.6,o),
(859.8,142.4,o),
(615.,142.4,cs),
(343.,142.4,o),
(216.6,337.6,o),
(269.4,652.8,cs),
(322.2,977.6,o),
(527.,1182.4,o),
(797.4,1182.4,cs),
(959.,1182.4,o),
(1063.,1100.8,o),
(1107.8,1032.,c),
(1247.,1153.6,l),
(1178.2,1244.8,o),
(1045.4,1344.,o),
(811.8,1344.,cs),
(431.,1344.,o),
(155.8,1094.4,o),
(88.6,683.2,cs),
(23.,278.4,o),
(197.4,-24.,o),
(608.6,-24.,cs),
(960.6,-24.,o),
(1207.,201.6,o),
(1267.8,577.6,cs),
(1290.2,718.4,l),
(704.6,718.4,l)
);
}
);
width = 1270;
},
{
layerId = "7F612C2A-B309-47B1-B60E-6F95A45BF26D";
shapes = (
{
closed = 1;
nodes = (
(515.2,-83.2,o),
(465.6,-128.,o),
(452.8,-182.4,cs),
(441.6,-236.8,o),
(497.6,-284.8,o),
(561.6,-267.2,c),
(512.,-334.4,o),
(408.,-392.,o),
(420.8,-385.6,c),
(467.2,-417.6,l),
(531.2,-379.2,o),
(628.8,-300.8,o),
(648.,-190.4,cs),
(659.2,-132.8,o),
(619.2,-83.2,o),
(561.6,-83.2,cs)
);
},
{
closed = 1;
nodes = (
(661.4,624.,l),
(1139.8,624.,l),
(1085.4,267.2,o),
(863.,48.,o),
(557.4,48.,cs),
(245.4,48.,o),
(91.8,278.4,o),
(149.4,643.2,cs),
(210.2,1032.,o),
(464.6,1276.8,o),
(792.6,1276.8,cs),
(1019.8,1276.8,o),
(1088.6,1158.4,o),
(1123.8,1134.4,c),
(1191.,1182.4,l),
(1151.,1217.6,o),
(1058.2,1344.,o),
(797.4,1344.,cs),
(421.4,1344.,o),
(147.8,1081.6,o),
(82.2,649.6,cs),
(16.6,225.6,o),
(202.2,-24.,o),
(557.4,-24.,cs),
(912.6,-24.,o),
(1154.2,225.6,o),
(1219.8,638.4,cs),
(1229.4,699.2,l),
(672.6,699.2,l)
);
}
);
width = 1203;
}
);
leftKerningGroup = O;
rightKerningGroup = d;
unicode = 290;
},
{
glyphname = Gdotaccent;
layers = (
{
layerId = "CEE0B0E0-3C1B-4981-BE10-41B2F4187B00";
shapes = (
{
closed = 1;
nodes = (
(717.4,465.6,l),
(968.6,465.6,l),
(952.6,380.8,o),
(853.4,331.2,o),
(731.8,331.2,cs),
(539.8,331.2,o),
(466.2,457.6,o),
(507.8,672.,cs),
(544.6,868.8,o),
(650.2,992.,o),
(808.6,992.,cs),
(839.,992.,o),
(1013.4,987.2,o),
(1077.4,825.6,c),
(1360.6,1097.6,l),
(1231.,1297.6,o),
(1019.8,1345.6,o),
(840.6,1345.6,cs),
(450.2,1345.6,o),
(173.4,1120.,o),
(103.,752.,cs),
(34.2,385.6,o),
(189.4,-24.,o),
(712.6,-24.,cs),
(1056.6,-24.,o),
(1312.6,152.,o),
(1362.2,457.6,cs),
(1410.2,755.2,l),
(770.2,755.2,l)
);
},
{
closed = 1;
nodes = (
(849.845,1772.6,o),
(750.969,1694.2,o),
(729.441,1593.4,cs),
(709.167,1497.4,o),
(769.526,1422.2,o),
(865.526,1422.2,cs),
(964.726,1422.2,o),
(1062.003,1500.6,o),
(1083.531,1601.4,cs),
(1105.404,1697.4,o),
(1045.045,1772.6,o),
(949.045,1772.6,cs)
);
}
);
width = 1387;
},
{
layerId = "2FCE132C-6D1D-4C23-912A-6327D74CCB4B";
shapes = (
{
closed = 1;
nodes = (
(680.6,571.2,l),
(1082.2,571.2,l),
(1040.6,305.6,o),
(859.8,142.4,o),
(615.,142.4,cs),
(343.,142.4,o),
(216.6,337.6,o),
(269.4,652.8,cs),
(322.2,977.6,o),
(527.,1182.4,o),
(797.4,1182.4,cs),
(959.,1182.4,o),
(1063.,1100.8,o),
(1107.8,1032.,c),
(1247.,1153.6,l),
(1178.2,1244.8,o),
(1045.4,1344.,o),
(811.8,1344.,cs),
(431.,1344.,o),
(155.8,1094.4,o),
(88.6,683.2,cs),
(23.,278.4,o),
(197.4,-24.,o),
(608.6,-24.,cs),
(960.6,-24.,o),
(1207.,201.6,o),
(1267.8,577.6,cs),
(1290.2,718.4,l),
(704.6,718.4,l)
);
},
{
closed = 1;
nodes = (
(808.328,1751.8,o),
(756.02,1707.,o),
(747.738,1649.4,cs),
(737.566,1587.,o),
(779.271,1535.8,o),
(841.671,1535.8,cs),
(899.271,1535.8,o),
(953.276,1582.2,o),
(961.558,1639.8,cs),
(971.73,1702.2,o),
(926.728,1751.8,o),
(865.928,1751.8,cs)
);
}
);
width = 1266;
},
{
layerId = "7F612C2A-B309-47B1-B60E-6F95A45BF26D";
shapes = (
{
closed = 1;
nodes = (
(661.4,624.,l),
(1139.8,624.,l),
(1085.4,267.2,o),
(863.,48.,o),
(557.4,48.,cs),
(245.4,48.,o),
(91.8,278.4,o),
(149.4,643.2,cs),
(210.2,1032.,o),
(464.6,1276.8,o),
(792.6,1276.8,cs),
(1019.8,1276.8,o),
(1088.6,1158.4,o),
(1123.8,1134.4,c),
(1191.,1182.4,l),
(1151.,1217.6,o),
(1058.2,1344.,o),
(797.4,1344.,cs),
(421.4,1344.,o),
(147.8,1081.6,o),
(82.2,649.6,cs),
(16.6,225.6,o),
(202.2,-24.,o),
(557.4,-24.,cs),
(912.6,-24.,o),
(1154.2,225.6,o),
(1219.8,638.4,cs),
(1229.4,699.2,l),
(672.6,699.2,l)
);
},
{
closed = 1;
nodes = (
(790.735,1742.2,o),
(755.09,1713.4,o),
(746.902,1678.2,cs),
(737.563,1631.8,o),
(766.303,1593.4,o),
(812.703,1593.4,cs),
(847.903,1593.4,o),
(885.084,1623.8,o),
(893.272,1659.,cs),
(902.611,1705.4,o),
(870.735,1742.2,o),
(827.535,1742.2,cs)
);
}
);
width = 1206;
}
);
leftKerningGroup = O;
unicode = 288;
},
{
color = 1;
glyphname = H;
layers = (
{
anchors = (
{
name = bottom;
position = "{620, 0}";
},
{
name = center;
position = "{737, 661}";
},
{
name = top;
position = "{852, 1320}";
},
{
name = topleft;
position = "{192, 1320}";
}
);
layerId = "4E18C67D-FD18-4DC8-98B4-735370D5F5E0";
name = "#instance";
shapes = (
{
closed = 1;
nodes = (
(776.,0,l),
(1168.,0,l),
(1412.8,1320.,l),
(1019.2,1320.,l),
(929.6,832.,l),
(603.2,832.,l),
(694.4,1320.,l),
(300.8,1320.,l),
(56.,0,l),
(449.6,0,l),
(542.4,491.2,l),
(868.8,491.2,l)
);
}
);
width = 1381;
},
{
anchors = (
{
name = bottom;
position = "{620, 0}";
},
{
name = center;
position = "{737, 661}";
},
{
name = top;
position = "{852, 1320}";
},
{
name = topleft;
position = "{192, 1320}";
}
);
layerId = "CEE0B0E0-3C1B-4981-BE10-41B2F4187B00";
shapes = (
{
closed = 1;
nodes = (
(776.,0,l),
(1168.,0,l),
(1412.8,1320.,l),
(1019.2,1320.,l),
(929.6,832.,l),
(603.2,832.,l),
(694.4,1320.,l),
(300.8,1320.,l),
(56.,0,l),
(449.6,0,l),
(542.4,491.2,l),
(868.8,491.2,l)
);
}
);
width = 1381;
},
{
anchors = (
{
name = bottom;
position = "{498, 0}";
},
{
name = center;
position = "{615, 661}";
},
{
name = top;
position = "{730, 1320}";
},
{
name = topleft;
position = "{192, 1320}";
}
);
layerId = "2FCE132C-6D1D-4C23-912A-6327D74CCB4B";
shapes = (
{
closed = 1;
nodes = (
(784.,0,l),
(958.4,0,l),
(1177.6,1320.,l),
(1003.2,1320.,l),
(907.2,740.8,l),
(345.6,740.8,l),
(440.,1320.,l),
(267.2,1320.,l),
(48.,0,l),
(222.4,0,l),
(318.4,582.4,l),
(881.6,582.4,l)
);
}
);
width = 1137;
},
{
anchors = (
{
name = bottom;
position = "{437, 0}";
},
{
name = center;
position = "{554, 661}";
},
{
name = top;
position = "{669, 1320}";
},
{
name = topleft;
position = "{192, 1320}";
}
);
layerId = "7F612C2A-B309-47B1-B60E-6F95A45BF26D";
shapes = (
{
closed = 1;
nodes = (
(788.8,0,l),
(854.4,0,l),
(1060.8,1320.,l),
(995.2,1320.,l),
(896.,696.,l),
(216.,696.,l),
(313.6,1320.,l),
(249.6,1320.,l),
(43.2,0,l),
(108.8,0,l),
(206.4,627.2,l),
(888.,627.2,l)
);
}
);
width = 1015;
}
);
leftKerningGroup = N;
rightKerningGroup = N;
unicode = 72;
},
{
glyphname = Hbar;
layers = (
{
layerId = "CEE0B0E0-3C1B-4981-BE10-41B2F4187B00";
shapes = (
{
closed = 1;
nodes = (
(136.,886.4,l),
(1432.,886.4,l),
(1484.8,1179.2,l),
(188.8,1179.2,l)
);
},
{
closed = 1;
nodes = (
(776.,0,l),
(1168.,0,l),
(1412.8,1320.,l),
(1019.2,1320.,l),
(929.6,832.,l),
(603.2,832.,l),
(694.4,1320.,l),
(300.8,1320.,l),
(56.,0,l),
(449.6,0,l),
(542.4,491.2,l),
(868.8,491.2,l)
);
}
);
width = 1304;
},
{
layerId = "2FCE132C-6D1D-4C23-912A-6327D74CCB4B";
shapes = (
{
closed = 1;
nodes = (
(105.6,977.6,l),
(1219.2,977.6,l),
(1243.2,1107.2,l),
(128.,1107.2,l)
);
},
{
closed = 1;
nodes = (
(784.,0,l),
(958.4,0,l),
(1177.6,1320.,l),
(1003.2,1320.,l),
(907.2,740.8,l),
(345.6,740.8,l),
(440.,1320.,l),
(267.2,1320.,l),
(48.,0,l),
(222.4,0,l),
(318.4,582.4,l),
(881.6,582.4,l)
);
}
);
width = 1103;
},
{
layerId = "7F612C2A-B309-47B1-B60E-6F95A45BF26D";
shapes = (
{
closed = 1;
nodes = (
(89.6,1022.4,l),
(1112.,1022.4,l),
(1121.6,1070.4,l),
(97.6,1070.4,l)
);
},
{
closed = 1;
nodes = (
(788.8,0,l),
(854.4,0,l),
(1060.8,1320.,l),
(995.2,1320.,l),
(896.,696.,l),
(216.,696.,l),
(313.6,1320.,l),
(249.6,1320.,l),
(43.2,0,l),
(108.8,0,l),
(206.4,627.2,l),
(888.,627.2,l)
);
}
);
width = 1003;
}
);
unicode = 294;
},
{
color = 1;
glyphname = I;
layers = (
{
anchors = (
{
name = bottom;
position = "{253, 0}";
},
{
name = ogonek;
position = "{515, 16}";
},
{
name = top;
position = "{485, 1320}";
},
{
name = topleft;
position = "{192, 1320}";
}
);
layerId = "CEE0B0E0-3C1B-4981-BE10-41B2F4187B00";
shapes = (
{
closed = 1;
nodes = (
(49.6,0,l),
(441.6,0,l),
(686.4,1320.,l),
(292.8,1320.,l)
);
}
);
width = 647;
},
{
anchors = (
{
name = bottom;
position = "{140, 0}";
},
{
name = ogonek;
position = "{311, 16}";
},
{
name = top;
position = "{372, 1320}";
},
{
name = topleft;
position = "{192, 1320}";
}
);
layerId = "2FCE132C-6D1D-4C23-912A-6327D74CCB4B";
shapes = (
{
closed = 1;
nodes = (
(57.6,0,l),
(232.,0,l),
(451.2,1320.,l),
(276.8,1320.,l)
);
}
);
width = 422;
},
{
anchors = (
{
name = bottom;
position = "{83, 0}";
},
{
name = ogonek;
position = "{209, 16}";
},
{
name = top;
position = "{315, 1320}";
},
{
name = topleft;
position = "{192, 1320}";
}
);
layerId = "7F612C2A-B309-47B1-B60E-6F95A45BF26D";
shapes = (
{
closed = 1;
nodes = (
(62.4,0,l),
(128.,0,l),
(334.4,1320.,l),
(268.8,1320.,l)
);
}
);
width = 309;
}
);
leftKerningGroup = i;
rightKerningGroup = d;
unicode = 73;
},
{
glyphname = Iacute;
layers = (
{
layerId = "CEE0B0E0-3C1B-4981-BE10-41B2F4187B00";
shapes = (
{
closed = 1;
nodes = (
(49.6,0,l),
(441.6,0,l),
(686.4,1320.,l),
(292.8,1320.,l)
);
},
{
closed = 1;
nodes = (
(802.196,1643.,l),
(675.519,1868.6,l),
(274.937,1566.2,l),
(350.437,1414.2,l)
);
}
);
width = 570;
},
{
layerId = "2FCE132C-6D1D-4C23-912A-6327D74CCB4B";
shapes = (
{
closed = 1;
nodes = (
(57.6,0,l),
(232.,0,l),
(451.2,1320.,l),
(276.8,1320.,l)
);
},
{
closed = 1;
nodes = (
(645.072,1681.4,l),
(561.416,1806.2,l),
(216.632,1555.,l),
(267.506,1470.2,l)
);
}
);
width = 388;
},
{
layerId = "7F612C2A-B309-47B1-B60E-6F95A45BF26D";
shapes = (
{
closed = 1;
nodes = (
(62.4,0,l),
(128.,0,l),
(334.4,1320.,l),
(268.8,1320.,l)
);
},
{
closed = 1;
nodes = (
(560.003,1700.6,l),
(513.787,1775.8,l),
(188.436,1550.2,l),
(217.689,1499.,l)
);
}
);
width = 297;
}
);
leftKerningGroup = i;
rightKerningGroup = d;
unicode = 205;
},
{
glyphname = Icircumflex;
layers = (
{
layerId = "CEE0B0E0-3C1B-4981-BE10-41B2F4187B00";
shapes = (
{
closed = 1;
nodes = (
(49.6,0,l),
(441.6,0,l),
(686.4,1320.,l),
(292.8,1320.,l)
);
},
{
closed = 1;
nodes = (
(539.,1584.6,l),
(775.8,1392.6,l),
(918.2,1567.,l),
(580.6,1859.8,l),
(139.,1576.6,l),
(262.2,1392.6,l)
);
}
);
width = 570;
},
{
layerId = "2FCE132C-6D1D-4C23-912A-6327D74CCB4B";
shapes = (
{
closed = 1;
nodes = (
(57.6,0,l),
(232.,0,l),
(451.2,1320.,l),
(276.8,1320.,l)
);
},
{
closed = 1;
nodes = (
(407.6,1656.4,l),
(617.2,1496.4,l),
(690.8,1582.8,l),
(431.6,1814.8,l),
(90.8,1587.6,l),
(150.,1496.4,l)
);
}
);
width = 388;
},
{
layerId = "7F612C2A-B309-47B1-B60E-6F95A45BF26D";
shapes = (
{
closed = 1;
nodes = (
(62.4,0,l),
(128.,0,l),
(334.4,1320.,l),
(268.8,1320.,l)
);
},
{
closed = 1;
nodes = (
(341.4,1693.6,l),
(538.2,1548.,l),
(576.6,1591.2,l),
(357.4,1792.8,l),
(66.2,1594.4,l),
(93.4,1548.,l)
);
}
);
width = 297;
}
);
leftKerningGroup = Icircumflex;
rightKerningGroup = Icircumflex;
unicode = 206;
},
{
glyphname = Idieresis;
layers = (
{
layerId = "CEE0B0E0-3C1B-4981-BE10-41B2F4187B00";
shapes = (
{
closed = 1;
nodes = (
(49.6,0,l),
(441.6,0,l),
(686.4,1320.,l),
(292.8,1320.,l)
);
},
{
closed = 1;
nodes = (
(124.367,1497.4,o),
(182.29,1419.,o),
(279.89,1419.,cs),
(377.49,1419.,o),
(476.367,1497.4,o),
(501.859,1595.,cs),
(527.351,1692.6,o),
(469.428,1771.,o),
(371.828,1771.,cs),
(274.228,1771.,o),
(175.351,1692.6,o),
(149.859,1595.,cs)
);
},
{
closed = 1;
nodes = (
(500.367,1497.4,o),
(558.29,1419.,o),
(655.89,1419.,cs),
(753.49,1419.,o),
(852.367,1497.4,o),
(877.859,1595.,cs),
(903.351,1692.6,o),
(845.428,1771.,o),
(747.828,1771.,cs),
(650.228,1771.,o),
(551.351,1692.6,o),
(525.859,1595.,cs)
);
}
);
width = 570;
},
{
layerId = "2FCE132C-6D1D-4C23-912A-6327D74CCB4B";
shapes = (
{
closed = 1;
nodes = (
(57.6,0,l),
(232.,0,l),
(451.2,1320.,l),
(276.8,1320.,l)
);
},
{
closed = 1;
nodes = (
(107.966,1587.,o),
(153.065,1539.,o),
(212.265,1539.,cs),
(271.465,1539.,o),
(322.366,1587.,o),
(326.041,1647.8,cs),
(329.717,1708.6,o),
(284.618,1756.6,o),
(225.418,1756.6,cs),
(166.218,1756.6,o),
(115.317,1708.6,o),
(111.641,1647.8,cs)
);
},
{
closed = 1;
nodes = (
(487.166,1587.,o),
(532.265,1539.,o),
(591.465,1539.,cs),
(650.665,1539.,o),
(701.566,1587.,o),
(705.241,1647.8,cs),
(708.917,1708.6,o),
(663.818,1756.6,o),
(604.618,1756.6,cs),
(545.418,1756.6,o),
(494.517,1708.6,o),
(490.841,1647.8,cs)
);
}
);
width = 388;
},
{
layerId = "7F612C2A-B309-47B1-B60E-6F95A45BF26D";
shapes = (
{
closed = 1;
nodes = (
(62.4,0,l),
(128.,0,l),
(334.4,1320.,l),
(268.8,1320.,l)
);
},
{
closed = 1;
nodes = (
(464.899,1633.4,o),
(498.246,1599.8,o),
(539.846,1599.8,cs),
(579.846,1599.8,o),
(610.499,1633.4,o),
(608.83,1675.,cs),
(607.226,1715.,o),
(573.878,1748.6,o),
(533.878,1748.6,cs),
(492.278,1748.6,o),
(461.626,1715.,o),
(463.23,1675.,cs)
);
},
{
closed = 1;
nodes = (
(85.699,1633.4,o),
(119.046,1599.8,o),
(160.646,1599.8,cs),
(200.646,1599.8,o),
(231.299,1633.4,o),
(229.63,1675.,cs),
(228.026,1715.,o),
(194.678,1748.6,o),
(154.678,1748.6,cs),
(113.078,1748.6,o),
(82.426,1715.,o),
(84.03,1675.,cs)
);
}
);
width = 297;
}
);
leftKerningGroup = Icircumflex;
rightKerningGroup = Icircumflex;
unicode = 207;
},
{
glyphname = Idotaccent;
layers = (
{
layerId = "CEE0B0E0-3C1B-4981-BE10-41B2F4187B00";
shapes = (
{
closed = 1;
nodes = (
(49.6,0,l),
(441.6,0,l),
(686.4,1320.,l),
(292.8,1320.,l)
);
},
{
closed = 1;
nodes = (
(470.845,1772.6,o),
(371.969,1694.2,o),
(350.441,1593.4,cs),
(330.167,1497.4,o),
(390.526,1422.2,o),
(486.526,1422.2,cs),
(585.726,1422.2,o),
(683.003,1500.6,o),
(704.531,1601.4,cs),
(726.404,1697.4,o),
(666.045,1772.6,o),
(570.045,1772.6,cs)
);
}
);
width = 570;
},
{
layerId = "2FCE132C-6D1D-4C23-912A-6327D74CCB4B";
shapes = (
{
closed = 1;
nodes = (
(57.6,0,l),
(232.,0,l),
(451.2,1320.,l),
(276.8,1320.,l)
);
},
{
closed = 1;
nodes = (
(372.328,1751.8,o),
(320.02,1707.,o),
(311.738,1649.4,cs),
(301.566,1587.,o),
(343.271,1535.8,o),
(405.671,1535.8,cs),
(463.271,1535.8,o),
(517.276,1582.2,o),
(525.558,1639.8,cs),
(535.73,1702.2,o),
(490.728,1751.8,o),
(429.928,1751.8,cs)
);
}
);
width = 388;
},
{
layerId = "7F612C2A-B309-47B1-B60E-6F95A45BF26D";
shapes = (
{
closed = 1;
nodes = (
(62.4,0,l),
(128.,0,l),
(334.4,1320.,l),
(268.8,1320.,l)
);
},
{
closed = 1;
nodes = (
(326.735,1742.2,o),
(291.09,1713.4,o),
(282.902,1678.2,cs),
(273.563,1631.8,o),
(302.303,1593.4,o),
(348.703,1593.4,cs),
(383.903,1593.4,o),
(421.084,1623.8,o),
(429.272,1659.,cs),
(438.611,1705.4,o),
(406.735,1742.2,o),
(363.535,1742.2,cs)
);
}
);
width = 297;
}
);
unicode = 304;
},
{
glyphname = Igrave;
layers = (
{
layerId = "CEE0B0E0-3C1B-4981-BE10-41B2F4187B00";
shapes = (
{
closed = 1;
nodes = (
(49.6,0,l),
(441.6,0,l),
(686.4,1320.,l),
(292.8,1320.,l)
);
},
{
closed = 1;
nodes = (
(787.326,1566.2,l),
(533.578,1868.6,l),
(282.705,1643.,l),
(629.124,1414.2,l)
);
}
);
width = 560;
},
{
layerId = "2FCE132C-6D1D-4C23-912A-6327D74CCB4B";
shapes = (
{
closed = 1;
nodes = (
(57.6,0,l),
(232.,0,l),
(451.2,1320.,l),
(276.8,1320.,l)
);
},
{
closed = 1;
nodes = (
(579.291,1555.,l),
(285.373,1806.2,l),
(181.888,1681.4,l),
(515.189,1470.2,l)
);
}
);
width = 401;
},
{
layerId = "7F612C2A-B309-47B1-B60E-6F95A45BF26D";
shapes = (
{
closed = 1;
nodes = (
(62.4,0,l),
(128.,0,l),
(334.4,1320.,l),
(268.8,1320.,l)
);
},
{
closed = 1;
nodes = (
(479.345,1550.2,l),
(179.874,1775.8,l),
(120.764,1700.6,l),
(441.279,1499.,l)
);
}
);
width = 322;
}
);
leftKerningGroup = i;
rightKerningGroup = d;
unicode = 204;
},
{
glyphname = Imacron;
layers = (
{
layerId = "CEE0B0E0-3C1B-4981-BE10-41B2F4187B00";
shapes = (
{
closed = 1;
nodes = (
(49.6,0,l),
(441.6,0,l),
(686.4,1320.,l),
(292.8,1320.,l)
);
},
{
closed = 1;
nodes = (
(816.699,1473.4,l),
(923.001,1715.,l),
(223.801,1715.,l),
(117.499,1473.4,l)
);
}
);
width = 570;
},
{
layerId = "2FCE132C-6D1D-4C23-912A-6327D74CCB4B";
shapes = (
{
closed = 1;
nodes = (
(57.6,0,l),
(232.,0,l),
(451.2,1320.,l),
(276.8,1320.,l)
);
},
{
closed = 1;
nodes = (
(697.006,1567.8,l),
(728.549,1692.6,l),
(138.149,1692.6,l),
(108.206,1567.8,l)
);
}
);
width = 388;
},
{
layerId = "7F612C2A-B309-47B1-B60E-6F95A45BF26D";
shapes = (
{
closed = 1;
nodes = (
(62.4,0,l),
(128.,0,l),
(334.4,1320.,l),
(268.8,1320.,l)
);
},
{
closed = 1;
nodes = (
(622.205,1615.8,l),
(633.973,1681.4,l),
(97.973,1681.4,l),
(87.805,1615.8,l)
);
}
);
width = 297;
}
);
leftKerningGroup = Icircumflex;
rightKerningGroup = Icircumflex;
unicode = 298;
},
{
glyphname = Iogonek;
layers = (
{
layerId = "CEE0B0E0-3C1B-4981-BE10-41B2F4187B00";
shapes = (
{
closed = 1;
nodes = (
(49.6,0,l),
(441.6,0,l),
(686.4,1320.,l),
(292.8,1320.,l)
);
},
{
closed = 1;
nodes = (
(378.4,-246.4,l),
(271.2,-281.6,o),
(232.8,-246.4,o),
(232.8,-193.6,cs),
(232.8,-116.8,o),
(324.,9.6,o),
(444.,0,c),
(408.8,62.4,l),
(104.8,3.2,o),
(-18.4,-147.2,o),
(-18.4,-270.4,cs),
(-18.4,-416.,o),
(149.6,-524.8,o),
(402.4,-388.8,c)
);
}
);
width = 647;
},
{
layerId = "2FCE132C-6D1D-4C23-912A-6327D74CCB4B";
shapes = (
{
closed = 1;
nodes = (
(57.6,0,l),
(232.,0,l),
(451.2,1320.,l),
(276.8,1320.,l)
);
},
{
closed = 1;
nodes = (
(194.6,-292.8,l),
(63.4,-342.4,o),
(5.8,-299.2,o),
(5.8,-232.,cs),
(5.8,-150.4,o),
(89.,-48.,o),
(233.,1.6,c),
(191.4,49.6,l),
(-26.2,-12.8,o),
(-130.2,-163.2,o),
(-130.2,-278.4,cs),
(-130.2,-400.,o),
(-7.,-483.2,o),
(209.,-380.8,c)
);
}
);
width = 422;
},
{
layerId = "7F612C2A-B309-47B1-B60E-6F95A45BF26D";
shapes = (
{
closed = 1;
nodes = (
(62.4,0,l),
(128.,0,l),
(334.4,1320.,l),
(268.8,1320.,l)
);
},
{
closed = 1;
nodes = (
(103.2,-315.2,l),
(-39.2,-372.8,o),
(-108.,-326.4,o),
(-108.,-251.2,cs),
(-108.,-168.,o),
(-28.,-76.8,o),
(128.8,1.6,c),
(84.,43.2,l),
(-90.4,-20.8,o),
(-186.4,-171.2,o),
(-186.4,-281.6,cs),
(-186.4,-392.,o),
(-85.6,-462.4,o),
(112.8,-377.6,c)
);
}
);
width = 309;
}
);
rightKerningGroup = d;
unicode = 302;
},
{
color = 1;
glyphname = J;
rightMetricsKey = H;
layers = (
{
layerId = "CEE0B0E0-3C1B-4981-BE10-41B2F4187B00";
shapes = (
{
closed = 1;
nodes = (
(910.4,1320.,l),
(518.4,1320.,l),
(366.4,496.,ls),
(340.8,363.2,o),
(296.,371.2,o),
(310.4,342.4,c),
(278.4,308.8,o),
(201.6,328.,o),
(110.4,419.2,c),
(-64.,104.,l),
(-78.4,129.6,o),
(16.,-24.,o),
(235.2,-24.,cs),
(486.4,-24.,o),
(684.8,83.2,o),
(731.2,342.4,cs)
);
}
);
width = 878;
},
{
layerId = "2FCE132C-6D1D-4C23-912A-6327D74CCB4B";
shapes = (
{
closed = 1;
nodes = (
(809.6,1320.,l),
(636.8,1320.,l),
(486.4,414.4,ls),
(464.,281.6,o),
(424.,140.8,o),
(264.,134.4,c),
(148.8,126.4,o),
(65.6,195.2,o),
(27.2,241.6,c),
(-56.,99.2,l),
(-30.4,64.,o),
(73.6,-24.,o),
(243.2,-24.,cs),
(500.8,-24.,o),
(612.8,129.6,o),
(656.,388.8,cs)
);
}
);
width = 766;
},
{
layerId = "7F612C2A-B309-47B1-B60E-6F95A45BF26D";
shapes = (
{
closed = 1;
nodes = (
(760.,1320.,l),
(696.,1320.,l),
(547.2,372.8,ls),
(526.4,240.,o),
(488.,25.6,o),
(241.6,30.4,cs),
(84.8,35.2,o),
(-3.2,128.,o),
(-14.4,153.6,c),
(-52.8,96.,l),
(-6.4,32.,o),
(102.4,-24.,o),
(246.4,-24.,cs),
(508.8,-24.,o),
(577.6,152.,o),
(619.2,411.2,cs)
);
}
);
width = 707;
}
);
rightKerningGroup = d;
unicode = 74;
},
{
color = 1;
glyphname = K;
leftMetricsKey = H;
layers = (
{
anchors = (
{
name = bottom;
position = "{619, 0}";
},
{
name = top;
position = "{851, 1320}";
}
);
layerId = "CEE0B0E0-3C1B-4981-BE10-41B2F4187B00";
shapes = (
{
closed = 1;
nodes = (
(1529.6,1320.,l),
(1049.6,1320.,l),
(596.8,827.2,l),
(694.4,1320.,l),
(300.8,1320.,l),
(56.,0,l),
(449.6,0,l),
(558.4,553.6,l),
(846.4,0,l),
(1336.,0,l),
(929.6,710.4,l)
);
}
);
width = 1380;
},
{
anchors = (
{
name = bottom;
position = "{434, 0}";
},
{
name = top;
position = "{666, 1320}";
}
);
layerId = "2FCE132C-6D1D-4C23-912A-6327D74CCB4B";
shapes = (
{
closed = 1;
nodes = (
(1128.,1320.,l),
(907.2,1320.,l),
(339.2,716.8,l),
(440.,1320.,l),
(267.2,1320.,l),
(48.,0,l),
(222.4,0,l),
(324.8,608.,l),
(726.4,0,l),
(945.6,0,l),
(499.2,673.6,l)
);
}
);
width = 1012;
},
{
anchors = (
{
name = bottom;
position = "{342, 0}";
},
{
name = top;
position = "{574, 1320}";
}
);
layerId = "7F612C2A-B309-47B1-B60E-6F95A45BF26D";
shapes = (
{
closed = 1;
nodes = (
(928.,1320.,l),
(835.2,1320.,l),
(211.2,662.4,l),
(313.6,1320.,l),
(249.6,1320.,l),
(43.2,0,l),
(108.8,0,l),
(208.,635.2,l),
(665.6,0,l),
(750.4,0,l),
(283.2,654.4,l)
);
}
);
width = 828;
}
);
leftKerningGroup = N;
rightKerningGroup = X;
unicode = 75;
},
{
glyphname = Kcommaaccent;
layers = (
{
layerId = "CEE0B0E0-3C1B-4981-BE10-41B2F4187B00";
shapes = (
{
closed = 1;
nodes = (
(515.2,-48.,o),
(462.4,-108.8,o),
(452.8,-166.4,c),
(444.8,-228.8,o),
(492.8,-286.4,o),
(566.4,-294.4,c),
(553.6,-321.6,o),
(534.4,-331.2,o),
(446.4,-377.6,c),
(510.4,-462.4,l),
(619.2,-436.8,o),
(768.,-331.2,o),
(782.4,-235.2,c),
(801.6,-121.6,o),
(742.4,-48.,o),
(630.4,-48.,cs)
);
},
{
closed = 1;
nodes = (
(1529.6,1320.,l),
(1049.6,1320.,l),
(596.8,827.2,l),
(694.4,1320.,l),
(300.8,1320.,l),
(56.,0,l),
(449.6,0,l),
(558.4,553.6,l),
(846.4,0,l),
(1336.,0,l),
(929.6,710.4,l)
);
}
);
width = 1389;
},
{
layerId = "2FCE132C-6D1D-4C23-912A-6327D74CCB4B";
shapes = (
{
closed = 1;
nodes = (
(366.4,-72.,o),
(315.2,-121.6,o),
(304.,-177.6,cs),
(292.8,-233.6,o),
(347.2,-284.8,o),
(414.4,-276.8,c),
(376.,-329.6,o),
(300.8,-371.2,o),
(280.,-382.4,c),
(332.8,-432.,l),
(411.2,-398.4,o),
(526.4,-310.4,o),
(544.,-204.8,cs),
(556.8,-129.6,o),
(510.4,-72.,o),
(435.2,-72.,cs)
);
},
{
closed = 1;
nodes = (
(1128.,1320.,l),
(907.2,1320.,l),
(339.2,716.8,l),
(440.,1320.,l),
(267.2,1320.,l),
(48.,0,l),
(222.4,0,l),
(324.8,608.,l),
(726.4,0,l),
(945.6,0,l),
(499.2,673.6,l)
);
}
);
width = 999;
},
{
layerId = "7F612C2A-B309-47B1-B60E-6F95A45BF26D";
shapes = (
{
closed = 1;
nodes = (
(291.2,-83.2,o),
(241.6,-128.,o),
(228.8,-182.4,cs),
(217.6,-236.8,o),
(273.6,-284.8,o),
(337.6,-267.2,c),
(288.,-334.4,o),
(184.,-392.,o),
(196.8,-385.6,c),
(243.2,-417.6,l),
(307.2,-379.2,o),
(404.8,-300.8,o),
(424.,-190.4,cs),
(435.2,-132.8,o),
(395.2,-83.2,o),
(337.6,-83.2,cs)
);
},
{
closed = 1;
nodes = (
(928.,1320.,l),
(835.2,1320.,l),
(211.2,662.4,l),
(313.6,1320.,l),
(249.6,1320.,l),
(43.2,0,l),
(108.8,0,l),
(208.,635.2,l),
(665.6,0,l),
(750.4,0,l),
(283.2,654.4,l)
);
}
);
width = 804;
}
);
leftKerningGroup = N;
rightKerningGroup = X;
unicode = 310;
},
{
color = 1;
glyphname = L;
leftMetricsKey = H;
layers = (
{
anchors = (
{
name = bottom;
position = "{401, 0}";
},
{
name = center;
position = "{518, 661}";
},
{
name = top;
position = "{633, 1320}";
},
{
name = topright;
position = "{1073, 1320}";
}
);
layerId = "CEE0B0E0-3C1B-4981-BE10-41B2F4187B00";
shapes = (
{
closed = 1;
nodes = (
(56.,0,l),
(865.6,0,l),
(926.4,340.8,l),
(510.4,340.8,l),
(694.4,1320.,l),
(300.8,1320.,l)
);
}
);
width = 945;
},
{
anchors = (
{
name = bottom;
position = "{330, 0}";
},
{
name = center;
position = "{447, 661}";
},
{
name = top;
position = "{562, 1320}";
},
{
name = topright;
position = "{931, 1320}";
}
);
layerId = "2FCE132C-6D1D-4C23-912A-6327D74CCB4B";
shapes = (
{
closed = 1;
nodes = (
(48.,0,l),
(729.6,0,l),
(756.8,158.4,l),
(249.6,158.4,l),
(440.,1320.,l),
(267.2,1320.,l)
);
}
);
width = 803;
},
{
anchors = (
{
name = bottom;
position = "{295, 0}";
},
{
name = center;
position = "{412, 661}";
},
{
name = top;
position = "{527, 1320}";
},
{
name = topright;
position = "{860, 1320}";
}
);
layerId = "7F612C2A-B309-47B1-B60E-6F95A45BF26D";
shapes = (
{
closed = 1;
nodes = (
(43.2,0,l),
(660.8,0,l),
(672.,67.2,l),
(118.4,67.2,l),
(313.6,1320.,l),
(249.6,1320.,l)
);
}
);
width = 732;
}
);
leftKerningGroup = N;
rightKerningGroup = L;
unicode = 76;
},
{
glyphname = Lacute;
layers = (
{
layerId = "CEE0B0E0-3C1B-4981-BE10-41B2F4187B00";
shapes = (
{
closed = 1;
nodes = (
(56.,0,l),
(865.6,0,l),
(926.4,340.8,l),
(510.4,340.8,l),
(694.4,1320.,l),
(300.8,1320.,l)
);
},
{
closed = 1;
nodes = (
(773.196,1645.,l),
(646.519,1870.6,l),
(245.937,1568.2,l),
(321.437,1416.2,l)
);
}
);
width = 958;
},
{
layerId = "2FCE132C-6D1D-4C23-912A-6327D74CCB4B";
shapes = (
{
closed = 1;
nodes = (
(48.,0,l),
(729.6,0,l),
(756.8,158.4,l),
(249.6,158.4,l),
(440.,1320.,l),
(267.2,1320.,l)
);
},
{
closed = 1;
nodes = (
(628.072,1683.4,l),
(544.416,1808.2,l),
(199.632,1557.,l),
(250.506,1472.2,l)
);
}
);
width = 831;
},
{
layerId = "7F612C2A-B309-47B1-B60E-6F95A45BF26D";
shapes = (
{
closed = 1;
nodes = (
(43.2,0,l),
(660.8,0,l),
(672.,67.2,l),
(118.4,67.2,l),
(313.6,1320.,l),
(249.6,1320.,l)
);
},
{
closed = 1;
nodes = (
(549.003,1702.6,l),
(502.787,1777.8,l),
(177.436,1552.2,l),
(206.689,1501.,l)
);
}
);
width = 767;
}
);
leftKerningGroup = N;
rightKerningGroup = L;
unicode = 313;
},
{
glyphname = Lcaron;
layers = (
{
layerId = "CEE0B0E0-3C1B-4981-BE10-41B2F4187B00";
shapes = (
{
closed = 1;
nodes = (
(56.,0,l),
(865.6,0,l),
(926.4,340.8,l),
(510.4,340.8,l),
(694.4,1320.,l),
(300.8,1320.,l)
);
},
{
closed = 1;
nodes = (
(830.32,1318.2,o),
(727.754,1231.8,o),
(704.972,1126.2,cs),
(687.624,1041.4,o),
(732.604,950.2,o),
(849.201,967.8,c),
(818.777,894.2,o),
(661.262,830.2,o),
(661.262,830.2,c),
(727.674,759.8,l),
(857.572,822.2,o),
(1040.007,932.6,o),
(1082.644,1132.6,cs),
(1104.589,1235.,o),
(1036.72,1318.2,o),
(935.92,1318.2,cs)
);
}
);
width = 930;
},
{
layerId = "2FCE132C-6D1D-4C23-912A-6327D74CCB4B";
shapes = (
{
closed = 1;
nodes = (
(48.,0,l),
(729.6,0,l),
(756.8,158.4,l),
(249.6,158.4,l),
(440.,1320.,l),
(267.2,1320.,l)
);
},
{
closed = 1;
nodes = (
(601.525,1318.2,o),
(538.94,1262.2,o),
(526.684,1191.8,cs),
(514.912,1129.4,o),
(570.341,1067.,o),
(649.611,1081.4,c),
(607.149,1014.2,o),
(496.661,959.8,o),
(496.661,959.8,c),
(552.959,911.8,l),
(638.771,955.,o),
(764.283,1046.2,o),
(783.607,1180.6,c),
(796.25,1257.4,o),
(745.525,1318.2,o),
(670.325,1318.2,cs)
);
}
);
width = 824;
},
{
layerId = "7F612C2A-B309-47B1-B60E-6F95A45BF26D";
shapes = (
{
closed = 1;
nodes = (
(43.2,0,l),
(660.8,0,l),
(672.,67.2,l),
(118.4,67.2,l),
(313.6,1320.,l),
(249.6,1320.,l)
);
},
{
closed = 1;
nodes = (
(487.639,1318.2,o),
(439.707,1276.6,o),
(427.425,1223.8,cs),
(415.079,1172.6,o),
(471.34,1126.2,o),
(533.227,1139.,c),
(484.594,1075.,o),
(395.447,1023.8,o),
(395.447,1023.8,c),
(443.323,987.,l),
(509.111,1022.2,o),
(609.903,1102.2,o),
(628.195,1204.6,cs),
(640.028,1268.6,o),
(601.239,1318.2,o),
(537.239,1318.2,cs)
);
}
);
width = 771;
}
);
leftKerningGroup = N;
rightKerningGroup = L;
unicode = 317;
},
{
glyphname = Lcommaaccent;
layers = (
{
layerId = "CEE0B0E0-3C1B-4981-BE10-41B2F4187B00";
shapes = (
{
closed = 1;
nodes = (
(294.4,-48.,o),
(240.,-108.8,o),
(232.,-166.4,cs),
(222.4,-228.8,o),
(270.4,-286.4,o),
(345.6,-294.4,c),
(331.2,-321.6,o),
(313.6,-331.2,o),
(225.6,-377.6,c),
(289.6,-462.4,l),
(396.8,-436.8,o),
(547.2,-331.2,o),
(561.6,-235.2,cs),
(579.2,-121.6,o),
(521.6,-48.,o),
(408.,-48.,cs)
);
},
{
closed = 1;
nodes = (
(56.,0,l),
(865.6,0,l),
(926.4,340.8,l),
(510.4,340.8,l),
(694.4,1320.,l),
(300.8,1320.,l)
);
}
);
width = 930;
},
{
layerId = "2FCE132C-6D1D-4C23-912A-6327D74CCB4B";
shapes = (
{
closed = 1;
nodes = (
(291.2,-72.,o),
(238.4,-121.6,o),
(228.8,-177.6,cs),
(217.6,-233.6,o),
(268.8,-284.8,o),
(337.6,-276.8,c),
(300.8,-329.6,o),
(224.,-371.2,o),
(203.2,-382.4,c),
(256.,-432.,l),
(334.4,-398.4,o),
(449.6,-310.4,o),
(467.2,-204.8,c),
(481.6,-129.6,o),
(435.2,-72.,o),
(358.4,-72.,cs)
);
},
{
closed = 1;
nodes = (
(48.,0,l),
(729.6,0,l),
(756.8,158.4,l),
(249.6,158.4,l),
(440.,1320.,l),
(267.2,1320.,l)
);
}
);
width = 824;
},
{
layerId = "7F612C2A-B309-47B1-B60E-6F95A45BF26D";
shapes = (
{
closed = 1;
nodes = (
(289.6,-83.2,o),
(238.4,-128.,o),
(227.2,-182.4,cs),
(214.4,-236.8,o),
(268.8,-284.8,o),
(332.8,-267.2,c),
(284.8,-334.4,o),
(179.2,-392.,o),
(192.,-385.6,c),
(240.,-417.6,l),
(304.,-379.2,o),
(401.6,-300.8,o),
(420.8,-190.4,cs),
(432.,-132.8,o),
(392.,-83.2,o),
(334.4,-83.2,cs)
);
},
{
closed = 1;
nodes = (
(43.2,0,l),
(660.8,0,l),
(672.,67.2,l),
(118.4,67.2,l),
(313.6,1320.,l),
(249.6,1320.,l)
);
}
);
width = 771;
}
);
leftKerningGroup = N;
rightKerningGroup = L;
unicode = 315;
},
{
glyphname = Lslash;
layers = (
{
layerId = "CEE0B0E0-3C1B-4981-BE10-41B2F4187B00";
shapes = (
{
closed = 1;
nodes = (
(835.2,0,l),
(894.4,340.8,l),
(478.4,340.8,l),
(555.2,740.8,l),
(768.,889.6,l),
(814.4,1188.8,l),
(598.4,1040.,l),
(652.8,1320.,l),
(259.2,1320.,l),
(152.,729.6,l),
(27.2,644.8,l),
(-19.2,345.6,l),
(105.6,432.,l),
(25.6,0,l)
);
}
);
width = 1005;
},
{
layerId = "2FCE132C-6D1D-4C23-912A-6327D74CCB4B";
shapes = (
{
closed = 1;
nodes = (
(732.8,0,l),
(761.6,158.4,l),
(254.4,158.4,l),
(355.2,716.8,l),
(513.6,827.2,l),
(540.8,998.4,l),
(382.4,888.,l),
(459.2,1320.,l),
(284.8,1320.,l),
(182.4,752.,l),
(28.8,644.8,l),
(1.6,473.6,l),
(155.2,580.8,l),
(51.2,0,l)
);
}
);
width = 903;
},
{
layerId = "7F612C2A-B309-47B1-B60E-6F95A45BF26D";
shapes = (
{
closed = 1;
nodes = (
(681.6,0,l),
(694.4,67.2,l),
(142.4,67.2,l),
(254.4,705.6,l),
(387.2,796.8,l),
(404.8,904.,l),
(273.6,812.8,l),
(363.2,1320.,l),
(297.6,1320.,l),
(198.4,763.2,l),
(28.8,644.8,l),
(11.2,537.6,l),
(180.8,656.,l),
(64.,0,l)
);
}
);
width = 852;
}
);
leftKerningGroup = N;
rightKerningGroup = L;
unicode = 321;
},
{
glyphname = M;
layers = (
{
layerId = "CEE0B0E0-3C1B-4981-BE10-41B2F4187B00";
shapes = (
{
closed = 1;
nodes = (
(1223,1320,l),
(886,547,l),
(841,416,l),
(842,547,l),
(779,1320,l),
(225,1320,l),
(-8,0,l),
(379,0,l),
(495,656,l),
(527,928,l),
(532,611,l),
(601,128,l),
(980,128,l),
(1220,611,l),
(1337,928,l),
(1273,656,l),
(1157,0,l),
(1544,0,l),
(1777,1320,l)
);
}
);
width = 1760;
},
{
layerId = "2FCE132C-6D1D-4C23-912A-6327D74CCB4B";
shapes = (
{
closed = 1;
nodes = (
(1240,1320,l),
(696,284,l),
(672,217,l),
(671,284,l),
(494,1320,l),
(266,1320,l),
(33,0,l),
(204,0,l),
(372,952,l),
(390,1099,l),
(396,937,l),
(562,75,l),
(731,75,l),
(1201,937,l),
(1266,1099,l),
(1231,952,l),
(1063,0,l),
(1234,0,l),
(1467,1320,l)
);
}
);
width = 1476;
},
{
layerId = "7F612C2A-B309-47B1-B60E-6F95A45BF26D";
shapes = (
{
closed = 1;
nodes = (
(1249,1320,l),
(601,152,l),
(587,117,l),
(585,152,l),
(351,1320,l),
(287,1320,l),
(54,0,l),
(117,0,l),
(311,1101,l),
(321,1184,l),
(328,1101,l),
(542,48,l),
(606,48,l),
(1192,1101,l),
(1230,1184,l),
(1210,1101,l),
(1016,0,l),
(1078,0,l),
(1311,1320,l)
);
}
);
width = 1333;
}
);
leftKerningGroup = N;
rightKerningGroup = N;
unicode = 77;
},
{
glyphname = N;
leftMetricsKey = H;
rightMetricsKey = H;
layers = (
{
layerId = "CEE0B0E0-3C1B-4981-BE10-41B2F4187B00";
shapes = (
{
closed = 1;
nodes = (
(843,0,l),
(1369,0,l),
(1601.752,1320,l),
(1214.752,1320,l),
(1044.42,354,l),
(1074.478,360,l),
(812.752,1320,l),
(289.752,1320,l),
(57,0,l),
(444,0,l),
(613.803,963,l),
(585.685,968,l)
);
}
);
width = 1569;
},
{
layerId = "2FCE132C-6D1D-4C23-912A-6327D74CCB4B";
shapes = (
{
closed = 1;
nodes = (
(878,0,l),
(1121,0,l),
(1353.681,1320,l),
(1183.681,1320,l),
(968.592,163,l),
(978.71,165,l),
(509.681,1320,l),
(267.681,1320,l),
(35,0,l),
(206,0,l),
(421.03,1156,l),
(410.147,1158,l)
);
}
);
width = 1299;
},
{
layerId = "7F612C2A-B309-47B1-B60E-6F95A45BF26D";
shapes = (
{
closed = 1;
nodes = (
(888,0,l),
(989,0,l),
(1222,1320,l),
(1160,1320,l),
(939,67,l),
(940,67,l),
(350,1320,l),
(249,1320,l),
(16,0,l),
(79,0,l),
(300,1253,l),
(298,1253,l)
);
}
);
width = 1150;
}
);
leftKerningGroup = N;
rightKerningGroup = N;
unicode = 78;
},
{
glyphname = Nacute;
layers = (
{
layerId = "CEE0B0E0-3C1B-4981-BE10-41B2F4187B00";
shapes = (
{
closed = 1;
nodes = (
(843,0,l),
(1369,0,l),
(1601.752,1320,l),
(1214.752,1320,l),
(1044.42,354,l),
(1074.478,360,l),
(812.752,1320,l),
(289.752,1320,l),
(57,0,l),
(444,0,l),
(613.803,963,l),
(585.685,968,l)
);
},
{
closed = 1;
nodes = (
(1182.196,1645.,l),
(1055.519,1870.6,l),
(654.937,1568.2,l),
(730.437,1416.2,l)
);
}
);
width = 1414;
},
{
layerId = "2FCE132C-6D1D-4C23-912A-6327D74CCB4B";
shapes = (
{
closed = 1;
nodes = (
(878,0,l),
(1121,0,l),
(1353.681,1320,l),
(1183.681,1320,l),
(968.592,163,l),
(978.71,165,l),
(509.681,1320,l),
(267.681,1320,l),
(35,0,l),
(206,0,l),
(421.03,1156,l),
(410.147,1158,l)
);
},
{
closed = 1;
nodes = (
(1022.072,1683.4,l),
(938.416,1808.2,l),
(593.632,1557.,l),
(644.506,1472.2,l)
);
}
);
width = 1195;
},
{
layerId = "7F612C2A-B309-47B1-B60E-6F95A45BF26D";
shapes = (
{
closed = 1;
nodes = (
(888,0,l),
(989,0,l),
(1222,1320,l),
(1160,1320,l),
(939,67,l),
(940,67,l),
(350,1320,l),
(249,1320,l),
(16,0,l),
(79,0,l),
(300,1253,l),
(298,1253,l)
);
},
{
closed = 1;
nodes = (
(936.003,1702.6,l),
(889.787,1777.8,l),
(564.436,1552.2,l),
(593.689,1501.,l)
);
}
);
width = 1086;
}
);
leftKerningGroup = N;
rightKerningGroup = N;
unicode = 323;
},
{
glyphname = Ncaron;
layers = (
{
layerId = "CEE0B0E0-3C1B-4981-BE10-41B2F4187B00";
shapes = (
{
closed = 1;
nodes = (
(843,0,l),
(1369,0,l),
(1601.752,1320,l),
(1214.752,1320,l),
(1044.42,354,l),
(1074.478,360,l),
(812.752,1320,l),
(289.752,1320,l),
(57,0,l),
(444,0,l),
(613.803,963,l),
(585.685,968,l)
);
},
{
closed = 1;
nodes = (
(939.8,1651.,l),
(704.6,1843.,l),
(560.6,1668.6,l),
(893.4,1375.8,l),
(1341.4,1659.,l),
(1218.2,1843.,l)
);
}
);
width = 1414;
},
{
layerId = "2FCE132C-6D1D-4C23-912A-6327D74CCB4B";
shapes = (
{
closed = 1;
nodes = (
(878,0,l),
(1121,0,l),
(1353.681,1320,l),
(1183.681,1320,l),
(968.592,163,l),
(978.71,165,l),
(509.681,1320,l),
(267.681,1320,l),
(35,0,l),
(206,0,l),
(421.03,1156,l),
(410.147,1158,l)
);
},
{
closed = 1;
nodes = (
(765.2,1636.8,l),
(552.4,1798.4,l),
(477.2,1712.,l),
(742.8,1478.4,l),
(1078.8,1705.6,l),
(1019.6,1798.4,l)
);
}
);
width = 1195;
},
{
layerId = "7F612C2A-B309-47B1-B60E-6F95A45BF26D";
shapes = (
{
closed = 1;
nodes = (
(888,0,l),
(989,0,l),
(1222,1320,l),
(1160,1320,l),
(939,67,l),
(940,67,l),
(350,1320,l),
(249,1320,l),
(16,0,l),
(79,0,l),
(300,1253,l),
(298,1253,l)
);
},
{
closed = 1;
nodes = (
(677.4,1630.,l),
(475.8,1775.6,l),
(435.8,1732.4,l),
(667.8,1529.2,l),
(947.8,1727.6,l),
(920.6,1775.6,l)
);
}
);
width = 1086;
}
);
leftKerningGroup = N;
rightKerningGroup = N;
unicode = 327;
},
{
glyphname = Ncommaaccent;
layers = (
{
layerId = "CEE0B0E0-3C1B-4981-BE10-41B2F4187B00";
shapes = (
{
closed = 1;
nodes = (
(548.8,-48.,o),
(496.,-108.8,o),
(486.4,-166.4,c),
(478.4,-228.8,o),
(524.8,-286.4,o),
(600.,-294.4,c),
(585.6,-321.6,o),
(566.4,-331.2,o),
(478.4,-377.6,c),
(544.,-462.4,l),
(652.8,-436.8,o),
(801.6,-331.2,o),
(816.,-235.2,cs),
(833.6,-121.6,o),
(776.,-48.,o),
(662.4,-48.,cs)
);
},
{
closed = 1;
nodes = (
(843,0,l),
(1369,0,l),
(1601.752,1320,l),
(1214.752,1320,l),
(1044.42,354,l),
(1074.478,360,l),
(812.752,1320,l),
(289.752,1320,l),
(57,0,l),
(444,0,l),
(613.803,963,l),
(585.685,968,l)
);
}
);
width = 1502;
},
{
layerId = "2FCE132C-6D1D-4C23-912A-6327D74CCB4B";
shapes = (
{
closed = 1;
nodes = (
(465.6,-72.,o),
(414.4,-121.6,o),
(403.2,-177.6,cs),
(392.,-233.6,o),
(444.8,-284.8,o),
(512.,-276.8,c),
(475.2,-329.6,o),
(398.4,-371.2,o),
(377.6,-382.4,c),
(430.4,-432.,l),
(510.4,-398.4,o),
(624.,-310.4,o),
(641.6,-204.8,c),
(656.,-129.6,o),
(609.6,-72.,o),
(532.8,-72.,cs)
);
},
{
closed = 1;
nodes = (
(878,0,l),
(1121,0,l),
(1353.681,1320,l),
(1183.681,1320,l),
(968.592,163,l),
(978.71,165,l),
(509.681,1320,l),
(267.681,1320,l),
(35,0,l),
(206,0,l),
(421.03,1156,l),
(410.147,1158,l)
);
}
);
width = 1216;
},
{
layerId = "7F612C2A-B309-47B1-B60E-6F95A45BF26D";
shapes = (
{
closed = 1;
nodes = (
(424.,-83.2,o),
(372.8,-128.,o),
(361.6,-182.4,cs),
(348.8,-236.8,o),
(404.8,-284.8,o),
(468.8,-267.2,c),
(419.2,-334.4,o),
(315.2,-392.,o),
(328.,-385.6,c),
(374.4,-417.6,l),
(438.4,-379.2,o),
(536.,-300.8,o),
(555.2,-190.4,cs),
(566.4,-132.8,o),
(526.4,-83.2,o),
(468.8,-83.2,cs)
);
},
{
closed = 1;
nodes = (
(888,0,l),
(989,0,l),
(1222,1320,l),
(1160,1320,l),
(939,67,l),
(940,67,l),
(350,1320,l),
(249,1320,l),
(16,0,l),
(79,0,l),
(300,1253,l),
(298,1253,l)
);
}
);
width = 1073;
}
);
leftKerningGroup = N;
rightKerningGroup = N;
unicode = 325;
},
{
glyphname = Eng;
layers = (
{
layerId = "CEE0B0E0-3C1B-4981-BE10-41B2F4187B00";
shapes = (
{
closed = 1;
nodes = (
(1368.,0,l),
(974.4,0,l),
(958.4,-86.4,l),
(955.2,-112.,o),
(939.2,-108.8,o),
(918.4,-108.8,cs),
(886.4,-108.8,o),
(843.2,-92.8,o),
(830.4,-86.4,c),
(665.6,-387.2,l),
(718.4,-411.2,o),
(756.8,-440.,o),
(902.4,-440.,cs),
(1192.,-440.,o),
(1321.6,-249.6,o),
(1347.2,-112.,cs)
);
},
{
closed = 1;
nodes = (
(843,0,l),
(1369,0,l),
(1601.752,1320,l),
(1214.752,1320,l),
(1044.42,354,l),
(1074.478,360,l),
(812.752,1320,l),
(289.752,1320,l),
(57,0,l),
(444,0,l),
(613.803,963,l),
(585.685,968,l)
);
}
);
width = 1414;
},
{
layerId = "2FCE132C-6D1D-4C23-912A-6327D74CCB4B";
shapes = (
{
closed = 1;
nodes = (
(1115.2,0,l),
(940.8,0,l),
(928.,-78.4,ls),
(907.2,-200.,o),
(883.2,-286.4,o),
(792.,-286.4,cs),
(756.8,-286.4,o),
(720.,-275.2,o),
(702.4,-260.8,c),
(617.6,-401.6,l),
(632.,-409.6,o),
(688.,-440.,o),
(782.4,-440.,cs),
(985.6,-440.,o),
(1067.2,-276.8,o),
(1094.4,-120.,cs)
);
},
{
closed = 1;
nodes = (
(878,0,l),
(1121,0,l),
(1353.681,1320,l),
(1183.681,1320,l),
(968.592,163,l),
(978.71,165,l),
(509.681,1320,l),
(267.681,1320,l),
(35,0,l),
(206,0,l),
(421.03,1156,l),
(410.147,1158,l)
);
}
);
width = 1195;
},
{
layerId = "7F612C2A-B309-47B1-B60E-6F95A45BF26D";
shapes = (
{
closed = 1;
nodes = (
(988.8,0,l),
(924.8,0,l),
(912.,-73.6,ls),
(883.2,-243.2,o),
(856.,-376.,o),
(729.6,-376.,cs),
(692.8,-376.,o),
(657.6,-366.4,o),
(638.4,-347.2,c),
(593.6,-409.6,l),
(588.8,-409.6,o),
(652.8,-440.,o),
(723.2,-440.,cs),
(881.6,-440.,o),
(940.8,-289.6,o),
(968.,-124.8,cs)
);
},
{
closed = 1;
nodes = (
(888,0,l),
(989,0,l),
(1222,1320,l),
(1160,1320,l),
(939,67,l),
(940,67,l),
(350,1320,l),
(249,1320,l),
(16,0,l),
(79,0,l),
(300,1253,l),
(298,1253,l)
);
}
);
width = 1086;
}
);
leftKerningGroup = N;
rightKerningGroup = N;
unicode = 330;
},
{
glyphname = Ntilde;
layers = (
{
layerId = "CEE0B0E0-3C1B-4981-BE10-41B2F4187B00";
shapes = (
{
closed = 1;
nodes = (
(843,0,l),
(1369,0,l),
(1601.752,1320,l),
(1214.752,1320,l),
(1044.42,354,l),
(1074.478,360,l),
(812.752,1320,l),
(289.752,1320,l),
(57,0,l),
(444,0,l),
(613.803,963,l),
(585.685,968,l)
);
},
{
closed = 1;
nodes = (
(825.579,1534.2,o),
(889.556,1460.6,o),
(1015.956,1460.6,cs),
(1159.956,1460.6,o),
(1275.978,1641.4,o),
(1321.517,1779.,c),
(1134.317,1779.,l),
(1120.395,1750.2,o),
(1090.33,1708.6,o),
(1061.53,1708.6,cs),
(970.33,1708.6,o),
(897.935,1780.6,o),
(771.535,1780.6,cs),
(627.535,1780.6,o),
(511.513,1599.8,o),
(464.374,1462.2,c),
(656.374,1462.2,l),
(669.114,1492.6,o),
(697.161,1532.6,o),
(727.561,1532.6,cs)
);
}
);
width = 1414;
},
{
layerId = "2FCE132C-6D1D-4C23-912A-6327D74CCB4B";
shapes = (
{
closed = 1;
nodes = (
(878,0,l),
(1121,0,l),
(1353.681,1320,l),
(1183.681,1320,l),
(968.592,163,l),
(978.71,165,l),
(509.681,1320,l),
(267.681,1320,l),
(35,0,l),
(206,0,l),
(421.03,1156,l),
(410.147,1158,l)
);
},
{
closed = 1;
nodes = (
(765.16,1590.2,o),
(818.214,1515.,o),
(944.614,1515.,cs),
(1050.214,1515.,o),
(1134.461,1638.2,o),
(1167.174,1729.4,c),
(1042.374,1729.4,l),
(1025.846,1694.2,o),
(988.035,1651.,o),
(941.635,1651.,cs),
(852.035,1651.,o),
(811.78,1726.2,o),
(685.38,1726.2,cs),
(581.38,1726.2,o),
(497.133,1603.,o),
(464.421,1511.8,c),
(584.421,1511.8,l),
(600.948,1547.,o),
(641.96,1590.2,o),
(688.36,1590.2,cs)
);
}
);
width = 1195;
},
{
layerId = "7F612C2A-B309-47B1-B60E-6F95A45BF26D";
shapes = (
{
closed = 1;
nodes = (
(888,0,l),
(989,0,l),
(1222,1320,l),
(1160,1320,l),
(939,67,l),
(940,67,l),
(350,1320,l),
(249,1320,l),
(16,0,l),
(79,0,l),
(300,1253,l),
(298,1253,l)
);
},
{
closed = 1;
nodes = (
(727.076,1619.,o),
(774.957,1542.2,o),
(899.757,1542.2,cs),
(986.157,1542.2,o),
(1063.97,1636.6,o),
(1098.075,1703.8,c),
(1003.675,1703.8,l),
(987.615,1665.4,o),
(946.148,1622.2,o),
(890.148,1622.2,cs),
(802.148,1622.2,o),
(776.667,1699.,o),
(650.267,1699.,cs),
(565.467,1699.,o),
(489.254,1604.6,o),
(456.749,1537.4,c),
(541.549,1537.4,l),
(559.273,1574.2,o),
(605.476,1619.,o),
(659.876,1619.,cs)
);
}
);
width = 1086;
}
);
leftKerningGroup = N;
rightKerningGroup = N;
unicode = 209;
},
{
color = 1;
glyphname = O;
layers = (
{
anchors = (
{
name = bottom;
position = "{659, 0}";
},
{
name = center;
position = "{776, 661}";
},
{
name = ogonek;
position = "{919, 16}";
},
{
name = top;
position = "{891, 1320}";
},
{
name = topleft;
position = "{192, 1320}";
},
{
name = topright;
position = "{1070, 1320}";
}
);
layerId = "CEE0B0E0-3C1B-4981-BE10-41B2F4187B00";
shapes = (
{
closed = 1;
nodes = (
(528.,828.8,o),
(616.,972.8,o),
(809.6,972.8,cs),
(987.2,972.8,o),
(1091.2,846.4,o),
(1054.4,662.4,cs),
(1017.6,478.4,o),
(921.6,350.4,o),
(726.4,350.4,cs),
(539.2,350.4,o),
(475.2,529.6,o),
(500.8,668.8,cs)
);
},
{
closed = 1;
nodes = (
(19.2,278.4,o),
(272.,-24.,o),
(684.8,-24.,cs),
(1044.8,-24.,o),
(1385.6,212.8,o),
(1460.8,638.4,cs),
(1529.6,1046.4,o),
(1273.6,1344.,o),
(859.2,1344.,cs),
(465.6,1344.,o),
(163.2,1080.,o),
(92.8,692.8,cs)
);
}
);
width = 1462;
},
{
anchors = (
{
name = bottom;
position = "{603, 0}";
},
{
name = center;
position = "{719, 661}";
},
{
name = ogonek;
position = "{802, 16}";
},
{
name = top;
position = "{835, 1320}";
},
{
name = topleft;
position = "{192, 1320}";
},
{
name = topright;
position = "{1009, 1320}";
}
);
layerId = "2FCE132C-6D1D-4C23-912A-6327D74CCB4B";
shapes = (
{
closed = 1;
nodes = (
(315.2,934.4,o),
(513.6,1180.8,o),
(801.6,1180.8,cs),
(1073.6,1180.8,o),
(1217.6,953.6,o),
(1168.,667.2,cs),
(1121.6,384.,o),
(926.4,140.8,o),
(632.,140.8,cs),
(353.6,140.8,o),
(225.6,374.4,o),
(268.8,656.,cs)
);
},
{
closed = 1;
nodes = (
(22.4,280.,o),
(222.4,-24.,o),
(619.2,-24.,cs),
(992.,-24.,o),
(1284.8,259.2,o),
(1350.4,649.6,cs),
(1416.,1030.4,o),
(1204.8,1344.,o),
(817.6,1344.,cs),
(449.6,1344.,o),
(150.4,1056.,o),
(88.,675.2,cs)
);
}
);
width = 1348;
},
{
anchors = (
{
name = bottom;
position = "{575, 0}";
},
{
name = center;
position = "{691, 661}";
},
{
name = ogonek;
position = "{743, 16}";
},
{
name = top;
position = "{807, 1320}";
},
{
name = topleft;
position = "{192, 1320}";
},
{
name = topright;
position = "{979, 1320}";
}
);
layerId = "7F612C2A-B309-47B1-B60E-6F95A45BF26D";
shapes = (
{
closed = 1;
nodes = (
(208.,987.2,o),
(462.4,1284.8,o),
(796.8,1284.8,cs),
(1116.8,1284.8,o),
(1280.,1006.4,o),
(1225.6,670.4,cs),
(1172.8,336.,o),
(929.6,35.2,o),
(585.6,35.2,cs),
(260.8,35.2,o),
(100.8,297.6,o),
(153.6,649.6,cs)
);
},
{
closed = 1;
nodes = (
(24.,280.,o),
(198.4,-24.,o),
(587.2,-24.,cs),
(964.8,-24.,o),
(1235.2,281.6,o),
(1294.4,654.4,cs),
(1358.4,1022.4,o),
(1169.6,1344.,o),
(796.8,1344.,cs),
(441.6,1344.,o),
(144.,1044.8,o),
(84.8,665.6,cs)
);
}
);
width = 1291;
}
);
leftKerningGroup = O;
rightKerningGroup = O;
unicode = 79;
},
{
glyphname = Oacute;
layers = (
{
layerId = "CEE0B0E0-3C1B-4981-BE10-41B2F4187B00";
shapes = (
{
closed = 1;
nodes = (
(528.,828.8,o),
(616.,972.8,o),
(809.6,972.8,cs),
(987.2,972.8,o),
(1091.2,846.4,o),
(1054.4,662.4,cs),
(1017.6,478.4,o),
(921.6,350.4,o),
(726.4,350.4,cs),
(539.2,350.4,o),
(475.2,529.6,o),
(500.8,668.8,cs)
);
},
{
closed = 1;
nodes = (
(19.2,278.4,o),
(272.,-24.,o),
(684.8,-24.,cs),
(1044.8,-24.,o),
(1385.6,212.8,o),
(1460.8,638.4,cs),
(1529.6,1046.4,o),
(1273.6,1344.,o),
(859.2,1344.,cs),
(465.6,1344.,o),
(163.2,1080.,o),
(92.8,692.8,cs)
);
},
{
closed = 1;
nodes = (
(1270.196,1645.,l),
(1143.519,1870.6,l),
(742.937,1568.2,l),
(818.437,1416.2,l)
);
}
);
width = 1449;
},
{
layerId = "2FCE132C-6D1D-4C23-912A-6327D74CCB4B";
shapes = (
{
closed = 1;
nodes = (
(315.2,934.4,o),
(513.6,1180.8,o),
(801.6,1180.8,cs),
(1073.6,1180.8,o),
(1217.6,953.6,o),
(1168.,667.2,cs),
(1121.6,384.,o),
(926.4,140.8,o),
(632.,140.8,cs),
(353.6,140.8,o),
(225.6,374.4,o),
(268.8,656.,cs)
);
},
{
closed = 1;
nodes = (
(22.4,280.,o),
(222.4,-24.,o),
(619.2,-24.,cs),
(992.,-24.,o),
(1284.8,259.2,o),
(1350.4,649.6,cs),
(1416.,1030.4,o),
(1204.8,1344.,o),
(817.6,1344.,cs),
(449.6,1344.,o),
(150.4,1056.,o),
(88.,675.2,cs)
);
},
{
closed = 1;
nodes = (
(1077.072,1683.4,l),
(993.416,1808.2,l),
(648.632,1557.,l),
(699.506,1472.2,l)
);
}
);
width = 1340;
},
{
layerId = "7F612C2A-B309-47B1-B60E-6F95A45BF26D";
shapes = (
{
closed = 1;
nodes = (
(208.,987.2,o),
(462.4,1284.8,o),
(796.8,1284.8,cs),
(1116.8,1284.8,o),
(1280.,1006.4,o),
(1225.6,670.4,cs),
(1172.8,336.,o),
(929.6,35.2,o),
(585.6,35.2,cs),
(260.8,35.2,o),
(100.8,297.6,o),
(153.6,649.6,cs)
);
},
{
closed = 1;
nodes = (
(24.,280.,o),
(198.4,-24.,o),
(587.2,-24.,cs),
(964.8,-24.,o),
(1235.2,281.6,o),
(1294.4,654.4,cs),
(1358.4,1022.4,o),
(1169.6,1344.,o),
(796.8,1344.,cs),
(441.6,1344.,o),
(144.,1044.8,o),
(84.8,665.6,cs)
);
},
{
closed = 1;
nodes = (
(975.003,1702.6,l),
(928.787,1777.8,l),
(603.436,1552.2,l),
(632.689,1501.,l)
);
}
);
width = 1285;
}
);
leftKerningGroup = O;
rightKerningGroup = O;
unicode = 211;
},
{
glyphname = Ocircumflex;
layers = (
{
layerId = "CEE0B0E0-3C1B-4981-BE10-41B2F4187B00";
shapes = (
{
closed = 1;
nodes = (
(528.,828.8,o),
(616.,972.8,o),
(809.6,972.8,cs),
(987.2,972.8,o),
(1091.2,846.4,o),
(1054.4,662.4,cs),
(1017.6,478.4,o),
(921.6,350.4,o),
(726.4,350.4,cs),
(539.2,350.4,o),
(475.2,529.6,o),
(500.8,668.8,cs)
);
},
{
closed = 1;
nodes = (
(19.2,278.4,o),
(272.,-24.,o),
(684.8,-24.,cs),
(1044.8,-24.,o),
(1385.6,212.8,o),
(1460.8,638.4,cs),
(1529.6,1046.4,o),
(1273.6,1344.,o),
(859.2,1344.,cs),
(465.6,1344.,o),
(163.2,1080.,o),
(92.8,692.8,cs)
);
},
{
closed = 1;
nodes = (
(910.,1582.6,l),
(1146.8,1390.6,l),
(1289.2,1565.,l),
(951.6,1857.8,l),
(510.,1574.6,l),
(633.2,1390.6,l)
);
}
);
width = 1449;
},
{
layerId = "2FCE132C-6D1D-4C23-912A-6327D74CCB4B";
shapes = (
{
closed = 1;
nodes = (
(315.2,934.4,o),
(513.6,1180.8,o),
(801.6,1180.8,cs),
(1073.6,1180.8,o),
(1217.6,953.6,o),
(1168.,667.2,cs),
(1121.6,384.,o),
(926.4,140.8,o),
(632.,140.8,cs),
(353.6,140.8,o),
(225.6,374.4,o),
(268.8,656.,cs)
);
},
{
closed = 1;
nodes = (
(22.4,280.,o),
(222.4,-24.,o),
(619.2,-24.,cs),
(992.,-24.,o),
(1284.8,259.2,o),
(1350.4,649.6,cs),
(1416.,1030.4,o),
(1204.8,1344.,o),
(817.6,1344.,cs),
(449.6,1344.,o),
(150.4,1056.,o),
(88.,675.2,cs)
);
},
{
closed = 1;
nodes = (
(853.6,1658.4,l),
(1063.2,1498.4,l),
(1136.8,1584.8,l),
(877.6,1816.8,l),
(536.8,1589.6,l),
(596.,1498.4,l)
);
}
);
width = 1340;
},
{
layerId = "7F612C2A-B309-47B1-B60E-6F95A45BF26D";
shapes = (
{
closed = 1;
nodes = (
(208.,987.2,o),
(462.4,1284.8,o),
(796.8,1284.8,cs),
(1116.8,1284.8,o),
(1280.,1006.4,o),
(1225.6,670.4,cs),
(1172.8,336.,o),
(929.6,35.2,o),
(585.6,35.2,cs),
(260.8,35.2,o),
(100.8,297.6,o),
(153.6,649.6,cs)
);
},
{
closed = 1;
nodes = (
(24.,280.,o),
(198.4,-24.,o),
(587.2,-24.,cs),
(964.8,-24.,o),
(1235.2,281.6,o),
(1294.4,654.4,cs),
(1358.4,1022.4,o),
(1169.6,1344.,o),
(796.8,1344.,cs),
(441.6,1344.,o),
(144.,1044.8,o),
(84.8,665.6,cs)
);
},
{
closed = 1;
nodes = (
(825.4,1696.6,l),
(1022.2,1551.,l),
(1060.6,1594.2,l),
(841.4,1795.8,l),
(550.2,1597.4,l),
(577.4,1551.,l)
);
}
);
width = 1285;
}
);
leftKerningGroup = O;
rightKerningGroup = O;
unicode = 212;
},
{
glyphname = Odieresis;
leftMetricsKey = O;
rightMetricsKey = O;
layers = (
{
layerId = "CEE0B0E0-3C1B-4981-BE10-41B2F4187B00";
shapes = (
{
closed = 1;
nodes = (
(528.,828.8,o),
(616.,972.8,o),
(809.6,972.8,cs),
(987.2,972.8,o),
(1091.2,846.4,o),
(1054.4,662.4,cs),
(1017.6,478.4,o),
(921.6,350.4,o),
(726.4,350.4,cs),
(539.2,350.4,o),
(475.2,529.6,o),
(500.8,668.8,cs)
);
},
{
closed = 1;
nodes = (
(19.2,278.4,o),
(272.,-24.,o),
(684.8,-24.,cs),
(1044.8,-24.,o),
(1385.6,212.8,o),
(1460.8,638.4,cs),
(1529.6,1046.4,o),
(1273.6,1344.,o),
(859.2,1344.,cs),
(465.6,1344.,o),
(163.2,1080.,o),
(92.8,692.8,cs)
);
},
{
closed = 1;
nodes = (
(467.367,1494.4,o),
(525.29,1416.,o),
(622.89,1416.,cs),
(720.49,1416.,o),
(819.367,1494.4,o),
(844.859,1592.,cs),
(870.351,1689.6,o),
(812.428,1768.,o),
(714.828,1768.,cs),
(617.228,1768.,o),
(518.351,1689.6,o),
(492.859,1592.,cs)
);
},
{
closed = 1;
nodes = (
(843.367,1494.4,o),
(901.29,1416.,o),
(998.89,1416.,cs),
(1096.49,1416.,o),
(1195.367,1494.4,o),
(1220.859,1592.,cs),
(1246.351,1689.6,o),
(1188.428,1768.,o),
(1090.828,1768.,cs),
(993.228,1768.,o),
(894.351,1689.6,o),
(868.859,1592.,cs)
);
}
);
width = 1462;
},
{
layerId = "2FCE132C-6D1D-4C23-912A-6327D74CCB4B";
shapes = (
{
closed = 1;
nodes = (
(315.2,934.4,o),
(513.6,1180.8,o),
(801.6,1180.8,cs),
(1073.6,1180.8,o),
(1217.6,953.6,o),
(1168.,667.2,cs),
(1121.6,384.,o),
(926.4,140.8,o),
(632.,140.8,cs),
(353.6,140.8,o),
(225.6,374.4,o),
(268.8,656.,cs)
);
},
{
closed = 1;
nodes = (
(22.4,280.,o),
(222.4,-24.,o),
(619.2,-24.,cs),
(992.,-24.,o),
(1284.8,259.2,o),
(1350.4,649.6,cs),
(1416.,1030.4,o),
(1204.8,1344.,o),
(817.6,1344.,cs),
(449.6,1344.,o),
(150.4,1056.,o),
(88.,675.2,cs)
);
},
{
closed = 1;
nodes = (
(557.966,1597.,o),
(603.065,1549.,o),
(662.265,1549.,cs),
(721.465,1549.,o),
(772.366,1597.,o),
(776.041,1657.8,cs),
(779.717,1718.6,o),
(734.618,1766.6,o),
(675.418,1766.6,cs),
(616.218,1766.6,o),
(565.317,1718.6,o),
(561.641,1657.8,cs)
);
},
{
closed = 1;
nodes = (
(937.166,1597.,o),
(982.265,1549.,o),
(1041.465,1549.,cs),
(1100.665,1549.,o),
(1151.566,1597.,o),
(1155.241,1657.8,cs),
(1158.917,1718.6,o),
(1113.818,1766.6,o),
(1054.618,1766.6,cs),
(995.418,1766.6,o),
(944.517,1718.6,o),
(940.841,1657.8,cs)
);
}
);
width = 1348;
},
{
layerId = "7F612C2A-B309-47B1-B60E-6F95A45BF26D";
shapes = (
{
closed = 1;
nodes = (
(208.,987.2,o),
(462.4,1284.8,o),
(796.8,1284.8,cs),
(1116.8,1284.8,o),
(1280.,1006.4,o),
(1225.6,670.4,cs),
(1172.8,336.,o),
(929.6,35.2,o),
(585.6,35.2,cs),
(260.8,35.2,o),
(100.8,297.6,o),
(153.6,649.6,cs)
);
},
{
closed = 1;
nodes = (
(24.,280.,o),
(198.4,-24.,o),
(587.2,-24.,cs),
(964.8,-24.,o),
(1235.2,281.6,o),
(1294.4,654.4,cs),
(1358.4,1022.4,o),
(1169.6,1344.,o),
(796.8,1344.,cs),
(441.6,1344.,o),
(144.,1044.8,o),
(84.8,665.6,cs)
);
},
{
closed = 1;
nodes = (
(967.899,1649.4,o),
(1001.246,1615.8,o),
(1042.846,1615.8,cs),
(1082.846,1615.8,o),
(1113.499,1649.4,o),
(1111.83,1691.,cs),
(1110.226,1731.,o),
(1076.878,1764.6,o),
(1036.878,1764.6,cs),
(995.278,1764.6,o),
(964.626,1731.,o),
(966.23,1691.,cs)
);
},
{
closed = 1;
nodes = (
(588.699,1649.4,o),
(622.046,1615.8,o),
(663.646,1615.8,cs),
(703.646,1615.8,o),
(734.299,1649.4,o),
(732.63,1691.,cs),
(731.026,1731.,o),
(697.678,1764.6,o),
(657.678,1764.6,cs),
(616.078,1764.6,o),
(585.426,1731.,o),
(587.03,1691.,cs)
);
}
);
width = 1291;
}
);
leftKerningGroup = O;
rightKerningGroup = O;
unicode = 214;
},
{
glyphname = Ograve;
layers = (
{
layerId = "CEE0B0E0-3C1B-4981-BE10-41B2F4187B00";
shapes = (
{
closed = 1;
nodes = (
(528.,828.8,o),
(616.,972.8,o),
(809.6,972.8,cs),
(987.2,972.8,o),
(1091.2,846.4,o),
(1054.4,662.4,cs),
(1017.6,478.4,o),
(921.6,350.4,o),
(726.4,350.4,cs),
(539.2,350.4,o),
(475.2,529.6,o),
(500.8,668.8,cs)
);
},
{
closed = 1;
nodes = (
(19.2,278.4,o),
(272.,-24.,o),
(684.8,-24.,cs),
(1044.8,-24.,o),
(1385.6,212.8,o),
(1460.8,638.4,cs),
(1529.6,1046.4,o),
(1273.6,1344.,o),
(859.2,1344.,cs),
(465.6,1344.,o),
(163.2,1080.,o),
(92.8,692.8,cs)
);
},
{
closed = 1;
nodes = (
(1129.737,1568.2,l),
(850.319,1870.6,l),
(618.596,1645.,l),
(984.437,1416.2,l)
);
}
);
width = 1449;
},
{
layerId = "2FCE132C-6D1D-4C23-912A-6327D74CCB4B";
shapes = (
{
closed = 1;
nodes = (
(315.2,934.4,o),
(513.6,1180.8,o),
(801.6,1180.8,cs),
(1073.6,1180.8,o),
(1217.6,953.6,o),
(1168.,667.2,cs),
(1121.6,384.,o),
(926.4,140.8,o),
(632.,140.8,cs),
(353.6,140.8,o),
(225.6,374.4,o),
(268.8,656.,cs)
);
},
{
closed = 1;
nodes = (
(22.4,280.,o),
(222.4,-24.,o),
(619.2,-24.,cs),
(992.,-24.,o),
(1284.8,259.2,o),
(1350.4,649.6,cs),
(1416.,1030.4,o),
(1204.8,1344.,o),
(817.6,1344.,cs),
(449.6,1344.,o),
(150.4,1056.,o),
(88.,675.2,cs)
);
},
{
closed = 1;
nodes = (
(1007.632,1557.,l),
(742.816,1808.2,l),
(624.872,1683.4,l),
(933.706,1472.2,l)
);
}
);
width = 1340;
},
{
layerId = "7F612C2A-B309-47B1-B60E-6F95A45BF26D";
shapes = (
{
closed = 1;
nodes = (
(208.,987.2,o),
(462.4,1284.8,o),
(796.8,1284.8,cs),
(1116.8,1284.8,o),
(1280.,1006.4,o),
(1225.6,670.4,cs),
(1172.8,336.,o),
(929.6,35.2,o),
(585.6,35.2,cs),
(260.8,35.2,o),
(100.8,297.6,o),
(153.6,649.6,cs)
);
},
{
closed = 1;
nodes = (
(24.,280.,o),
(198.4,-24.,o),
(587.2,-24.,cs),
(964.8,-24.,o),
(1235.2,281.6,o),
(1294.4,654.4,cs),
(1358.4,1022.4,o),
(1169.6,1344.,o),
(796.8,1344.,cs),
(441.6,1344.,o),
(144.,1044.8,o),
(84.8,665.6,cs)
);
},
{
closed = 1;
nodes = (
(948.836,1552.2,l),
(698.187,1777.8,l),
(622.803,1702.6,l),
(899.689,1501.,l)
);
}
);
width = 1285;
}
);
leftKerningGroup = O;
rightKerningGroup = O;
unicode = 210;
},
{
glyphname = Ohungarumlaut;
layers = (
{
layerId = "CEE0B0E0-3C1B-4981-BE10-41B2F4187B00";
shapes = (
{
closed = 1;
nodes = (
(528.,828.8,o),
(616.,972.8,o),
(809.6,972.8,cs),
(987.2,972.8,o),
(1091.2,846.4,o),
(1054.4,662.4,cs),
(1017.6,478.4,o),
(921.6,350.4,o),
(726.4,350.4,cs),
(539.2,350.4,o),
(475.2,529.6,o),
(500.8,668.8,cs)
);
},
{
closed = 1;
nodes = (
(19.2,278.4,o),
(272.,-24.,o),
(684.8,-24.,cs),
(1044.8,-24.,o),
(1385.6,212.8,o),
(1460.8,638.4,cs),
(1529.6,1046.4,o),
(1273.6,1344.,o),
(859.2,1344.,cs),
(465.6,1344.,o),
(163.2,1080.,o),
(92.8,692.8,cs)
);
},
{
closed = 1;
nodes = (
(1012.04,1697.6,l),
(899.477,1897.6,l),
(554.608,1569.6,l),
(626.072,1414.4,l)
);
},
{
closed = 1;
nodes = (
(1346.44,1697.6,l),
(1233.877,1897.6,l),
(889.008,1569.6,l),
(960.472,1414.4,l)
);
}
);
width = 1449;
},
{
layerId = "2FCE132C-6D1D-4C23-912A-6327D74CCB4B";
shapes = (
{
closed = 1;
nodes = (
(315.2,934.4,o),
(513.6,1180.8,o),
(801.6,1180.8,cs),
(1073.6,1180.8,o),
(1217.6,953.6,o),
(1168.,667.2,cs),
(1121.6,384.,o),
(926.4,140.8,o),
(632.,140.8,cs),
(353.6,140.8,o),
(225.6,374.4,o),
(268.8,656.,cs)
);
},
{
closed = 1;
nodes = (
(22.4,280.,o),
(222.4,-24.,o),
(619.2,-24.,cs),
(992.,-24.,o),
(1284.8,259.2,o),
(1350.4,649.6,cs),
(1416.,1030.4,o),
(1204.8,1344.,o),
(817.6,1344.,cs),
(449.6,1344.,o),
(150.4,1056.,o),
(88.,675.2,cs)
);
},
{
closed = 1;
nodes = (
(890.497,1715.2,l),
(812.95,1835.2,l),
(494.452,1542.4,l),
(547.313,1464.,l)
);
},
{
closed = 1;
nodes = (
(1231.297,1715.2,l),
(1153.75,1835.2,l),
(836.852,1542.4,l),
(889.713,1464.,l)
);
}
);
width = 1340;
},
{
layerId = "7F612C2A-B309-47B1-B60E-6F95A45BF26D";
shapes = (
{
closed = 1;
nodes = (
(208.,987.2,o),
(462.4,1284.8,o),
(796.8,1284.8,cs),
(1116.8,1284.8,o),
(1280.,1006.4,o),
(1225.6,670.4,cs),
(1172.8,336.,o),
(929.6,35.2,o),
(585.6,35.2,cs),
(260.8,35.2,o),
(100.8,297.6,o),
(153.6,649.6,cs)
);
},
{
closed = 1;
nodes = (
(24.,280.,o),
(198.4,-24.,o),
(587.2,-24.,cs),
(964.8,-24.,o),
(1235.2,281.6,o),
(1294.4,654.4,cs),
(1358.4,1022.4,o),
(1169.6,1344.,o),
(796.8,1344.,cs),
(441.6,1344.,o),
(144.,1044.8,o),
(84.8,665.6,cs)
);
},
{
closed = 1;
nodes = (
(826.512,1724.8,l),
(778.503,1804.8,l),
(469.542,1529.6,l),
(501.61,1488.,l)
);
},
{
closed = 1;
nodes = (
(1172.112,1724.8,l),
(1124.103,1804.8,l),
(815.142,1529.6,l),
(847.21,1488.,l)
);
}
);
width = 1285;
}
);
leftKerningGroup = O;
rightKerningGroup = O;
unicode = 336;
},
{
glyphname = Omacron;
layers = (
{
layerId = "CEE0B0E0-3C1B-4981-BE10-41B2F4187B00";
shapes = (
{
closed = 1;
nodes = (
(528.,828.8,o),
(616.,972.8,o),
(809.6,972.8,cs),
(987.2,972.8,o),
(1091.2,846.4,o),
(1054.4,662.4,cs),
(1017.6,478.4,o),
(921.6,350.4,o),
(726.4,350.4,cs),
(539.2,350.4,o),
(475.2,529.6,o),
(500.8,668.8,cs)
);
},
{
closed = 1;
nodes = (
(19.2,278.4,o),
(272.,-24.,o),
(684.8,-24.,cs),
(1044.8,-24.,o),
(1385.6,212.8,o),
(1460.8,638.4,cs),
(1529.6,1046.4,o),
(1273.6,1344.,o),
(859.2,1344.,cs),
(465.6,1344.,o),
(163.2,1080.,o),
(92.8,692.8,cs)
);
},
{
closed = 1;
nodes = (
(1219.699,1472.4,l),
(1326.001,1714.,l),
(626.801,1714.,l),
(520.499,1472.4,l)
);
}
);
width = 1449;
},
{
layerId = "2FCE132C-6D1D-4C23-912A-6327D74CCB4B";
shapes = (
{
closed = 1;
nodes = (
(315.2,934.4,o),
(513.6,1180.8,o),
(801.6,1180.8,cs),
(1073.6,1180.8,o),
(1217.6,953.6,o),
(1168.,667.2,cs),
(1121.6,384.,o),
(926.4,140.8,o),
(632.,140.8,cs),
(353.6,140.8,o),
(225.6,374.4,o),
(268.8,656.,cs)
);
},
{
closed = 1;
nodes = (
(22.4,280.,o),
(222.4,-24.,o),
(619.2,-24.,cs),
(992.,-24.,o),
(1284.8,259.2,o),
(1350.4,649.6,cs),
(1416.,1030.4,o),
(1204.8,1344.,o),
(817.6,1344.,cs),
(449.6,1344.,o),
(150.4,1056.,o),
(88.,675.2,cs)
);
},
{
closed = 1;
nodes = (
(1109.006,1566.8,l),
(1140.549,1691.6,l),
(550.149,1691.6,l),
(520.206,1566.8,l)
);
}
);
width = 1340;
},
{
layerId = "7F612C2A-B309-47B1-B60E-6F95A45BF26D";
shapes = (
{
closed = 1;
nodes = (
(208.,987.2,o),
(462.4,1284.8,o),
(796.8,1284.8,cs),
(1116.8,1284.8,o),
(1280.,1006.4,o),
(1225.6,670.4,cs),
(1172.8,336.,o),
(929.6,35.2,o),
(585.6,35.2,cs),
(260.8,35.2,o),
(100.8,297.6,o),
(153.6,649.6,cs)
);
},
{
closed = 1;
nodes = (
(24.,280.,o),
(198.4,-24.,o),
(587.2,-24.,cs),
(964.8,-24.,o),
(1235.2,281.6,o),
(1294.4,654.4,cs),
(1358.4,1022.4,o),
(1169.6,1344.,o),
(796.8,1344.,cs),
(441.6,1344.,o),
(144.,1044.8,o),
(84.8,665.6,cs)
);
},
{
closed = 1;
nodes = (
(1039.205,1614.8,l),
(1050.973,1680.4,l),
(514.973,1680.4,l),
(504.805,1614.8,l)
);
}
);
width = 1285;
}
);
leftKerningGroup = O;
rightKerningGroup = O;
unicode = 332;
},
{
glyphname = Oslash;
layers = (
{
layerId = "CEE0B0E0-3C1B-4981-BE10-41B2F4187B00";
shapes = (
{
closed = 1;
nodes = (
(320.,46.4,l),
(403.2,4.8,o),
(505.6,-24.,o),
(628.8,-24.,cs),
(995.2,-24.,o),
(1340.8,260.8,o),
(1408.,633.6,cs),
(1438.4,812.8,o),
(1396.8,968.,o),
(1318.4,1084.8,c),
(1435.2,1206.4,l),
(1227.2,1384.,l),
(1118.4,1275.2,l),
(1033.6,1315.2,o),
(937.6,1344.,o),
(822.4,1344.,cs),
(472.,1344.,o),
(107.2,1060.8,o),
(40.,688.,cs),
(9.6,508.8,o),
(46.4,353.6,o),
(120.,235.2,c),
(8.,120.,l),
(217.6,-57.6,l)
);
},
{
closed = 1;
nodes = (
(636.8,360.,o),
(614.4,348.8,o),
(590.4,342.4,c),
(1014.4,776.,l),
(1006.4,737.6,o),
(995.2,704.,o),
(992.,688.,cs),
(966.4,532.8,o),
(862.4,360.,o),
(648.,360.,cs)
);
},
{
closed = 1;
nodes = (
(427.2,548.8,l),
(441.6,587.2,o),
(452.8,617.6,o),
(457.6,633.6,c),
(484.8,788.8,o),
(596.8,961.6,o),
(803.2,961.6,cs),
(808.,961.6,o),
(828.8,974.4,o),
(851.2,982.4,c)
);
}
);
width = 1449;
},
{
layerId = "2FCE132C-6D1D-4C23-912A-6327D74CCB4B";
shapes = (
{
closed = 1;
nodes = (
(212.8,89.6,l),
(296.,20.8,o),
(411.2,-24.,o),
(561.6,-24.,cs),
(934.4,-24.,o),
(1233.6,268.8,o),
(1300.8,648.,cs),
(1334.4,840.,o),
(1299.2,1004.8,o),
(1216.,1126.4,c),
(1344.,1256.,l),
(1248.,1340.8,l),
(1129.6,1219.2,l),
(1044.8,1294.4,o),
(926.4,1344.,o),
(780.8,1344.,cs),
(422.4,1344.,o),
(105.6,1052.8,o),
(38.4,673.6,cs),
(4.8,475.2,o),
(38.4,304.,o),
(123.2,180.8,c),
(3.2,57.6,l),
(100.8,-24.,l)
);
},
{
closed = 1;
nodes = (
(468.8,140.8,o),
(390.4,168.,o),
(332.8,220.8,c),
(1086.4,992.,l),
(1128.,900.8,o),
(1137.6,785.6,o),
(1118.4,673.6,cs),
(1068.8,396.8,o),
(865.6,140.8,o),
(568.,140.8,cs)
);
},
{
closed = 1;
nodes = (
(257.6,318.4,l),
(209.6,409.6,o),
(201.6,529.6,o),
(222.4,648.,cs),
(272.,924.8,o),
(483.2,1180.8,o),
(772.8,1180.8,cs),
(872.,1180.8,o),
(952.,1148.8,o),
(1011.2,1092.8,c)
);
}
);
width = 1340;
},
{
layerId = "7F612C2A-B309-47B1-B60E-6F95A45BF26D";
shapes = (
{
closed = 1;
nodes = (
(160.,112.,l),
(243.2,28.8,o),
(364.8,-24.,o),
(528.,-24.,cs),
(904.,-24.,o),
(1180.8,273.6,o),
(1248.,656.,cs),
(1283.2,852.8,o),
(1251.2,1024.,o),
(1164.8,1147.2,c),
(1299.2,1281.6,l),
(1257.6,1318.4,l),
(1134.4,1190.4,l),
(1049.6,1284.8,o),
(921.6,1344.,o),
(760.,1344.,cs),
(398.4,1344.,o),
(105.6,1048.,o),
(38.4,665.6,cs),
(1.6,459.2,o),
(33.6,280.,o),
(124.8,153.6,c),
(0,27.2,l),
(41.6,-8.,l)
);
},
{
closed = 1;
nodes = (
(385.6,32.,o),
(278.4,76.8,o),
(204.8,160.,c),
(1121.6,1099.2,l),
(1188.8,982.4,o),
(1209.6,827.2,o),
(1180.8,665.6,cs),
(1120.,328.,o),
(867.2,32.,o),
(528.,32.,cs)
);
},
{
closed = 1;
nodes = (
(172.8,203.2,l),
(94.4,321.6,o),
(76.8,486.4,o),
(105.6,656.,cs),
(164.8,993.6,o),
(427.2,1289.6,o),
(758.4,1289.6,cs),
(904.,1289.6,o),
(1014.4,1236.8,o),
(1091.2,1147.2,c)
);
}
);
width = 1285;
}
);
leftKerningGroup = O;
rightKerningGroup = O;
unicode = 216;
},
{
glyphname = Otilde;
layers = (
{
layerId = "CEE0B0E0-3C1B-4981-BE10-41B2F4187B00";
shapes = (
{
closed = 1;
nodes = (
(528.,828.8,o),
(616.,972.8,o),
(809.6,972.8,cs),
(987.2,972.8,o),
(1091.2,846.4,o),
(1054.4,662.4,cs),
(1017.6,478.4,o),
(921.6,350.4,o),
(726.4,350.4,cs),
(539.2,350.4,o),
(475.2,529.6,o),
(500.8,668.8,cs)
);
},
{
closed = 1;
nodes = (
(19.2,278.4,o),
(272.,-24.,o),
(684.8,-24.,cs),
(1044.8,-24.,o),
(1385.6,212.8,o),
(1460.8,638.4,cs),
(1529.6,1046.4,o),
(1273.6,1344.,o),
(859.2,1344.,cs),
(465.6,1344.,o),
(163.2,1080.,o),
(92.8,692.8,cs)
);
},
{
closed = 1;
nodes = (
(815.579,1534.2,o),
(879.556,1460.6,o),
(1005.956,1460.6,cs),
(1149.956,1460.6,o),
(1265.978,1641.4,o),
(1311.517,1779.,c),
(1124.317,1779.,l),
(1110.395,1750.2,o),
(1080.33,1708.6,o),
(1051.53,1708.6,cs),
(960.33,1708.6,o),
(887.935,1780.6,o),
(761.535,1780.6,cs),
(617.535,1780.6,o),
(501.513,1599.8,o),
(454.374,1462.2,c),
(646.374,1462.2,l),
(659.114,1492.6,o),
(687.161,1532.6,o),
(717.561,1532.6,cs)
);
}
);
width = 1449;
},
{
layerId = "2FCE132C-6D1D-4C23-912A-6327D74CCB4B";
shapes = (
{
closed = 1;
nodes = (
(315.2,934.4,o),
(513.6,1180.8,o),
(801.6,1180.8,cs),
(1073.6,1180.8,o),
(1217.6,953.6,o),
(1168.,667.2,cs),
(1121.6,384.,o),
(926.4,140.8,o),
(632.,140.8,cs),
(353.6,140.8,o),
(225.6,374.4,o),
(268.8,656.,cs)
);
},
{
closed = 1;
nodes = (
(22.4,280.,o),
(222.4,-24.,o),
(619.2,-24.,cs),
(992.,-24.,o),
(1284.8,259.2,o),
(1350.4,649.6,cs),
(1416.,1030.4,o),
(1204.8,1344.,o),
(817.6,1344.,cs),
(449.6,1344.,o),
(150.4,1056.,o),
(88.,675.2,cs)
);
},
{
closed = 1;
nodes = (
(799.16,1590.2,o),
(852.214,1515.,o),
(978.614,1515.,cs),
(1084.214,1515.,o),
(1168.461,1638.2,o),
(1201.174,1729.4,c),
(1076.374,1729.4,l),
(1059.846,1694.2,o),
(1022.035,1651.,o),
(975.635,1651.,cs),
(886.035,1651.,o),
(845.78,1726.2,o),
(719.38,1726.2,cs),
(615.38,1726.2,o),
(531.133,1603.,o),
(498.421,1511.8,c),
(618.421,1511.8,l),
(634.948,1547.,o),
(675.96,1590.2,o),
(722.36,1590.2,cs)
);
}
);
width = 1340;
},
{
layerId = "7F612C2A-B309-47B1-B60E-6F95A45BF26D";
shapes = (
{
closed = 1;
nodes = (
(208.,987.2,o),
(462.4,1284.8,o),
(796.8,1284.8,cs),
(1116.8,1284.8,o),
(1280.,1006.4,o),
(1225.6,670.4,cs),
(1172.8,336.,o),
(929.6,35.2,o),
(585.6,35.2,cs),
(260.8,35.2,o),
(100.8,297.6,o),
(153.6,649.6,cs)
);
},
{
closed = 1;
nodes = (
(24.,280.,o),
(198.4,-24.,o),
(587.2,-24.,cs),
(964.8,-24.,o),
(1235.2,281.6,o),
(1294.4,654.4,cs),
(1358.4,1022.4,o),
(1169.6,1344.,o),
(796.8,1344.,cs),
(441.6,1344.,o),
(144.,1044.8,o),
(84.8,665.6,cs)
);
},
{
closed = 1;
nodes = (
(783.076,1619.,o),
(830.957,1542.2,o),
(955.757,1542.2,cs),
(1042.157,1542.2,o),
(1119.97,1636.6,o),
(1154.075,1703.8,c),
(1059.675,1703.8,l),
(1043.615,1665.4,o),
(1002.148,1622.2,o),
(946.148,1622.2,cs),
(858.148,1622.2,o),
(832.667,1699.,o),
(706.267,1699.,cs),
(621.467,1699.,o),
(545.254,1604.6,o),
(512.749,1537.4,c),
(597.549,1537.4,l),
(615.273,1574.2,o),
(661.476,1619.,o),
(715.876,1619.,cs)
);
}
);
width = 1285;
}
);
leftKerningGroup = O;
rightKerningGroup = O;
unicode = 213;
},
{
glyphname = OE;
layers = (
{
layerId = "CEE0B0E0-3C1B-4981-BE10-41B2F4187B00";
shapes = (
{
closed = 1;
nodes = (
(1492.8,0,l),
(1552.,340.8,l),
(1152.,340.8,l),
(1180.8,491.2,l),
(1561.6,491.2,l),
(1620.8,832.,l),
(1240.,832.,l),
(1265.6,979.2,l),
(1667.2,979.2,l),
(1726.4,1320.,l),
(830.4,1320.,ls),
(467.2,1320.,o),
(107.2,1059.2,o),
(40.,684.8,cs),
(-28.8,288.,o),
(270.4,0,o),
(620.8,0,cs)
);
},
{
closed = 1;
nodes = (
(710.4,350.4,ls),
(536.,350.4,o),
(428.8,467.2,o),
(457.6,633.6,cs),
(489.6,822.4,o),
(662.4,968.,o),
(844.8,968.,cs),
(870.4,968.,l),
(761.6,350.4,l)
);
}
);
width = 1686;
},
{
layerId = "2FCE132C-6D1D-4C23-912A-6327D74CCB4B";
shapes = (
{
closed = 1;
nodes = (
(1326.4,0,l),
(1355.2,158.4,l),
(827.2,158.4,l),
(900.8,582.4,l),
(1409.6,582.4,l),
(1438.4,740.8,l),
(929.6,740.8,l),
(1003.2,1161.6,l),
(1531.2,1161.6,l),
(1560.,1320.,l),
(780.8,1320.,ls),
(417.6,1320.,o),
(105.6,1051.2,o),
(38.4,672.,cs),
(-30.4,280.,o),
(179.2,0,o),
(560.,0,cs)
);
},
{
closed = 1;
nodes = (
(588.8,156.8,ls),
(297.6,156.8,o),
(174.4,376.,o),
(222.4,648.,cs),
(273.6,932.8,o),
(494.4,1163.2,o),
(777.6,1163.2,cs),
(830.4,1163.2,l),
(651.2,156.8,l)
);
}
);
width = 1520;
},
{
layerId = "7F612C2A-B309-47B1-B60E-6F95A45BF26D";
shapes = (
{
closed = 1;
nodes = (
(1243.2,0,l),
(1256.,67.2,l),
(665.6,67.2,l),
(761.6,627.2,l),
(1334.4,627.2,l),
(1347.2,696.,l),
(774.4,696.,l),
(872.,1252.8,l),
(1464.,1252.8,l),
(1476.8,1320.,l),
(756.8,1320.,ls),
(393.6,1320.,o),
(105.6,1048.,o),
(38.4,665.6,cs),
(-30.4,276.8,o),
(134.4,0,o),
(529.6,0,cs)
);
},
{
closed = 1;
nodes = (
(528.,60.8,ls),
(177.6,60.8,o),
(48.,331.2,o),
(105.6,656.,cs),
(164.8,988.8,o),
(411.2,1260.8,o),
(744.,1260.8,cs),
(809.6,1260.8,l),
(596.8,60.8,l)
);
}
);
width = 1437;
}
);
leftKerningGroup = O;
rightKerningGroup = d;
unicode = 338;
},
{
color = 1;
glyphname = P;
leftMetricsKey = H;
layers = (
{
layerId = "4E18C67D-FD18-4DC8-98B4-735370D5F5E0";
name = "#instance";
shapes = (
{
closed = 1;
nodes = (
(56.,0,l),
(449.6,0,l),
(536.,467.2,l),
(713.6,467.2,ls),
(971.2,467.2,o),
(1188.8,616.,o),
(1238.4,876.8,c),
(1291.2,1168.,o),
(1099.2,1320.,o),
(848.,1320.,cs),
(300.8,1320.,l)
);
},
{
closed = 1;
nodes = (
(638.4,1014.4,l),
(689.6,1014.4,ls),
(766.4,1014.4,o),
(843.2,1001.6,o),
(825.6,916.8,cs),
(806.4,822.4,o),
(697.6,771.2,o),
(603.2,771.2,cs),
(592.,771.2,l)
);
}
);
width = 1167;
},
{
layerId = "CEE0B0E0-3C1B-4981-BE10-41B2F4187B00";
shapes = (
{
closed = 1;
nodes = (
(56.,0,l),
(449.6,0,l),
(536.,467.2,l),
(713.6,467.2,ls),
(971.2,467.2,o),
(1188.8,616.,o),
(1238.4,876.8,cs),
(1291.2,1168.,o),
(1099.2,1320.,o),
(848.,1320.,cs),
(300.8,1320.,l)
);
},
{
closed = 1;
nodes = (
(638.4,1014.4,l),
(689.6,1014.4,ls),
(766.4,1014.4,o),
(843.2,1001.6,o),
(825.6,916.8,cs),
(806.4,822.4,o),
(697.6,771.2,o),
(603.2,771.2,cs),
(592.,771.2,l)
);
}
);
width = 1167;
},
{
layerId = "2FCE132C-6D1D-4C23-912A-6327D74CCB4B";
shapes = (
{
closed = 1;
nodes = (
(48.,0,l),
(222.4,0,l),
(308.8,521.6,l),
(515.2,521.6,ls),
(772.8,521.6,o),
(972.8,649.6,o),
(1016.,915.2,cs),
(1059.2,1188.8,o),
(904.,1320.,o),
(636.8,1320.,cs),
(267.2,1320.,l)
);
},
{
closed = 1;
nodes = (
(414.4,1176.,l),
(569.6,1176.,ls),
(744.,1176.,o),
(870.4,1118.4,o),
(841.6,937.6,cs),
(808.,724.8,o),
(644.8,664.,o),
(496.,664.,cs),
(331.2,664.,l)
);
}
);
width = 966;
},
{
layerId = "7F612C2A-B309-47B1-B60E-6F95A45BF26D";
shapes = (
{
closed = 1;
nodes = (
(43.2,0,l),
(108.8,0,l),
(195.2,548.8,l),
(416.,548.8,ls),
(673.6,548.8,o),
(864.,665.6,o),
(904.,934.4,cs),
(944.,1198.4,o),
(806.4,1320.,o),
(531.2,1320.,cs),
(249.6,1320.,l)
);
},
{
closed = 1;
nodes = (
(302.4,1256.,l),
(508.8,1256.,ls),
(732.8,1256.,o),
(883.2,1177.6,o),
(849.6,947.2,cs),
(808.,675.2,o),
(619.2,611.2,o),
(441.6,611.2,cs),
(201.6,611.2,l)
);
}
);
width = 866;
}
);
rightKerningGroup = P;
unicode = 80;
},
{
glyphname = Thorn;
layers = (
{
layerId = "CEE0B0E0-3C1B-4981-BE10-41B2F4187B00";
shapes = (
{
closed = 1;
nodes = (
(-20.8,0,l),
(372.8,0,l),
(416.,244.8,l),
(585.6,244.8,ls),
(843.2,244.8,o),
(1064.,382.4,o),
(1110.4,641.6,cs),
(1160.,928.,o),
(966.4,1075.2,o),
(708.8,1075.2,cs),
(563.2,1075.2,l),
(606.4,1320.,l),
(212.8,1320.,l)
);
},
{
closed = 1;
nodes = (
(508.8,769.6,l),
(528.,769.6,ls),
(616.,769.6,o),
(699.2,764.8,o),
(684.8,681.6,c),
(664.,576.,o),
(553.6,550.4,o),
(465.6,550.4,c),
(470.4,550.4,l)
);
}
);
width = 1151;
},
{
layerId = "2FCE132C-6D1D-4C23-912A-6327D74CCB4B";
shapes = (
{
closed = 1;
nodes = (
(-20.8,0,l),
(153.6,0,l),
(196.8,244.8,l),
(416.,244.8,ls),
(673.6,244.8,o),
(865.6,390.4,o),
(912.,656.,cs),
(961.6,936.,o),
(808.,1075.2,o),
(550.4,1075.2,cs),
(344.,1075.2,l),
(387.2,1320.,l),
(212.8,1320.,l)
);
},
{
closed = 1;
nodes = (
(316.8,924.8,l),
(513.6,924.8,ls),
(673.6,924.8,o),
(771.2,859.2,o),
(739.2,678.4,cs),
(704.,486.4,o),
(568.,395.2,o),
(408.,395.2,cs),
(224.,395.2,l)
);
}
);
width = 950;
},
{
layerId = "7F612C2A-B309-47B1-B60E-6F95A45BF26D";
shapes = (
{
closed = 1;
nodes = (
(-20.8,0,l),
(44.8,0,l),
(88.,244.8,l),
(331.2,244.8,ls),
(588.8,244.8,o),
(766.4,395.2,o),
(812.8,664.,cs),
(862.4,940.8,o),
(728.,1075.2,o),
(470.4,1075.2,cs),
(235.2,1075.2,l),
(278.4,1320.,l),
(212.8,1320.,l)
);
},
{
closed = 1;
nodes = (
(220.8,1001.6,l),
(505.6,1001.6,ls),
(702.4,1001.6,o),
(806.4,905.6,o),
(766.4,676.8,cs),
(724.8,441.6,o),
(576.,318.4,o),
(379.2,318.4,cs),
(100.8,318.4,l)
);
}
);
width = 850;
}
);
rightKerningGroup = d;
unicode = 222;
},
{
glyphname = Q;
leftMetricsKey = O;
rightMetricsKey = O;
layers = (
{
layerId = "B59E4907-494A-4967-BF6C-1C90CF34A76B";
name = "BoldItalicItalic.Mar 3 18, 13:20";
shapes = (
{
closed = 1;
nodes = (
(377.6,878.4,o),
(515.2,1070.4,o),
(753.6,1070.4,cs),
(974.4,1070.4,o),
(1088.,896.,o),
(1054.4,664.,cs),
(1020.8,436.8,o),
(872.,241.6,o),
(630.4,241.6,cs),
(384.,241.6,o),
(307.2,459.2,o),
(342.4,664.,cs)
);
},
{
closed = 1;
nodes = (
(-60.8,105.6,o),
(449.6,-443.2,o),
(1161.6,-321.6,c),
(1211.2,-41.6,l),
(992.,-102.4,o),
(667.2,-86.4,o),
(504.,38.4,c),
(878.4,-81.6,o),
(1283.2,182.4,o),
(1364.8,643.2,cs),
(1435.2,1040.,o),
(1195.2,1344.,o),
(792.,1344.,cs),
(388.8,1344.,o),
(104.,1043.2,o),
(40.,684.8,cs)
);
}
);
width = 1405;
},
{
layerId = "89242A9C-375D-4EF5-A0E1-FCFBA69E37EC";
name = "LightItalicItalic.Mar 3 18, 13:27";
shapes = (
{
closed = 1;
nodes = (
(251.2,966.4,o),
(483.2,1249.6,o),
(798.4,1249.6,cs),
(1134.4,1249.6,o),
(1251.2,947.2,o),
(1198.4,648.,cs),
(1147.2,356.8,o),
(934.4,70.4,o),
(604.8,70.4,cs),
(297.6,70.4,o),
(150.4,328.,o),
(200.,652.8,cs)
);
},
{
closed = 1;
nodes = (
(-9.6,96.,o),
(545.6,-353.6,o),
(1134.4,-262.4,c),
(1153.6,-152.,l),
(883.2,-192.,o),
(593.6,-126.4,o),
(404.8,22.4,c),
(625.6,-52.8,o),
(814.4,-19.2,o),
(963.2,76.8,cs),
(1150.4,196.8,o),
(1273.6,416.,o),
(1312.,638.4,cs),
(1372.8,987.2,o),
(1228.8,1344.,o),
(804.8,1344.,cs),
(444.8,1344.,o),
(147.2,1049.6,o),
(86.4,668.8,cs)
);
}
);
width = 1312;
},
{
layerId = "CEE0B0E0-3C1B-4981-BE10-41B2F4187B00";
shapes = (
{
closed = 1;
nodes = (
(513.6,836.8,o),
(606.4,984.,o),
(808.,984.,cs),
(972.8,984.,o),
(1084.8,872.,o),
(1060.8,672.,cs),
(1035.2,475.2,o),
(918.4,324.8,o),
(718.4,324.8,cs),
(500.8,324.8,o),
(459.2,521.6,o),
(486.4,668.8,c)
);
},
{
closed = 1;
nodes = (
(1316.8,4.8,l),
(1248.,-14.4,o),
(1172.8,-28.8,o),
(1094.4,-38.4,c),
(886.4,-52.8,o),
(724.8,-33.6,o),
(548.8,96.,c),
(723.2,-6.4,o),
(948.8,8.,o),
(1129.6,107.2,cs),
(1288.,193.6,o),
(1422.4,395.2,o),
(1465.6,644.8,cs),
(1540.8,1065.6,o),
(1254.4,1344.,o),
(862.4,1344.,cs),
(438.4,1344.,o),
(158.4,1040.,o),
(92.8,692.8,cs),
(35.2,363.2,o),
(164.8,33.6,o),
(427.2,-169.6,cs),
(628.8,-326.4,o),
(908.8,-408.,o),
(1252.8,-356.8,c)
);
}
);
width = 1465;
},
{
layerId = "2FCE132C-6D1D-4C23-912A-6327D74CCB4B";
shapes = (
{
closed = 1;
nodes = (
(312.,937.6,o),
(512.,1187.2,o),
(800.,1187.2,cs),
(1096.,1187.2,o),
(1212.8,929.6,o),
(1166.4,654.4,cs),
(1121.6,384.,o),
(931.2,129.6,o),
(630.4,129.6,cs),
(344.,129.6,o),
(220.8,372.8,o),
(265.6,656.,cs)
);
},
{
closed = 1;
nodes = (
(1187.2,-105.6,l),
(1081.6,-136.,o),
(969.6,-142.4,o),
(860.8,-129.6,cs),
(684.8,-110.4,o),
(529.6,-49.6,o),
(409.6,54.4,c),
(587.2,-43.2,o),
(830.4,-22.4,o),
(1001.6,83.2,cs),
(1182.4,196.8,o),
(1308.8,411.2,o),
(1347.2,640.,cs),
(1411.2,1004.8,o),
(1233.6,1344.,o),
(819.2,1344.,cs),
(443.2,1344.,o),
(150.4,1048.,o),
(88.,675.2,cs),
(38.4,385.6,o),
(152.,116.8,o),
(355.2,-64.,cs),
(556.8,-244.8,o),
(851.2,-336.,o),
(1158.4,-273.6,c)
);
}
);
width = 1347;
},
{
layerId = "7F612C2A-B309-47B1-B60E-6F95A45BF26D";
shapes = (
{
closed = 1;
nodes = (
(211.2,987.2,o),
(464.,1289.6,o),
(796.8,1289.6,cs),
(1158.4,1289.6,o),
(1276.8,958.4,o),
(1219.2,644.8,cs),
(1164.8,339.2,o),
(937.6,32.,o),
(587.2,32.,cs),
(265.6,32.,o),
(102.4,297.6,o),
(155.2,649.6,cs)
);
},
{
closed = 1;
nodes = (
(1123.2,-160.,l),
(998.4,-196.8,o),
(867.2,-198.4,o),
(744.,-174.4,c),
(584.,-139.2,o),
(432.,-57.6,o),
(340.8,33.6,c),
(518.4,-62.4,o),
(771.2,-38.4,o),
(937.6,72.,cs),
(1129.6,198.4,o),
(1251.2,419.2,o),
(1288.,636.8,cs),
(1347.2,974.4,o),
(1224.,1344.,o),
(796.8,1344.,cs),
(446.4,1344.,o),
(145.6,1051.2,o),
(84.8,665.6,cs),
(40.,396.8,o),
(145.6,158.4,o),
(320.,-11.2,cs),
(520.,-203.2,o),
(822.4,-300.8,o),
(1110.4,-232.,c)
);
}
);
width = 1287;
}
);
leftKerningGroup = O;
rightKerningGroup = O;
unicode = 81;
},
{
glyphname = R;
layers = (
{
layerId = "CEE0B0E0-3C1B-4981-BE10-41B2F4187B00";
shapes = (
{
closed = 1;
nodes = (
(-18,0,l),
(370,0,l),
(458.34,501,l),
(432.34,501,l),
(616,0,l),
(1050,0,l),
(827.63,531,l),
(959.39,558,o),
(1094.32,637,o),
(1141.4,904,cs),
(1182.307,1136,o),
(1021.752,1320,o),
(806.752,1320,cs),
(214.752,1320,l)
);
},
{
closed = 1;
nodes = (
(549.677,1019,l),
(616.677,1019,ls),
(678.677,1019,o),
(759.093,993,o),
(741.107,891,cs),
(722.417,785,o),
(645.537,763,o),
(568.537,763,cs),
(504.537,763,l)
);
}
);
width = 1234;
},
{
layerId = "2FCE132C-6D1D-4C23-912A-6327D74CCB4B";
shapes = (
{
closed = 1;
nodes = (
(38,0,l),
(209,0,l),
(309.838,558,l),
(523.838,558,l),
(728,0,l),
(922,0,l),
(697.544,570,l),
(842.074,579,o),
(1006.782,676,o),
(1053.142,937,cs),
(1093.677,1167,o),
(925.681,1320,o),
(732.681,1320,cs),
(270.681,1320,l)
);
},
{
closed = 1;
nodes = (
(425.265,1177,l),
(657.265,1177,ls),
(801.265,1177,o),
(910.675,1099,o),
(877.906,933,cs),
(839.96,747,o),
(730.312,685,o),
(555.312,685,cs),
(325.312,685,l)
);
}
);
width = 1109;
},
{
layerId = "7F612C2A-B309-47B1-B60E-6F95A45BF26D";
shapes = (
{
closed = 1;
nodes = (
(66,0,l),
(128,0,l),
(231,586,l),
(564,586,l),
(784,0,l),
(858,0,l),
(629,590,l),
(782,590,o),
(960,695,o),
(1006,954,cs),
(1047,1182,o),
(878,1320,o),
(695,1320,cs),
(299,1320,l)
);
},
{
closed = 1;
nodes = (
(349,1256,l),
(663,1256,ls),
(849,1256,o),
(977,1152,o),
(942,954,cs),
(902,728,o),
(779,646,o),
(556,646,cs),
(242,646,l)
);
}
);
width = 1046;
}
);
rightKerningGroup = R;
unicode = 82;
},
{
glyphname = Racute;
layers = (
{
layerId = "CEE0B0E0-3C1B-4981-BE10-41B2F4187B00";
shapes = (
{
closed = 1;
nodes = (
(-19,0,l),
(369,0,l),
(457.34,501,l),
(431.34,501,l),
(615,0,l),
(1049,0,l),
(826.63,531,l),
(958.39,558,o),
(1093.32,637,o),
(1140.4,904,cs),
(1181.307,1136,o),
(1020.752,1320,o),
(805.752,1320,cs),
(213.752,1320,l)
);
},
{
closed = 1;
nodes = (
(548.677,1019,l),
(615.677,1019,ls),
(677.677,1019,o),
(758.093,993,o),
(740.107,891,cs),
(721.417,785,o),
(644.537,763,o),
(567.537,763,cs),
(503.537,763,l)
);
},
{
closed = 1;
nodes = (
(1043.196,1642.,l),
(916.519,1867.6,l),
(515.937,1565.2,l),
(591.437,1413.2,l)
);
}
);
width = 1234;
},
{
layerId = "2FCE132C-6D1D-4C23-912A-6327D74CCB4B";
shapes = (
{
closed = 1;
nodes = (
(38,0,l),
(209,0,l),
(309.838,558,l),
(523.838,558,l),
(728,0,l),
(922,0,l),
(697.544,570,l),
(842.074,579,o),
(1006.782,676,o),
(1053.142,937,cs),
(1093.677,1167,o),
(925.681,1320,o),
(732.681,1320,cs),
(270.681,1320,l)
);
},
{
closed = 1;
nodes = (
(425.265,1177,l),
(657.265,1177,ls),
(801.265,1177,o),
(910.675,1099,o),
(877.906,933,cs),
(839.96,747,o),
(730.312,685,o),
(555.312,685,cs),
(325.312,685,l)
);
},
{
closed = 1;
nodes = (
(895.072,1680.4,l),
(811.416,1805.2,l),
(466.632,1554.,l),
(517.506,1469.2,l)
);
}
);
width = 1109;
},
{
layerId = "7F612C2A-B309-47B1-B60E-6F95A45BF26D";
shapes = (
{
closed = 1;
nodes = (
(66,0,l),
(128,0,l),
(231,586,l),
(564,586,l),
(784,0,l),
(858,0,l),
(629,590,l),
(782,590,o),
(960,695,o),
(1006,954,cs),
(1047,1182,o),
(878,1320,o),
(695,1320,cs),
(299,1320,l)
);
},
{
closed = 1;
nodes = (
(349,1256,l),
(663,1256,ls),
(849,1256,o),
(977,1152,o),
(942,954,cs),
(902,728,o),
(779,646,o),
(556,646,cs),
(242,646,l)
);
},
{
closed = 1;
nodes = (
(815.003,1699.6,l),
(768.787,1774.8,l),
(443.436,1549.2,l),
(472.689,1498.,l)
);
}
);
width = 1046;
}
);
rightKerningGroup = R;
unicode = 340;
},
{
glyphname = Rcaron;
layers = (
{
layerId = "CEE0B0E0-3C1B-4981-BE10-41B2F4187B00";
shapes = (
{
closed = 1;
nodes = (
(-19,0,l),
(369,0,l),
(457.34,501,l),
(431.34,501,l),
(615,0,l),
(1049,0,l),
(826.63,531,l),
(958.39,558,o),
(1093.32,637,o),
(1140.4,904,cs),
(1181.307,1136,o),
(1020.752,1320,o),
(805.752,1320,cs),
(213.752,1320,l)
);
},
{
closed = 1;
nodes = (
(548.677,1019,l),
(615.677,1019,ls),
(677.677,1019,o),
(758.093,993,o),
(740.107,891,cs),
(721.417,785,o),
(644.537,763,o),
(567.537,763,cs),
(503.537,763,l)
);
},
{
closed = 1;
nodes = (
(757.8,1651.,l),
(522.6,1843.,l),
(378.6,1668.6,l),
(711.4,1375.8,l),
(1159.4,1659.,l),
(1036.2,1843.,l)
);
}
);
width = 1234;
},
{
layerId = "2FCE132C-6D1D-4C23-912A-6327D74CCB4B";
shapes = (
{
closed = 1;
nodes = (
(38,0,l),
(209,0,l),
(309.838,558,l),
(523.838,558,l),
(728,0,l),
(922,0,l),
(697.544,570,l),
(842.074,579,o),
(1006.782,676,o),
(1053.142,937,cs),
(1093.677,1167,o),
(925.681,1320,o),
(732.681,1320,cs),
(270.681,1320,l)
);
},
{
closed = 1;
nodes = (
(425.265,1177,l),
(657.265,1177,ls),
(801.265,1177,o),
(910.675,1099,o),
(877.906,933,cs),
(839.96,747,o),
(730.312,685,o),
(555.312,685,cs),
(325.312,685,l)
);
},
{
closed = 1;
nodes = (
(649.2,1636.8,l),
(436.4,1798.4,l),
(361.2,1712.,l),
(626.8,1478.4,l),
(962.8,1705.6,l),
(903.6,1798.4,l)
);
}
);
width = 1109;
},
{
layerId = "7F612C2A-B309-47B1-B60E-6F95A45BF26D";
shapes = (
{
closed = 1;
nodes = (
(66,0,l),
(128,0,l),
(231,586,l),
(564,586,l),
(784,0,l),
(858,0,l),
(629,590,l),
(782,590,o),
(960,695,o),
(1006,954,cs),
(1047,1182,o),
(878,1320,o),
(695,1320,cs),
(299,1320,l)
);
},
{
closed = 1;
nodes = (
(349,1256,l),
(663,1256,ls),
(849,1256,o),
(977,1152,o),
(942,954,cs),
(902,728,o),
(779,646,o),
(556,646,cs),
(242,646,l)
);
},
{
closed = 1;
nodes = (
(594.4,1630.,l),
(392.8,1775.6,l),
(352.8,1732.4,l),
(584.8,1529.2,l),
(864.8,1727.6,l),
(837.6,1775.6,l)
);
}
);
width = 1046;
}
);
rightKerningGroup = R;
unicode = 344;
},
{
glyphname = Rcommaaccent;
layers = (
{
layerId = "CEE0B0E0-3C1B-4981-BE10-41B2F4187B00";
shapes = (
{
closed = 1;
nodes = (
(421.4,-48.,o),
(367.,-108.8,o),
(359.,-166.4,cs),
(349.4,-228.8,o),
(397.4,-286.4,o),
(472.6,-294.4,c),
(458.2,-321.6,o),
(439.,-331.2,o),
(351.,-377.6,c),
(415.,-462.4,l),
(523.8,-436.8,o),
(672.6,-331.2,o),
(687.,-235.2,c),
(706.2,-121.6,o),
(647.,-48.,o),
(535.,-48.,cs)
);
},
{
closed = 1;
nodes = (
(-19,0,l),
(369,0,l),
(457.34,501,l),
(431.34,501,l),
(615,0,l),
(1049,0,l),
(826.63,531,l),
(958.39,558,o),
(1093.32,637,o),
(1140.4,904,cs),
(1181.307,1136,o),
(1020.752,1320,o),
(805.752,1320,cs),
(213.752,1320,l)
);
},
{
closed = 1;
nodes = (
(548.677,1019,l),
(615.677,1019,ls),
(677.677,1019,o),
(758.093,993,o),
(740.107,891,cs),
(721.417,785,o),
(644.537,763,o),
(567.537,763,cs),
(503.537,763,l)
);
}
);
width = 1234;
},
{
layerId = "2FCE132C-6D1D-4C23-912A-6327D74CCB4B";
shapes = (
{
closed = 1;
nodes = (
(350.4,-72.,o),
(299.2,-121.6,o),
(288.,-177.6,cs),
(278.4,-233.6,o),
(331.2,-284.8,o),
(398.4,-276.8,c),
(361.6,-329.6,o),
(284.8,-371.2,o),
(264.,-382.4,c),
(315.2,-432.,l),
(395.2,-398.4,o),
(510.4,-310.4,o),
(528.,-204.8,cs),
(540.8,-129.6,o),
(496.,-72.,o),
(419.2,-72.,cs)
);
},
{
closed = 1;
nodes = (
(38,0,l),
(209,0,l),
(309.838,558,l),
(523.838,558,l),
(728,0,l),
(922,0,l),
(697.544,570,l),
(842.074,579,o),
(1006.782,676,o),
(1053.142,937,cs),
(1093.677,1167,o),
(925.681,1320,o),
(732.681,1320,cs),
(270.681,1320,l)
);
},
{
closed = 1;
nodes = (
(425.265,1177,l),
(657.265,1177,ls),
(801.265,1177,o),
(910.675,1099,o),
(877.906,933,cs),
(839.96,747,o),
(730.312,685,o),
(555.312,685,cs),
(325.312,685,l)
);
}
);
width = 1109;
},
{
layerId = "7F612C2A-B309-47B1-B60E-6F95A45BF26D";
shapes = (
{
closed = 1;
nodes = (
(315.2,-83.2,o),
(264.,-128.,o),
(252.8,-182.4,cs),
(241.6,-236.8,o),
(297.6,-284.8,o),
(361.6,-267.2,c),
(312.,-334.4,o),
(208.,-392.,o),
(220.8,-385.6,c),
(265.6,-417.6,l),
(331.2,-379.2,o),
(428.8,-300.8,o),
(448.,-190.4,cs),
(457.6,-132.8,o),
(419.2,-83.2,o),
(360.,-83.2,cs)
);
},
{
closed = 1;
nodes = (
(66,0,l),
(128,0,l),
(231,586,l),
(564,586,l),
(784,0,l),
(858,0,l),
(629,590,l),
(782,590,o),
(960,695,o),
(1006,954,cs),
(1047,1182,o),
(878,1320,o),
(695,1320,cs),
(299,1320,l)
);
},
{
closed = 1;
nodes = (
(349,1256,l),
(663,1256,ls),
(849,1256,o),
(977,1152,o),
(942,954,cs),
(902,728,o),
(779,646,o),
(556,646,cs),
(242,646,l)
);
}
);
width = 1046;
}
);
rightKerningGroup = R;
unicode = 342;
},
{
glyphname = S;
layers = (
{
layerId = "4E18C67D-FD18-4DC8-98B4-735370D5F5E0";
name = "#instance";
shapes = (
{
closed = 1;
nodes = (
(491.983,1344,o),
(259.885,1213,o),
(214.392,955,cs),
(174.013,726,o),
(353.209,591,o),
(473.922,544,cs),
(629.342,484,o),
(675.466,445,o),
(667.531,400,cs),
(659.067,352,o),
(620.188,330,o),
(532.188,330,cs),
(407.188,330,o),
(233.821,430,o),
(210.052,454,c),
(-35.901,131,l),
(-9.544,99,o),
(174.768,-24,o),
(469.768,-24,cs),
(749.768,-24,o),
(1013.754,78,o),
(1067.357,382,cs),
(1103.504,587,o),
(956.658,741,o),
(790.709,798,cs),
(647.349,847,o),
(598.049,885,o),
(606.16,931,cs),
(614.624,979,o),
(666.445,995,o),
(740.445,995,cs),
(829.445,995,o),
(934.984,930,o),
(962.752,906,c),
(1200.414,1216,l),
(1175.293,1238,o),
(1014.983,1344,o),
(758.983,1344,cs)
);
}
);
width = 1163;
},
{
layerId = "CEE0B0E0-3C1B-4981-BE10-41B2F4187B00";
shapes = (
{
closed = 1;
nodes = (
(491.983,1344,o),
(259.885,1213,o),
(214.392,955,cs),
(174.013,726,o),
(353.209,591,o),
(473.922,544,cs),
(629.342,484,o),
(675.466,445,o),
(667.531,400,cs),
(659.067,352,o),
(620.188,330,o),
(532.188,330,cs),
(407.188,330,o),
(233.821,430,o),
(210.052,454,c),
(-35.901,131,l),
(-9.544,99,o),
(174.768,-24,o),
(469.768,-24,cs),
(749.768,-24,o),
(1013.754,78,o),
(1067.357,382,cs),
(1103.504,587,o),
(956.658,741,o),
(790.709,798,cs),
(647.349,847,o),
(598.049,885,o),
(606.16,931,cs),
(614.624,979,o),
(666.445,995,o),
(740.445,995,cs),
(829.445,995,o),
(934.984,930,o),
(962.752,906,c),
(1200.414,1216,l),
(1175.293,1238,o),
(1014.983,1344,o),
(758.983,1344,cs)
);
}
);
width = 1163;
},
{
layerId = "2FCE132C-6D1D-4C23-912A-6327D74CCB4B";
shapes = (
{
closed = 1;
nodes = (
(441.093,1344,o),
(261.267,1228,o),
(228.026,1020,cs),
(197.962,832,o),
(365.842,711,o),
(495.075,647,c),
(549.898,627,o),
(786.954,492,o),
(755.656,351,cs),
(725.417,211,o),
(631.062,137,o),
(437.062,137,cs),
(260.062,137,o),
(131.594,231,o),
(104.124,257,c),
(-5.527,110,l),
(10.473,93,o),
(174.588,-24,o),
(417.588,-24,cs),
(697.588,-24,o),
(894.591,95,o),
(935.126,342,c),
(976.309,566,o),
(690.784,744,o),
(633.902,763,c),
(504.374,822,o),
(382.082,902,o),
(404.496,1011,cs),
(430.558,1131,o),
(523.736,1185,o),
(685.736,1185,cs),
(832.736,1185,o),
(920.323,1110,o),
(945.792,1084,c),
(1049.09,1225,l),
(1033.149,1243,o),
(914.093,1344,o),
(686.093,1344,cs)
);
}
);
width = 1056;
},
{
layerId = "7F612C2A-B309-47B1-B60E-6F95A45BF26D";
shapes = (
{
closed = 1;
nodes = (
(415,1344,o),
(261,1236,o),
(229,1053,cs),
(200,885,o),
(361,771,o),
(497,699,c),
(497,699,o),
(838,516,o),
(804,326,cs),
(771,141,o),
(654,40,o),
(407,40,cs),
(204,40,o),
(98,131,o),
(68,158,c),
(12,99,l),
(21,90,o),
(174,-24,o),
(391,-24,cs),
(672,-24,o),
(834,103,o),
(873,322,cs),
(914,555,o),
(558,746,o),
(558,746,c),
(435,809,o),
(272,911,o),
(297,1051,cs),
(325,1207,o),
(435,1280,o),
(642,1280,cs),
(818,1280,o),
(897,1200,o),
(922,1173,c),
(972,1229,l),
(962,1245,o),
(863,1344,o),
(650,1344,cs)
);
}
);
width = 1003;
}
);
leftKerningGroup = S;
rightKerningGroup = S;
unicode = 83;
},
{
glyphname = Sacute;
layers = (
{
layerId = "CEE0B0E0-3C1B-4981-BE10-41B2F4187B00";
shapes = (
{
closed = 1;
nodes = (
(491.983,1344,o),
(259.885,1213,o),
(214.392,955,cs),
(174.013,726,o),
(353.209,591,o),
(473.922,544,cs),
(629.342,484,o),
(675.466,445,o),
(667.531,400,cs),
(659.067,352,o),
(620.188,330,o),
(532.188,330,cs),
(407.188,330,o),
(233.821,430,o),
(210.052,454,c),
(-35.901,131,l),
(-9.544,99,o),
(174.768,-24,o),
(469.768,-24,cs),
(749.768,-24,o),
(1013.754,78,o),
(1067.357,382,cs),
(1103.504,587,o),
(956.658,741,o),
(790.709,798,cs),
(647.349,847,o),
(598.049,885,o),
(606.16,931,cs),
(614.624,979,o),
(666.445,995,o),
(740.445,995,cs),
(829.445,995,o),
(934.984,930,o),
(962.752,906,c),
(1200.414,1216,l),
(1175.293,1238,o),
(1014.983,1344,o),
(758.983,1344,cs)
);
},
{
closed = 1;
nodes = (
(1009.196,1642.,l),
(882.519,1867.6,l),
(481.937,1565.2,l),
(557.437,1413.2,l)
);
}
);
width = 1007;
},
{
layerId = "2FCE132C-6D1D-4C23-912A-6327D74CCB4B";
shapes = (
{
closed = 1;
nodes = (
(441.093,1344,o),
(261.267,1228,o),
(228.026,1020,cs),
(197.962,832,o),
(365.842,711,o),
(495.075,647,c),
(549.898,627,o),
(786.954,492,o),
(755.656,351,cs),
(725.417,211,o),
(631.062,137,o),
(437.062,137,cs),
(260.062,137,o),
(131.594,231,o),
(104.124,257,c),
(-5.527,110,l),
(10.473,93,o),
(174.588,-24,o),
(417.588,-24,cs),
(697.588,-24,o),
(894.591,95,o),
(935.126,342,c),
(976.309,566,o),
(690.784,744,o),
(633.902,763,c),
(504.374,822,o),
(382.082,902,o),
(404.496,1011,cs),
(430.558,1131,o),
(523.736,1185,o),
(685.736,1185,cs),
(832.736,1185,o),
(920.323,1110,o),
(945.792,1084,c),
(1049.09,1225,l),
(1033.149,1243,o),
(914.093,1344,o),
(686.093,1344,cs)
);
},
{
closed = 1;
nodes = (
(860.072,1680.4,l),
(776.416,1805.2,l),
(431.632,1554.,l),
(482.506,1469.2,l)
);
}
);
width = 948;
},
{
layerId = "7F612C2A-B309-47B1-B60E-6F95A45BF26D";
shapes = (
{
closed = 1;
nodes = (
(415,1344,o),
(261,1236,o),
(229,1053,cs),
(200,885,o),
(361,771,o),
(497,699,c),
(497,699,o),
(838,516,o),
(804,326,cs),
(771,141,o),
(654,40,o),
(407,40,cs),
(204,40,o),
(98,131,o),
(68,158,c),
(12,99,l),
(21,90,o),
(174,-24,o),
(391,-24,cs),
(672,-24,o),
(834,103,o),
(873,322,cs),
(914,555,o),
(558,746,o),
(558,746,c),
(435,809,o),
(272,911,o),
(297,1051,cs),
(325,1207,o),
(435,1280,o),
(642,1280,cs),
(818,1280,o),
(897,1200,o),
(922,1173,c),
(972,1229,l),
(962,1245,o),
(863,1344,o),
(650,1344,cs)
);
},
{
closed = 1;
nodes = (
(780.003,1699.6,l),
(733.787,1774.8,l),
(408.436,1549.2,l),
(437.689,1498.,l)
);
}
);
width = 919;
}
);
leftKerningGroup = S;
rightKerningGroup = S;
unicode = 346;
},
{
glyphname = Scaron;
layers = (
{
layerId = "CEE0B0E0-3C1B-4981-BE10-41B2F4187B00";
shapes = (
{
closed = 1;
nodes = (
(491.983,1344,o),
(259.885,1213,o),
(214.392,955,cs),
(174.013,726,o),
(353.209,591,o),
(473.922,544,cs),
(629.342,484,o),
(675.466,445,o),
(667.531,400,cs),
(659.067,352,o),
(620.188,330,o),
(532.188,330,cs),
(407.188,330,o),
(233.821,430,o),
(210.052,454,c),
(-35.901,131,l),
(-9.544,99,o),
(174.768,-24,o),
(469.768,-24,cs),
(749.768,-24,o),
(1013.754,78,o),
(1067.357,382,cs),
(1103.504,587,o),
(956.658,741,o),
(790.709,798,cs),
(647.349,847,o),
(598.049,885,o),
(606.16,931,cs),
(614.624,979,o),
(666.445,995,o),
(740.445,995,cs),
(829.445,995,o),
(934.984,930,o),
(962.752,906,c),
(1200.414,1216,l),
(1175.293,1238,o),
(1014.983,1344,o),
(758.983,1344,cs)
);
},
{
closed = 1;
nodes = (
(728.8,1651.,l),
(493.6,1843.,l),
(349.6,1668.6,l),
(682.4,1375.8,l),
(1130.4,1659.,l),
(1007.2,1843.,l)
);
}
);
width = 1007;
},
{
layerId = "2FCE132C-6D1D-4C23-912A-6327D74CCB4B";
shapes = (
{
closed = 1;
nodes = (
(441.093,1344,o),
(261.267,1228,o),
(228.026,1020,cs),
(197.962,832,o),
(365.842,711,o),
(495.075,647,c),
(549.898,627,o),
(786.954,492,o),
(755.656,351,cs),
(725.417,211,o),
(631.062,137,o),
(437.062,137,cs),
(260.062,137,o),
(131.594,231,o),
(104.124,257,c),
(-5.527,110,l),
(10.473,93,o),
(174.588,-24,o),
(417.588,-24,cs),
(697.588,-24,o),
(894.591,95,o),
(935.126,342,c),
(976.309,566,o),
(690.784,744,o),
(633.902,763,c),
(504.374,822,o),
(382.082,902,o),
(404.496,1011,cs),
(430.558,1131,o),
(523.736,1185,o),
(685.736,1185,cs),
(832.736,1185,o),
(920.323,1110,o),
(945.792,1084,c),
(1049.09,1225,l),
(1033.149,1243,o),
(914.093,1344,o),
(686.093,1344,cs)
);
},
{
closed = 1;
nodes = (
(636.2,1636.8,l),
(423.4,1798.4,l),
(348.2,1712.,l),
(613.8,1478.4,l),
(949.8,1705.6,l),
(890.6,1798.4,l)
);
}
);
width = 948;
},
{
layerId = "7F612C2A-B309-47B1-B60E-6F95A45BF26D";
shapes = (
{
closed = 1;
nodes = (
(415,1344,o),
(261,1236,o),
(229,1053,cs),
(200,885,o),
(361,771,o),
(497,699,c),
(497,699,o),
(838,516,o),
(804,326,cs),
(771,141,o),
(654,40,o),
(407,40,cs),
(204,40,o),
(98,131,o),
(68,158,c),
(12,99,l),
(21,90,o),
(174,-24,o),
(391,-24,cs),
(672,-24,o),
(834,103,o),
(873,322,cs),
(914,555,o),
(558,746,o),
(558,746,c),
(435,809,o),
(272,911,o),
(297,1051,cs),
(325,1207,o),
(435,1280,o),
(642,1280,cs),
(818,1280,o),
(897,1200,o),
(922,1173,c),
(972,1229,l),
(962,1245,o),
(863,1344,o),
(650,1344,cs)
);
},
{
closed = 1;
nodes = (
(590.4,1630.,l),
(388.8,1775.6,l),
(348.8,1732.4,l),
(580.8,1529.2,l),
(860.8,1727.6,l),
(833.6,1775.6,l)
);
}
);
width = 919;
}
);
leftKerningGroup = S;
rightKerningGroup = S;
unicode = 352;
},
{
glyphname = Scedilla;
layers = (
{
layerId = "CEE0B0E0-3C1B-4981-BE10-41B2F4187B00";
shapes = (
{
closed = 1;
nodes = (
(491.983,1344,o),
(259.885,1213,o),
(214.392,955,cs),
(174.013,726,o),
(353.209,591,o),
(473.922,544,cs),
(629.342,484,o),
(675.466,445,o),
(667.531,400,cs),
(659.067,352,o),
(620.188,330,o),
(532.188,330,cs),
(407.188,330,o),
(233.821,430,o),
(210.052,454,c),
(-35.901,131,l),
(-9.544,99,o),
(174.768,-24,o),
(469.768,-24,cs),
(749.768,-24,o),
(1013.754,78,o),
(1067.357,382,cs),
(1103.504,587,o),
(956.658,741,o),
(790.709,798,cs),
(647.349,847,o),
(598.049,885,o),
(606.16,931,cs),
(614.624,979,o),
(666.445,995,o),
(740.445,995,cs),
(829.445,995,o),
(934.984,930,o),
(962.752,906,c),
(1200.414,1216,l),
(1175.293,1238,o),
(1014.983,1344,o),
(758.983,1344,cs)
);
},
{
closed = 1;
nodes = (
(329.,-176.,l),
(367.4,-203.2,l),
(377.,-196.8,o),
(394.6,-193.6,o),
(417.,-193.6,cs),
(460.2,-193.6,o),
(517.8,-206.4,o),
(508.2,-240.,c),
(500.2,-278.4,o),
(466.6,-292.8,o),
(428.2,-292.8,cs),
(385.,-292.8,o),
(330.6,-273.6,o),
(295.4,-240.,c),
(199.4,-369.6,l),
(263.4,-408.,o),
(348.2,-430.4,o),
(429.8,-430.4,cs),
(561.,-430.4,o),
(685.8,-376.,o),
(706.6,-257.6,c),
(725.8,-168.,o),
(652.2,-80.,o),
(485.8,-88.,c),
(537.,22.4,l),
(436.2,60.8,l)
);
}
);
width = 1048;
},
{
layerId = "2FCE132C-6D1D-4C23-912A-6327D74CCB4B";
shapes = (
{
closed = 1;
nodes = (
(441.093,1344,o),
(261.267,1228,o),
(228.026,1020,cs),
(197.962,832,o),
(365.842,711,o),
(495.075,647,c),
(549.898,627,o),
(786.954,492,o),
(755.656,351,cs),
(725.417,211,o),
(631.062,137,o),
(437.062,137,cs),
(260.062,137,o),
(131.594,231,o),
(104.124,257,c),
(-5.527,110,l),
(10.473,93,o),
(174.588,-24,o),
(417.588,-24,cs),
(697.588,-24,o),
(894.591,95,o),
(935.126,342,c),
(976.309,566,o),
(690.784,744,o),
(633.902,763,c),
(504.374,822,o),
(382.082,902,o),
(404.496,1011,cs),
(430.558,1131,o),
(523.736,1185,o),
(685.736,1185,cs),
(832.736,1185,o),
(920.323,1110,o),
(945.792,1084,c),
(1049.09,1225,l),
(1033.149,1243,o),
(914.093,1344,o),
(686.093,1344,cs)
);
},
{
closed = 1;
nodes = (
(268.2,-177.6,l),
(306.6,-201.6,l),
(329.,-193.6,o),
(353.,-188.8,o),
(375.4,-188.8,cs),
(433.,-188.8,o),
(479.4,-217.6,o),
(469.8,-264.,cs),
(460.2,-316.8,o),
(410.6,-340.8,o),
(351.4,-340.8,cs),
(303.4,-340.8,o),
(245.8,-323.2,o),
(205.8,-289.6,c),
(143.4,-368.,l),
(196.2,-416.,o),
(273.,-438.4,o),
(348.2,-438.4,cs),
(466.6,-438.4,o),
(585.,-379.2,o),
(601.,-262.4,cs),
(612.2,-179.2,o),
(557.8,-104.,o),
(397.8,-118.4,c),
(457.,14.4,l),
(388.2,46.4,l)
);
}
);
width = 958;
},
{
layerId = "7F612C2A-B309-47B1-B60E-6F95A45BF26D";
shapes = (
{
closed = 1;
nodes = (
(415,1344,o),
(261,1236,o),
(229,1053,cs),
(200,885,o),
(361,771,o),
(497,699,c),
(497,699,o),
(838,516,o),
(804,326,cs),
(771,141,o),
(654,40,o),
(407,40,cs),
(204,40,o),
(98,131,o),
(68,158,c),
(12,99,l),
(21,90,o),
(174,-24,o),
(391,-24,cs),
(672,-24,o),
(834,103,o),
(873,322,cs),
(914,555,o),
(558,746,o),
(558,746,c),
(435,809,o),
(272,911,o),
(297,1051,cs),
(325,1207,o),
(435,1280,o),
(642,1280,cs),
(818,1280,o),
(897,1200,o),
(922,1173,c),
(972,1229,l),
(962,1245,o),
(863,1344,o),
(650,1344,cs)
);
},
{
closed = 1;
nodes = (
(237.8,-177.6,l),
(276.2,-201.6,l),
(305.,-192.,o),
(332.2,-185.6,o),
(354.6,-185.6,cs),
(420.2,-185.6,o),
(460.2,-222.4,o),
(450.6,-275.2,cs),
(439.4,-336.,o),
(381.8,-364.8,o),
(313.,-364.8,cs),
(261.8,-364.8,o),
(204.2,-347.2,o),
(161.,-313.6,c),
(114.6,-368.,l),
(162.6,-419.2,o),
(236.2,-443.2,o),
(306.6,-443.2,cs),
(420.2,-443.2,o),
(533.8,-380.8,o),
(548.2,-265.6,c),
(556.2,-184.,o),
(509.8,-115.2,o),
(354.6,-132.8,c),
(417.,11.2,l),
(364.2,38.4,l)
);
}
);
width = 913;
}
);
leftKerningGroup = S;
rightKerningGroup = S;
unicode = 350;
},
{
glyphname = Scommaaccent;
layers = (
{
layerId = "CEE0B0E0-3C1B-4981-BE10-41B2F4187B00";
shapes = (
{
closed = 1;
nodes = (
(491.983,1344,o),
(259.885,1213,o),
(214.392,955,cs),
(174.013,726,o),
(353.209,591,o),
(473.922,544,cs),
(629.342,484,o),
(675.466,445,o),
(667.531,400,cs),
(659.067,352,o),
(620.188,330,o),
(532.188,330,cs),
(407.188,330,o),
(233.821,430,o),
(210.052,454,c),
(-35.901,131,l),
(-9.544,99,o),
(174.768,-24,o),
(469.768,-24,cs),
(749.768,-24,o),
(1013.754,78,o),
(1067.357,382,cs),
(1103.504,587,o),
(956.658,741,o),
(790.709,798,cs),
(647.349,847,o),
(598.049,885,o),
(606.16,931,cs),
(614.624,979,o),
(666.445,995,o),
(740.445,995,cs),
(829.445,995,o),
(934.984,930,o),
(962.752,906,c),
(1200.414,1216,l),
(1175.293,1238,o),
(1014.983,1344,o),
(758.983,1344,cs)
);
},
{
closed = 1;
nodes = (
(378.065,-50.083,o),
(296.701,-117.242,o),
(282.494,-202.481,cs),
(268.288,-290.303,o),
(312.199,-351.004,o),
(370.316,-372.959,c),
(314.782,-499.527,o),
(220.502,-602.847,o),
(220.502,-602.847,c),
(301.867,-664.839,l),
(441.349,-556.353,o),
(589.872,-412.996,o),
(618.285,-243.809,cs),
(637.658,-137.906,o),
(566.625,-50.083,o),
(462.013,-50.083,cs)
);
}
);
width = 1163;
},
{
layerId = "2FCE132C-6D1D-4C23-912A-6327D74CCB4B";
shapes = (
{
closed = 1;
nodes = (
(441.093,1344,o),
(261.267,1228,o),
(228.026,1020,cs),
(197.962,832,o),
(365.842,711,o),
(495.075,647,c),
(549.898,627,o),
(786.954,492,o),
(755.656,351,cs),
(725.417,211,o),
(631.062,137,o),
(437.062,137,cs),
(260.062,137,o),
(131.594,231,o),
(104.124,257,c),
(-5.527,110,l),
(10.473,93,o),
(174.588,-24,o),
(417.588,-24,cs),
(697.588,-24,o),
(894.591,95,o),
(935.126,342,c),
(976.309,566,o),
(690.784,744,o),
(633.902,763,c),
(504.374,822,o),
(382.082,902,o),
(404.496,1011,cs),
(430.558,1131,o),
(523.736,1185,o),
(685.736,1185,cs),
(832.736,1185,o),
(920.323,1110,o),
(945.792,1084,c),
(1049.09,1225,l),
(1033.149,1243,o),
(914.093,1344,o),
(686.093,1344,cs)
);
},
{
closed = 1;
nodes = (
(341.642,-74.323,o),
(289.951,-117.189,o),
(279.865,-176.444,cs),
(268.519,-234.438,o),
(311.384,-289.911,o),
(374.422,-276.043,c),
(337.86,-361.774,o),
(239.521,-424.811,o),
(239.521,-424.811,c),
(291.212,-465.155,l),
(383.247,-408.422,o),
(477.803,-315.126,o),
(499.236,-199.137,cs),
(513.104,-129.796,o),
(467.717,-74.323,o),
(398.376,-74.323,cs)
);
}
);
width = 1056;
},
{
layerId = "7F612C2A-B309-47B1-B60E-6F95A45BF26D";
shapes = (
{
closed = 1;
nodes = (
(415,1344,o),
(261,1236,o),
(229,1053,cs),
(200,885,o),
(361,771,o),
(497,699,c),
(497,699,o),
(838,516,o),
(804,326,cs),
(771,141,o),
(654,40,o),
(407,40,cs),
(204,40,o),
(98,131,o),
(68,158,c),
(12,99,l),
(21,90,o),
(174,-24,o),
(391,-24,cs),
(672,-24,o),
(834,103,o),
(873,322,cs),
(914,555,o),
(558,746,o),
(558,746,c),
(435,809,o),
(272,911,o),
(297,1051,cs),
(325,1207,o),
(435,1280,o),
(642,1280,cs),
(818,1280,o),
(897,1200,o),
(922,1173,c),
(972,1229,l),
(962,1245,o),
(863,1344,o),
(650,1344,cs)
);
},
{
closed = 1;
nodes = (
(323.929,-84.239,o),
(287.814,-115.372,o),
(279.096,-161.45,c),
(269.134,-205.037,o),
(311.475,-257.342,o),
(376.233,-227.453,c),
(350.081,-292.211,o),
(249.208,-335.798,o),
(249.208,-335.798,c),
(286.568,-366.932,l),
(355.062,-334.553,o),
(423.556,-266.059,o),
(442.236,-175.149,cs),
(453.445,-124.09,o),
(419.82,-84.239,o),
(368.761,-84.239,cs)
);
}
);
width = 1003;
}
);
leftKerningGroup = S;
rightKerningGroup = S;
unicode = 536;
},
{
color = 1;
glyphname = Germandbls;
leftMetricsKey = E;
layers = (
{
layerId = "ABFFB836-232B-46F4-9BE6-ADD19C5F8D5E";
name = "BoldItalicItalic.Mar 3 18, 12:14";
shapes = (
{
closed = 1;
nodes = (
(377.6,0,l),
(451.2,-17.6,o),
(529.6,-27.2,o),
(606.4,-27.2,cs),
(857.6,-27.2,o),
(1096.,76.8,o),
(1145.6,352.,cs),
(1203.2,668.8,o),
(1020.8,764.8,o),
(843.2,771.2,c),
(1105.6,1057.6,l),
(1156.8,1300.8,l),
(1025.6,1337.6,o),
(881.6,1350.4,o),
(774.4,1350.4,cs),
(433.6,1350.4,o),
(195.2,1222.4,o),
(142.4,923.2,cs),
(-20.8,0,l),
(276.8,0,l),
(416.,790.4,ls),
(452.8,996.8,o),
(524.8,1096.,o),
(680.,1096.,cs),
(715.2,1096.,o),
(756.8,1094.4,o),
(796.8,1086.4,c),
(558.4,776.,l),
(520.,539.2,l),
(758.4,561.6,o),
(857.6,504.,o),
(838.4,374.4,cs),
(822.4,270.4,o),
(744.,228.8,o),
(625.6,228.8,cs),
(566.4,228.8,o),
(497.6,240.,o),
(420.8,257.6,c)
);
}
);
width = 1179;
},
{
layerId = "CEE0B0E0-3C1B-4981-BE10-41B2F4187B00";
shapes = (
{
closed = 1;
nodes = (
(496.4,-9.6,l),
(566.8,-24.,o),
(643.6,-30.4,o),
(720.4,-30.4,cs),
(981.2,-30.4,o),
(1230.8,65.6,o),
(1280.4,344.,cs),
(1339.6,665.6,o),
(1158.8,748.8,o),
(997.2,761.6,c),
(1230.8,992.,l),
(1290.,1297.6,l),
(1158.8,1337.6,o),
(1002.,1350.4,o),
(894.8,1350.4,cs),
(536.4,1350.4,o),
(280.4,1222.4,o),
(227.6,939.2,cs),
(56.4,0,l),
(442.,0,l),
(584.4,771.2,ls),
(613.2,920.,o),
(656.4,1030.4,o),
(794.,1030.4,cs),
(810.,1030.4,o),
(829.2,1028.8,o),
(851.6,1027.2,c),
(650.,782.4,l),
(608.4,513.6,l),
(802.,529.6,o),
(904.4,475.2,o),
(893.2,382.4,cs),
(885.2,313.6,o),
(814.8,288.,o),
(744.4,288.,cs),
(690.,288.,o),
(624.4,299.2,o),
(550.8,313.6,c)
);
}
);
width = 1306;
},
{
layerId = "2FCE132C-6D1D-4C23-912A-6327D74CCB4B";
shapes = (
{
closed = 1;
nodes = (
(382.4,14.4,l),
(459.2,-9.6,o),
(539.2,-22.4,o),
(616.,-22.4,cs),
(856.,-22.4,o),
(1073.6,91.2,o),
(1123.2,364.8,cs),
(1179.2,673.6,o),
(963.2,760.,o),
(764.8,747.2,c),
(1110.4,1160.,l),
(1139.2,1305.6,l),
(1009.6,1336.,o),
(881.6,1352.,o),
(777.6,1352.,cs),
(459.2,1352.,o),
(246.4,1220.8,o),
(193.6,900.8,cs),
(41.6,0,l),
(222.4,0,l),
(352.,817.6,ls),
(396.8,1102.4,o),
(526.4,1208.,o),
(750.4,1208.,cs),
(808.,1208.,o),
(868.8,1200.,o),
(936.,1184.,c),
(598.4,768.,l),
(572.8,617.6,l),
(872.,646.4,o),
(977.6,563.2,o),
(947.2,380.8,cs),
(921.6,232.,o),
(808.,131.2,o),
(624.,131.2,cs),
(560.,131.2,o),
(486.4,142.4,o),
(404.8,166.4,c)
);
}
);
width = 1172;
},
{
layerId = "7F612C2A-B309-47B1-B60E-6F95A45BF26D";
shapes = (
{
closed = 1;
nodes = (
(320.6,25.6,l),
(400.6,-1.6,o),
(482.2,-17.6,o),
(560.6,-17.6,cs),
(789.4,-17.6,o),
(991.,104.,o),
(1040.6,374.4,cs),
(1095.,676.8,o),
(861.4,764.8,o),
(645.4,739.2,c),
(1047.,1243.2,l),
(1059.8,1308.8,l),
(931.8,1336.,o),
(818.2,1352.,o),
(714.2,1352.,cs),
(416.6,1352.,o),
(224.6,1220.8,o),
(171.8,881.6,cs),
(31.,0,l),
(107.8,0,l),
(231.,840.,ls),
(283.8,1193.6,o),
(458.2,1296.,o),
(725.4,1296.,cs),
(802.2,1296.,o),
(885.4,1284.8,o),
(975.,1262.4,c),
(568.6,760.,l),
(551.,668.8,l),
(903.,705.6,o),
(1010.2,606.4,o),
(970.2,380.8,cs),
(936.6,190.4,o),
(800.6,52.8,o),
(560.6,52.8,cs),
(491.8,52.8,o),
(413.4,64.,o),
(327.,92.8,c)
);
}
);
width = 1101;
}
);
leftKerningGroup = N;
rightKerningGroup = d;
unicode = 7838;
},
{
color = 1;
glyphname = T;
layers = (
{
layerId = "CEE0B0E0-3C1B-4981-BE10-41B2F4187B00";
shapes = (
{
closed = 1;
nodes = (
(204.8,0,l),
(598.4,0,l),
(782.4,979.2,l),
(1065.6,979.2,l),
(1126.4,1320.,l),
(166.4,1320.,l),
(107.2,979.2,l),
(390.4,979.2,l)
);
}
);
width = 974;
},
{
layerId = "2FCE132C-6D1D-4C23-912A-6327D74CCB4B";
shapes = (
{
closed = 1;
nodes = (
(299.2,0,l),
(472.,0,l),
(664.,1161.6,l),
(1019.2,1161.6,l),
(1048.,1320.,l),
(161.6,1320.,l),
(134.4,1161.6,l),
(491.2,1161.6,l)
);
}
);
width = 889;
},
{
layerId = "7F612C2A-B309-47B1-B60E-6F95A45BF26D";
shapes = (
{
closed = 1;
nodes = (
(345.6,0,l),
(409.6,0,l),
(604.8,1252.8,l),
(996.8,1252.8,l),
(1008.,1320.,l),
(158.4,1320.,l),
(147.2,1252.8,l),
(540.8,1252.8,l)
);
}
);
width = 847;
}
);
leftKerningGroup = T;
rightKerningGroup = T;
unicode = 84;
},
{
glyphname = Tbar;
layers = (
{
layerId = "CEE0B0E0-3C1B-4981-BE10-41B2F4187B00";
shapes = (
{
closed = 1;
nodes = (
(115.2,515.2,l),
(894.4,515.2,l),
(939.2,764.8,l),
(160.,764.8,l)
);
},
{
closed = 1;
nodes = (
(203.8,0,l),
(597.4,0,l),
(781.4,979.2,l),
(1064.6,979.2,l),
(1125.4,1320.,l),
(165.4,1320.,l),
(106.2,979.2,l),
(389.4,979.2,l)
);
}
);
width = 984;
},
{
layerId = "2FCE132C-6D1D-4C23-912A-6327D74CCB4B";
shapes = (
{
closed = 1;
nodes = (
(131.2,604.8,l),
(841.6,604.8,l),
(862.4,731.2,l),
(152.,731.2,l)
);
},
{
closed = 1;
nodes = (
(300.2,0,l),
(473.,0,l),
(665.,1161.6,l),
(1020.2,1161.6,l),
(1049.,1320.,l),
(162.6,1320.,l),
(135.4,1161.6,l),
(492.2,1161.6,l)
);
}
);
width = 913;
},
{
layerId = "7F612C2A-B309-47B1-B60E-6F95A45BF26D";
shapes = (
{
closed = 1;
nodes = (
(139.2,649.6,l),
(814.4,649.6,l),
(824.,715.2,l),
(148.8,715.2,l)
);
},
{
closed = 1;
nodes = (
(347.6,0,l),
(411.6,0,l),
(606.8,1252.8,l),
(998.8,1252.8,l),
(1010.,1320.,l),
(160.4,1320.,l),
(149.2,1252.8,l),
(542.8,1252.8,l)
);
}
);
width = 877;
}
);
leftKerningGroup = T;
rightKerningGroup = T;
unicode = 358;
},
{
glyphname = Tcaron;
layers = (
{
layerId = "CEE0B0E0-3C1B-4981-BE10-41B2F4187B00";
shapes = (
{
closed = 1;
nodes = (
(204.8,0,l),
(598.4,0,l),
(782.4,979.2,l),
(1065.6,979.2,l),
(1126.4,1320.,l),
(166.4,1320.,l),
(107.2,979.2,l),
(390.4,979.2,l)
);
},
{
closed = 1;
nodes = (
(727.8,1651.,l),
(492.6,1843.,l),
(348.6,1668.6,l),
(681.4,1375.8,l),
(1129.4,1659.,l),
(1006.2,1843.,l)
);
}
);
width = 982;
},
{
layerId = "2FCE132C-6D1D-4C23-912A-6327D74CCB4B";
shapes = (
{
closed = 1;
nodes = (
(299.2,0,l),
(472.,0,l),
(664.,1161.6,l),
(1019.2,1161.6,l),
(1048.,1320.,l),
(161.6,1320.,l),
(134.4,1161.6,l),
(491.2,1161.6,l)
);
},
{
closed = 1;
nodes = (
(642.2,1636.8,l),
(429.4,1798.4,l),
(354.2,1712.,l),
(619.8,1478.4,l),
(955.8,1705.6,l),
(896.6,1798.4,l)
);
}
);
width = 911;
},
{
layerId = "7F612C2A-B309-47B1-B60E-6F95A45BF26D";
shapes = (
{
closed = 1;
nodes = (
(345.6,0,l),
(409.6,0,l),
(604.8,1252.8,l),
(996.8,1252.8,l),
(1008.,1320.,l),
(158.4,1320.,l),
(147.2,1252.8,l),
(540.8,1252.8,l)
);
},
{
closed = 1;
nodes = (
(599.4,1630.,l),
(397.8,1775.6,l),
(357.8,1732.4,l),
(589.8,1529.2,l),
(869.8,1727.6,l),
(842.6,1775.6,l)
);
}
);
width = 876;
}
);
leftKerningGroup = T;
rightKerningGroup = T;
unicode = 356;
},
{
glyphname = Tcedilla;
layers = (
{
layerId = "CEE0B0E0-3C1B-4981-BE10-41B2F4187B00";
shapes = (
{
closed = 1;
nodes = (
(204.8,0,l),
(598.4,0,l),
(782.4,979.2,l),
(1065.6,979.2,l),
(1126.4,1320.,l),
(166.4,1320.,l),
(107.2,979.2,l),
(390.4,979.2,l)
);
},
{
closed = 1;
nodes = (
(322.,-176.,l),
(360.4,-203.2,l),
(370.,-196.8,o),
(387.6,-193.6,o),
(410.,-193.6,cs),
(453.2,-193.6,o),
(510.8,-206.4,o),
(501.2,-240.,c),
(493.2,-278.4,o),
(459.6,-292.8,o),
(421.2,-292.8,cs),
(378.,-292.8,o),
(323.6,-273.6,o),
(288.4,-240.,c),
(192.4,-369.6,l),
(256.4,-408.,o),
(341.2,-430.4,o),
(422.8,-430.4,cs),
(554.,-430.4,o),
(678.8,-376.,o),
(699.6,-257.6,c),
(718.8,-168.,o),
(645.2,-80.,o),
(478.8,-88.,c),
(530.,22.4,l),
(429.2,60.8,l)
);
}
);
width = 974;
},
{
layerId = "2FCE132C-6D1D-4C23-912A-6327D74CCB4B";
shapes = (
{
closed = 1;
nodes = (
(299.2,0,l),
(472.,0,l),
(664.,1161.6,l),
(1019.2,1161.6,l),
(1048.,1320.,l),
(161.6,1320.,l),
(134.4,1161.6,l),
(491.2,1161.6,l)
);
},
{
closed = 1;
nodes = (
(258.2,-177.6,l),
(296.6,-201.6,l),
(319.,-193.6,o),
(343.,-188.8,o),
(365.4,-188.8,cs),
(423.,-188.8,o),
(469.4,-217.6,o),
(459.8,-264.,cs),
(450.2,-316.8,o),
(400.6,-340.8,o),
(341.4,-340.8,cs),
(293.4,-340.8,o),
(235.8,-323.2,o),
(195.8,-289.6,c),
(133.4,-368.,l),
(186.2,-416.,o),
(263.,-438.4,o),
(338.2,-438.4,cs),
(456.6,-438.4,o),
(575.,-379.2,o),
(591.,-262.4,cs),
(602.2,-179.2,o),
(547.8,-104.,o),
(387.8,-118.4,c),
(447.,14.4,l),
(378.2,46.4,l)
);
}
);
width = 889;
},
{
layerId = "7F612C2A-B309-47B1-B60E-6F95A45BF26D";
shapes = (
{
closed = 1;
nodes = (
(345.6,0,l),
(409.6,0,l),
(604.8,1252.8,l),
(996.8,1252.8,l),
(1008.,1320.,l),
(158.4,1320.,l),
(147.2,1252.8,l),
(540.8,1252.8,l)
);
},
{
closed = 1;
nodes = (
(225.8,-177.6,l),
(264.2,-201.6,l),
(293.,-192.,o),
(320.2,-185.6,o),
(342.6,-185.6,cs),
(408.2,-185.6,o),
(448.2,-222.4,o),
(438.6,-275.2,cs),
(427.4,-336.,o),
(369.8,-364.8,o),
(301.,-364.8,cs),
(249.8,-364.8,o),
(192.2,-347.2,o),
(149.,-313.6,c),
(102.6,-368.,l),
(150.6,-419.2,o),
(224.2,-443.2,o),
(294.6,-443.2,cs),
(408.2,-443.2,o),
(521.8,-380.8,o),
(536.2,-265.6,c),
(544.2,-184.,o),
(497.8,-115.2,o),
(342.6,-132.8,c),
(405.,11.2,l),
(352.2,38.4,l)
);
}
);
width = 847;
}
);
leftKerningGroup = T;
rightKerningGroup = T;
unicode = 354;
},
{
glyphname = U;
layers = (
{
anchors = (
{
name = bottom;
position = "{644, 0}";
},
{
name = ogonek;
position = "{1218, 16}";
},
{
name = top;
position = "{876, 1320}";
},
{
name = topright;
position = "{1437, 1320}";
}
);
layerId = "CEE0B0E0-3C1B-4981-BE10-41B2F4187B00";
shapes = (
{
closed = 1;
nodes = (
(923.2,705.6,ls),
(872.,428.8,o),
(816.,329.6,o),
(696.,329.6,cs),
(564.8,329.6,o),
(548.8,446.4,o),
(598.4,675.2,c),
(718.4,1320.,l),
(300.8,1320.,l),
(160.,563.2,ls),
(99.2,232.,o),
(286.4,-24.,o),
(654.4,-24.,cs),
(1000.,-24.,o),
(1251.2,206.4,o),
(1310.4,532.8,cs),
(1456.,1320.,l),
(1038.4,1320.,l)
);
}
);
width = 1429;
},
{
anchors = (
{
name = bottom;
position = "{507, 0}";
},
{
name = ogonek;
position = "{973, 16}";
},
{
name = top;
position = "{739, 1320}";
},
{
name = topright;
position = "{1185, 1320}";
}
);
layerId = "2FCE132C-6D1D-4C23-912A-6327D74CCB4B";
shapes = (
{
closed = 1;
nodes = (
(892.8,531.2,ls),
(856.,310.4,o),
(740.8,137.6,o),
(536.,137.6,cs),
(348.8,137.6,o),
(275.2,288.,o),
(315.2,520.,cs),
(446.4,1320.,l),
(267.2,1320.,l),
(134.4,516.8,ls),
(81.6,198.4,o),
(206.4,-24.,o),
(523.2,-24.,cs),
(822.4,-24.,o),
(1012.8,179.2,o),
(1068.8,505.6,cs),
(1201.6,1320.,l),
(1022.4,1320.,l)
);
}
);
width = 1157;
},
{
anchors = (
{
name = bottom;
position = "{439, 0}";
},
{
name = ogonek;
position = "{850, 16}";
},
{
name = top;
position = "{671, 1320}";
},
{
name = topright;
position = "{1059, 1320}";
}
);
layerId = "7F612C2A-B309-47B1-B60E-6F95A45BF26D";
shapes = (
{
closed = 1;
nodes = (
(876.8,444.8,ls),
(848.,251.2,o),
(704.,41.6,o),
(456.,41.6,cs),
(240.,41.6,o),
(139.2,208.,o),
(172.8,443.2,cs),
(310.4,1320.,l),
(249.6,1320.,l),
(121.6,494.4,ls),
(72.,180.8,o),
(166.4,-24.,o),
(457.6,-24.,cs),
(732.8,-24.,o),
(894.4,166.4,o),
(947.2,492.8,cs),
(1075.2,1320.,l),
(1014.4,1320.,l)
);
}
);
width = 1021;
}
);
rightKerningGroup = d;
unicode = 85;
},
{
glyphname = Uacute;
leftMetricsKey = U;
rightMetricsKey = U;
layers = (
{
layerId = "CEE0B0E0-3C1B-4981-BE10-41B2F4187B00";
shapes = (
{
closed = 1;
nodes = (
(923.2,705.6,ls),
(872.,428.8,o),
(816.,329.6,o),
(696.,329.6,cs),
(564.8,329.6,o),
(548.8,446.4,o),
(598.4,675.2,c),
(718.4,1320.,l),
(300.8,1320.,l),
(160.,563.2,ls),
(99.2,232.,o),
(286.4,-24.,o),
(654.4,-24.,cs),
(1000.,-24.,o),
(1251.2,206.4,o),
(1310.4,532.8,cs),
(1456.,1320.,l),
(1038.4,1320.,l)
);
},
{
closed = 1;
nodes = (
(1219.196,1643.,l),
(1092.519,1868.6,l),
(691.937,1566.2,l),
(767.437,1414.2,l)
);
}
);
width = 1429;
},
{
layerId = "2FCE132C-6D1D-4C23-912A-6327D74CCB4B";
shapes = (
{
closed = 1;
nodes = (
(892.8,531.2,ls),
(856.,310.4,o),
(740.8,137.6,o),
(536.,137.6,cs),
(348.8,137.6,o),
(275.2,288.,o),
(315.2,520.,cs),
(446.4,1320.,l),
(267.2,1320.,l),
(134.4,516.8,ls),
(81.6,198.4,o),
(206.4,-24.,o),
(523.2,-24.,cs),
(822.4,-24.,o),
(1012.8,179.2,o),
(1068.8,505.6,cs),
(1201.6,1320.,l),
(1022.4,1320.,l)
);
},
{
closed = 1;
nodes = (
(986.072,1681.4,l),
(902.416,1806.2,l),
(557.632,1555.,l),
(608.506,1470.2,l)
);
}
);
width = 1157;
},
{
layerId = "7F612C2A-B309-47B1-B60E-6F95A45BF26D";
shapes = (
{
closed = 1;
nodes = (
(876.8,444.8,ls),
(848.,251.2,o),
(704.,41.6,o),
(456.,41.6,cs),
(240.,41.6,o),
(139.2,208.,o),
(172.8,443.2,cs),
(310.4,1320.,l),
(249.6,1320.,l),
(121.6,494.4,ls),
(72.,180.8,o),
(166.4,-24.,o),
(457.6,-24.,cs),
(732.8,-24.,o),
(894.4,166.4,o),
(947.2,492.8,cs),
(1075.2,1320.,l),
(1014.4,1320.,l)
);
},
{
closed = 1;
nodes = (
(863.003,1700.6,l),
(816.787,1775.8,l),
(491.436,1550.2,l),
(520.689,1499.,l)
);
}
);
width = 1021;
}
);
rightKerningGroup = d;
unicode = 218;
},
{
glyphname = Ucircumflex;
leftMetricsKey = U;
rightMetricsKey = U;
layers = (
{
layerId = "CEE0B0E0-3C1B-4981-BE10-41B2F4187B00";
shapes = (
{
closed = 1;
nodes = (
(923.2,705.6,ls),
(872.,428.8,o),
(816.,329.6,o),
(696.,329.6,cs),
(564.8,329.6,o),
(548.8,446.4,o),
(598.4,675.2,c),
(718.4,1320.,l),
(300.8,1320.,l),
(160.,563.2,ls),
(99.2,232.,o),
(286.4,-24.,o),
(654.4,-24.,cs),
(1000.,-24.,o),
(1251.2,206.4,o),
(1310.4,532.8,cs),
(1456.,1320.,l),
(1038.4,1320.,l)
);
},
{
closed = 1;
nodes = (
(920.,1581.6,l),
(1156.8,1389.6,l),
(1299.2,1564.,l),
(961.6,1856.8,l),
(520.,1573.6,l),
(643.2,1389.6,l)
);
}
);
width = 1429;
},
{
layerId = "2FCE132C-6D1D-4C23-912A-6327D74CCB4B";
shapes = (
{
closed = 1;
nodes = (
(892.8,531.2,ls),
(856.,310.4,o),
(740.8,137.6,o),
(536.,137.6,cs),
(348.8,137.6,o),
(275.2,288.,o),
(315.2,520.,cs),
(446.4,1320.,l),
(267.2,1320.,l),
(134.4,516.8,ls),
(81.6,198.4,o),
(206.4,-24.,o),
(523.2,-24.,cs),
(822.4,-24.,o),
(1012.8,179.2,o),
(1068.8,505.6,cs),
(1201.6,1320.,l),
(1022.4,1320.,l)
);
},
{
closed = 1;
nodes = (
(782.6,1659.4,l),
(992.2,1499.4,l),
(1065.8,1585.8,l),
(806.6,1817.8,l),
(465.8,1590.6,l),
(525.,1499.4,l)
);
}
);
width = 1157;
},
{
layerId = "7F612C2A-B309-47B1-B60E-6F95A45BF26D";
shapes = (
{
closed = 1;
nodes = (
(876.8,444.8,ls),
(848.,251.2,o),
(704.,41.6,o),
(456.,41.6,cs),
(240.,41.6,o),
(139.2,208.,o),
(172.8,443.2,cs),
(310.4,1320.,l),
(249.6,1320.,l),
(121.6,494.4,ls),
(72.,180.8,o),
(166.4,-24.,o),
(457.6,-24.,cs),
(732.8,-24.,o),
(894.4,166.4,o),
(947.2,492.8,cs),
(1075.2,1320.,l),
(1014.4,1320.,l)
);
},
{
closed = 1;
nodes = (
(714.4,1699.6,l),
(911.2,1554.,l),
(949.6,1597.2,l),
(730.4,1798.8,l),
(439.2,1600.4,l),
(466.4,1554.,l)
);
}
);
width = 1021;
}
);
rightKerningGroup = d;
unicode = 219;
},
{
glyphname = Udieresis;
leftMetricsKey = U;
rightMetricsKey = U;
layers = (
{
layerId = "CEE0B0E0-3C1B-4981-BE10-41B2F4187B00";
shapes = (
{
closed = 1;
nodes = (
(923.2,705.6,ls),
(872.,428.8,o),
(816.,329.6,o),
(696.,329.6,cs),
(564.8,329.6,o),
(548.8,446.4,o),
(598.4,675.2,c),
(718.4,1320.,l),
(300.8,1320.,l),
(160.,563.2,ls),
(99.2,232.,o),
(286.4,-24.,o),
(654.4,-24.,cs),
(1000.,-24.,o),
(1251.2,206.4,o),
(1310.4,532.8,cs),
(1456.,1320.,l),
(1038.4,1320.,l)
);
},
{
closed = 1;
nodes = (
(543.367,1483.4,o),
(601.29,1405.,o),
(698.89,1405.,cs),
(796.49,1405.,o),
(895.367,1483.4,o),
(920.859,1581.,cs),
(946.351,1678.6,o),
(888.428,1757.,o),
(790.828,1757.,cs),
(693.228,1757.,o),
(594.351,1678.6,o),
(568.859,1581.,cs)
);
},
{
closed = 1;
nodes = (
(919.367,1483.4,o),
(977.29,1405.,o),
(1074.89,1405.,cs),
(1172.49,1405.,o),
(1271.367,1483.4,o),
(1296.859,1581.,cs),
(1322.351,1678.6,o),
(1264.428,1757.,o),
(1166.828,1757.,cs),
(1069.228,1757.,o),
(970.351,1678.6,o),
(944.859,1581.,cs)
);
}
);
width = 1429;
},
{
layerId = "2FCE132C-6D1D-4C23-912A-6327D74CCB4B";
shapes = (
{
closed = 1;
nodes = (
(892.8,531.2,ls),
(856.,310.4,o),
(740.8,137.6,o),
(536.,137.6,cs),
(348.8,137.6,o),
(275.2,288.,o),
(315.2,520.,cs),
(446.4,1320.,l),
(267.2,1320.,l),
(134.4,516.8,ls),
(81.6,198.4,o),
(206.4,-24.,o),
(523.2,-24.,cs),
(822.4,-24.,o),
(1012.8,179.2,o),
(1068.8,505.6,cs),
(1201.6,1320.,l),
(1022.4,1320.,l)
);
},
{
closed = 1;
nodes = (
(486.966,1592.,o),
(532.065,1544.,o),
(591.265,1544.,cs),
(650.465,1544.,o),
(701.366,1592.,o),
(705.041,1652.8,cs),
(708.717,1713.6,o),
(663.618,1761.6,o),
(604.418,1761.6,cs),
(545.218,1761.6,o),
(494.317,1713.6,o),
(490.641,1652.8,cs)
);
},
{
closed = 1;
nodes = (
(866.166,1592.,o),
(911.265,1544.,o),
(970.465,1544.,cs),
(1029.665,1544.,o),
(1080.566,1592.,o),
(1084.241,1652.8,cs),
(1087.917,1713.6,o),
(1042.818,1761.6,o),
(983.618,1761.6,cs),
(924.418,1761.6,o),
(873.517,1713.6,o),
(869.841,1652.8,cs)
);
}
);
width = 1157;
},
{
layerId = "7F612C2A-B309-47B1-B60E-6F95A45BF26D";
shapes = (
{
closed = 1;
nodes = (
(876.8,444.8,ls),
(848.,251.2,o),
(704.,41.6,o),
(456.,41.6,cs),
(240.,41.6,o),
(139.2,208.,o),
(172.8,443.2,cs),
(310.4,1320.,l),
(249.6,1320.,l),
(121.6,494.4,ls),
(72.,180.8,o),
(166.4,-24.,o),
(457.6,-24.,cs),
(732.8,-24.,o),
(894.4,166.4,o),
(947.2,492.8,cs),
(1075.2,1320.,l),
(1014.4,1320.,l)
);
},
{
closed = 1;
nodes = (
(823.899,1648.4,o),
(857.246,1614.8,o),
(898.846,1614.8,cs),
(938.846,1614.8,o),
(969.499,1648.4,o),
(967.83,1690.,cs),
(966.226,1730.,o),
(932.878,1763.6,o),
(892.878,1763.6,cs),
(851.278,1763.6,o),
(820.626,1730.,o),
(822.23,1690.,cs)
);
},
{
closed = 1;
nodes = (
(444.699,1648.4,o),
(478.046,1614.8,o),
(519.646,1614.8,cs),
(559.646,1614.8,o),
(590.299,1648.4,o),
(588.63,1690.,cs),
(587.026,1730.,o),
(553.678,1763.6,o),
(513.678,1763.6,cs),
(472.078,1763.6,o),
(441.426,1730.,o),
(443.03,1690.,cs)
);
}
);
width = 1021;
}
);
rightKerningGroup = d;
unicode = 220;
},
{
glyphname = Ugrave;
leftMetricsKey = U;
rightMetricsKey = U;
layers = (
{
layerId = "CEE0B0E0-3C1B-4981-BE10-41B2F4187B00";
shapes = (
{
closed = 1;
nodes = (
(923.2,705.6,ls),
(872.,428.8,o),
(816.,329.6,o),
(696.,329.6,cs),
(564.8,329.6,o),
(548.8,446.4,o),
(598.4,675.2,c),
(718.4,1320.,l),
(300.8,1320.,l),
(160.,563.2,ls),
(99.2,232.,o),
(286.4,-24.,o),
(654.4,-24.,cs),
(1000.,-24.,o),
(1251.2,206.4,o),
(1310.4,532.8,cs),
(1456.,1320.,l),
(1038.4,1320.,l)
);
},
{
closed = 1;
nodes = (
(1107.737,1569.2,l),
(828.319,1871.6,l),
(596.596,1646.,l),
(962.437,1417.2,l)
);
}
);
width = 1429;
},
{
layerId = "2FCE132C-6D1D-4C23-912A-6327D74CCB4B";
shapes = (
{
closed = 1;
nodes = (
(892.8,531.2,ls),
(856.,310.4,o),
(740.8,137.6,o),
(536.,137.6,cs),
(348.8,137.6,o),
(275.2,288.,o),
(315.2,520.,cs),
(446.4,1320.,l),
(267.2,1320.,l),
(134.4,516.8,ls),
(81.6,198.4,o),
(206.4,-24.,o),
(523.2,-24.,cs),
(822.4,-24.,o),
(1012.8,179.2,o),
(1068.8,505.6,cs),
(1201.6,1320.,l),
(1022.4,1320.,l)
);
},
{
closed = 1;
nodes = (
(931.632,1558.,l),
(666.816,1809.2,l),
(548.872,1684.4,l),
(857.706,1473.2,l)
);
}
);
width = 1157;
},
{
layerId = "7F612C2A-B309-47B1-B60E-6F95A45BF26D";
shapes = (
{
closed = 1;
nodes = (
(876.8,444.8,ls),
(848.,251.2,o),
(704.,41.6,o),
(456.,41.6,cs),
(240.,41.6,o),
(139.2,208.,o),
(172.8,443.2,cs),
(310.4,1320.,l),
(249.6,1320.,l),
(121.6,494.4,ls),
(72.,180.8,o),
(166.4,-24.,o),
(457.6,-24.,cs),
(732.8,-24.,o),
(894.4,166.4,o),
(947.2,492.8,cs),
(1075.2,1320.,l),
(1014.4,1320.,l)
);
},
{
closed = 1;
nodes = (
(845.836,1553.2,l),
(595.187,1778.8,l),
(519.803,1703.6,l),
(796.689,1502.,l)
);
}
);
width = 1021;
}
);
rightKerningGroup = d;
unicode = 217;
},
{
glyphname = Uhungarumlaut;
leftMetricsKey = U;
rightMetricsKey = U;
layers = (
{
layerId = "CEE0B0E0-3C1B-4981-BE10-41B2F4187B00";
shapes = (
{
closed = 1;
nodes = (
(923.2,705.6,ls),
(872.,428.8,o),
(816.,329.6,o),
(696.,329.6,cs),
(564.8,329.6,o),
(548.8,446.4,o),
(598.4,675.2,c),
(718.4,1320.,l),
(300.8,1320.,l),
(160.,563.2,ls),
(99.2,232.,o),
(286.4,-24.,o),
(654.4,-24.,cs),
(1000.,-24.,o),
(1251.2,206.4,o),
(1310.4,532.8,cs),
(1456.,1320.,l),
(1038.4,1320.,l)
);
},
{
closed = 1;
nodes = (
(1018.04,1697.6,l),
(905.477,1897.6,l),
(560.608,1569.6,l),
(632.072,1414.4,l)
);
},
{
closed = 1;
nodes = (
(1352.44,1697.6,l),
(1239.877,1897.6,l),
(895.008,1569.6,l),
(966.472,1414.4,l)
);
}
);
width = 1429;
},
{
layerId = "2FCE132C-6D1D-4C23-912A-6327D74CCB4B";
shapes = (
{
closed = 1;
nodes = (
(892.8,531.2,ls),
(856.,310.4,o),
(740.8,137.6,o),
(536.,137.6,cs),
(348.8,137.6,o),
(275.2,288.,o),
(315.2,520.,cs),
(446.4,1320.,l),
(267.2,1320.,l),
(134.4,516.8,ls),
(81.6,198.4,o),
(206.4,-24.,o),
(523.2,-24.,cs),
(822.4,-24.,o),
(1012.8,179.2,o),
(1068.8,505.6,cs),
(1201.6,1320.,l),
(1022.4,1320.,l)
);
},
{
closed = 1;
nodes = (
(830.497,1715.2,l),
(752.95,1835.2,l),
(434.452,1542.4,l),
(487.313,1464.,l)
);
},
{
closed = 1;
nodes = (
(1171.297,1715.2,l),
(1093.75,1835.2,l),
(776.852,1542.4,l),
(829.713,1464.,l)
);
}
);
width = 1157;
},
{
layerId = "7F612C2A-B309-47B1-B60E-6F95A45BF26D";
shapes = (
{
closed = 1;
nodes = (
(876.8,444.8,ls),
(848.,251.2,o),
(704.,41.6,o),
(456.,41.6,cs),
(240.,41.6,o),
(139.2,208.,o),
(172.8,443.2,cs),
(310.4,1320.,l),
(249.6,1320.,l),
(121.6,494.4,ls),
(72.,180.8,o),
(166.4,-24.,o),
(457.6,-24.,cs),
(732.8,-24.,o),
(894.4,166.4,o),
(947.2,492.8,cs),
(1075.2,1320.,l),
(1014.4,1320.,l)
);
},
{
closed = 1;
nodes = (
(733.512,1724.8,l),
(685.503,1804.8,l),
(376.542,1529.6,l),
(408.61,1488.,l)
);
},
{
closed = 1;
nodes = (
(1079.112,1724.8,l),
(1031.103,1804.8,l),
(722.142,1529.6,l),
(754.21,1488.,l)
);
}
);
width = 1021;
}
);
rightKerningGroup = d;
unicode = 368;
},
{
glyphname = Umacron;
leftMetricsKey = U;
rightMetricsKey = U;
layers = (
{
layerId = "CEE0B0E0-3C1B-4981-BE10-41B2F4187B00";
shapes = (
{
closed = 1;
nodes = (
(923.2,705.6,ls),
(872.,428.8,o),
(816.,329.6,o),
(696.,329.6,cs),
(564.8,329.6,o),
(548.8,446.4,o),
(598.4,675.2,c),
(718.4,1320.,l),
(300.8,1320.,l),
(160.,563.2,ls),
(99.2,232.,o),
(286.4,-24.,o),
(654.4,-24.,cs),
(1000.,-24.,o),
(1251.2,206.4,o),
(1310.4,532.8,cs),
(1456.,1320.,l),
(1038.4,1320.,l)
);
},
{
closed = 1;
nodes = (
(1236.699,1473.4,l),
(1343.001,1715.,l),
(643.801,1715.,l),
(537.499,1473.4,l)
);
}
);
width = 1429;
},
{
layerId = "2FCE132C-6D1D-4C23-912A-6327D74CCB4B";
shapes = (
{
closed = 1;
nodes = (
(892.8,531.2,ls),
(856.,310.4,o),
(740.8,137.6,o),
(536.,137.6,cs),
(348.8,137.6,o),
(275.2,288.,o),
(315.2,520.,cs),
(446.4,1320.,l),
(267.2,1320.,l),
(134.4,516.8,ls),
(81.6,198.4,o),
(206.4,-24.,o),
(523.2,-24.,cs),
(822.4,-24.,o),
(1012.8,179.2,o),
(1068.8,505.6,cs),
(1201.6,1320.,l),
(1022.4,1320.,l)
);
},
{
closed = 1;
nodes = (
(1065.006,1567.8,l),
(1096.549,1692.6,l),
(506.149,1692.6,l),
(476.206,1567.8,l)
);
}
);
width = 1157;
},
{
layerId = "7F612C2A-B309-47B1-B60E-6F95A45BF26D";
shapes = (
{
closed = 1;
nodes = (
(876.8,444.8,ls),
(848.,251.2,o),
(704.,41.6,o),
(456.,41.6,cs),
(240.,41.6,o),
(139.2,208.,o),
(172.8,443.2,cs),
(310.4,1320.,l),
(249.6,1320.,l),
(121.6,494.4,ls),
(72.,180.8,o),
(166.4,-24.,o),
(457.6,-24.,cs),
(732.8,-24.,o),
(894.4,166.4,o),
(947.2,492.8,cs),
(1075.2,1320.,l),
(1014.4,1320.,l)
);
},
{
closed = 1;
nodes = (
(964.205,1615.8,l),
(975.973,1681.4,l),
(439.973,1681.4,l),
(429.805,1615.8,l)
);
}
);
width = 1021;
}
);
rightKerningGroup = d;
unicode = 362;
},
{
glyphname = Uogonek;
leftMetricsKey = U;
rightMetricsKey = U;
layers = (
{
layerId = "CEE0B0E0-3C1B-4981-BE10-41B2F4187B00";
shapes = (
{
closed = 1;
nodes = (
(923.2,705.6,ls),
(872.,428.8,o),
(816.,329.6,o),
(696.,329.6,cs),
(564.8,329.6,o),
(548.8,446.4,o),
(598.4,675.2,c),
(718.4,1320.,l),
(300.8,1320.,l),
(160.,563.2,ls),
(99.2,232.,o),
(286.4,-24.,o),
(654.4,-24.,cs),
(1000.,-24.,o),
(1251.2,206.4,o),
(1310.4,532.8,cs),
(1456.,1320.,l),
(1038.4,1320.,l)
);
},
{
closed = 1;
nodes = (
(832.4,-246.4,l),
(725.2,-281.6,o),
(686.8,-246.4,o),
(686.8,-193.6,cs),
(686.8,-116.8,o),
(778.,9.6,o),
(898.,0,c),
(862.8,62.4,l),
(558.8,3.2,o),
(435.6,-147.2,o),
(435.6,-270.4,cs),
(435.6,-416.,o),
(603.6,-524.8,o),
(856.4,-388.8,c)
);
}
);
width = 1429;
},
{
layerId = "2FCE132C-6D1D-4C23-912A-6327D74CCB4B";
shapes = (
{
closed = 1;
nodes = (
(892.8,531.2,ls),
(856.,310.4,o),
(740.8,137.6,o),
(536.,137.6,cs),
(348.8,137.6,o),
(275.2,288.,o),
(315.2,520.,cs),
(446.4,1320.,l),
(267.2,1320.,l),
(134.4,516.8,ls),
(81.6,198.4,o),
(206.4,-24.,o),
(523.2,-24.,cs),
(822.4,-24.,o),
(1012.8,179.2,o),
(1068.8,505.6,cs),
(1201.6,1320.,l),
(1022.4,1320.,l)
);
},
{
closed = 1;
nodes = (
(674.6,-292.8,l),
(543.4,-342.4,o),
(485.8,-299.2,o),
(485.8,-232.,cs),
(485.8,-150.4,o),
(569.,-48.,o),
(713.,1.6,c),
(671.4,49.6,l),
(453.8,-12.8,o),
(349.8,-163.2,o),
(349.8,-278.4,cs),
(349.8,-400.,o),
(473.,-483.2,o),
(689.,-380.8,c)
);
}
);
width = 1157;
},
{
layerId = "7F612C2A-B309-47B1-B60E-6F95A45BF26D";
shapes = (
{
closed = 1;
nodes = (
(876.8,444.8,ls),
(848.,251.2,o),
(704.,41.6,o),
(456.,41.6,cs),
(240.,41.6,o),
(139.2,208.,o),
(172.8,443.2,cs),
(310.4,1320.,l),
(249.6,1320.,l),
(121.6,494.4,ls),
(72.,180.8,o),
(166.4,-24.,o),
(457.6,-24.,cs),
(732.8,-24.,o),
(894.4,166.4,o),
(947.2,492.8,cs),
(1075.2,1320.,l),
(1014.4,1320.,l)
);
},
{
closed = 1;
nodes = (
(596.2,-315.2,l),
(453.8,-372.8,o),
(385.,-326.4,o),
(385.,-251.2,cs),
(385.,-168.,o),
(465.,-76.8,o),
(621.8,1.6,c),
(577.,43.2,l),
(402.6,-20.8,o),
(306.6,-171.2,o),
(306.6,-281.6,cs),
(306.6,-392.,o),
(407.4,-462.4,o),
(605.8,-377.6,c)
);
}
);
width = 1021;
}
);
rightKerningGroup = d;
unicode = 370;
},
{
glyphname = Uring;
leftMetricsKey = U;
rightMetricsKey = U;
layers = (
{
layerId = "CEE0B0E0-3C1B-4981-BE10-41B2F4187B00";
shapes = (
{
closed = 1;
nodes = (
(923.2,705.6,ls),
(872.,428.8,o),
(816.,329.6,o),
(696.,329.6,cs),
(564.8,329.6,o),
(548.8,446.4,o),
(598.4,675.2,c),
(718.4,1320.,l),
(300.8,1320.,l),
(160.,563.2,ls),
(99.2,232.,o),
(286.4,-24.,o),
(654.4,-24.,cs),
(1000.,-24.,o),
(1251.2,206.4,o),
(1310.4,532.8,cs),
(1456.,1320.,l),
(1038.4,1320.,l)
);
},
{
closed = 1;
nodes = (
(490.582,1516.6,o),
(586.201,1411.,o),
(759.001,1411.,cs),
(933.401,1411.,o),
(1081.818,1519.8,o),
(1114.354,1675.,cs),
(1145.636,1825.4,o),
(1040.417,1931.,o),
(875.617,1931.,cs),
(709.217,1931.,o),
(554.4,1822.2,o),
(522.282,1668.6,cs)
);
},
{
closed = 1;
nodes = (
(747.619,1716.6,o),
(794.031,1753.4,o),
(832.431,1753.4,cs),
(875.631,1753.4,o),
(901.983,1713.4,o),
(895.082,1668.6,cs),
(888.599,1625.4,o),
(844.97,1587.,o),
(804.97,1587.,cs),
(756.97,1587.,o),
(732.635,1628.6,o),
(741.554,1675.,c)
);
}
);
width = 1429;
},
{
layerId = "2FCE132C-6D1D-4C23-912A-6327D74CCB4B";
shapes = (
{
closed = 1;
nodes = (
(892.8,531.2,ls),
(856.,310.4,o),
(740.8,137.6,o),
(536.,137.6,cs),
(348.8,137.6,o),
(275.2,288.,o),
(315.2,520.,cs),
(446.4,1320.,l),
(267.2,1320.,l),
(134.4,516.8,ls),
(81.6,198.4,o),
(206.4,-24.,o),
(523.2,-24.,cs),
(822.4,-24.,o),
(1012.8,179.2,o),
(1068.8,505.6,cs),
(1201.6,1320.,l),
(1022.4,1320.,l)
);
},
{
closed = 1;
nodes = (
(534.109,1566.2,o),
(606.17,1487.8,o),
(732.57,1487.8,cs),
(850.97,1487.8,o),
(946.619,1561.4,o),
(964.202,1667.,cs),
(981.979,1775.8,o),
(901.918,1854.2,o),
(781.918,1854.2,cs),
(668.318,1854.2,o),
(567.869,1780.6,o),
(551.982,1676.6,cs)
);
},
{
closed = 1;
nodes = (
(679.297,1718.2,o),
(718.515,1758.2,o),
(772.915,1758.2,cs),
(817.715,1758.2,o),
(852.29,1721.4,o),
(844.782,1676.6,cs),
(835.191,1623.8,o),
(795.876,1582.2,o),
(739.876,1582.2,cs),
(691.876,1582.2,o),
(662.197,1620.6,o),
(671.402,1667.,c)
);
}
);
width = 1157;
},
{
layerId = "7F612C2A-B309-47B1-B60E-6F95A45BF26D";
shapes = (
{
closed = 1;
nodes = (
(876.8,444.8,ls),
(848.,251.2,o),
(704.,41.6,o),
(456.,41.6,cs),
(240.,41.6,o),
(139.2,208.,o),
(172.8,443.2,cs),
(310.4,1320.,l),
(249.6,1320.,l),
(121.6,494.4,ls),
(72.,180.8,o),
(166.4,-24.,o),
(457.6,-24.,cs),
(732.8,-24.,o),
(894.4,166.4,o),
(947.2,492.8,cs),
(1075.2,1320.,l),
(1014.4,1320.,l)
);
},
{
closed = 1;
nodes = (
(548.231,1590.2,o),
(603.598,1526.2,o),
(707.598,1526.2,cs),
(797.198,1526.2,o),
(871.752,1582.2,o),
(889.343,1662.2,c),
(906.549,1751.8,o),
(843.182,1815.8,o),
(747.182,1815.8,cs),
(659.182,1815.8,o),
(579.829,1759.8,o),
(565.373,1681.4,cs)
);
},
{
closed = 1;
nodes = (
(645.497,1718.2,o),
(680.564,1761.4,o),
(741.364,1761.4,cs),
(787.764,1761.4,o),
(825.976,1726.2,o),
(818.173,1681.4,cs),
(809.284,1623.8,o),
(771.081,1579.,o),
(707.081,1579.,cs),
(659.081,1579.,o),
(628.805,1615.8,o),
(636.543,1662.2,cs)
);
}
);
width = 1021;
}
);
rightKerningGroup = d;
unicode = 366;
},
{
color = 1;
glyphname = V;
layers = (
{
anchors = (
{
name = bottom;
position = "{588, 0}";
},
{
name = top;
position = "{820, 1320}";
}
);
layerId = "CEE0B0E0-3C1B-4981-BE10-41B2F4187B00";
shapes = (
{
closed = 1;
nodes = (
(1499.2,1320.,l),
(1046.4,1320.,l),
(678.4,646.4,l),
(576.,1320.,l),
(140.8,1320.,l),
(420.8,0,l),
(729.6,0,l)
);
}
);
width = 1320;
},
{
anchors = (
{
name = bottom;
position = "{509, 0}";
},
{
name = top;
position = "{741, 1320}";
}
);
layerId = "2FCE132C-6D1D-4C23-912A-6327D74CCB4B";
shapes = (
{
closed = 1;
nodes = (
(1328.,1320.,l),
(1128.,1320.,l),
(564.8,264.,l),
(348.8,1320.,l),
(155.2,1320.,l),
(443.2,0,l),
(606.4,0,l)
);
}
);
width = 1164;
},
{
anchors = (
{
name = bottom;
position = "{470, 0}";
},
{
name = top;
position = "{702, 1320}";
}
);
layerId = "7F612C2A-B309-47B1-B60E-6F95A45BF26D";
shapes = (
{
closed = 1;
nodes = (
(1243.2,1320.,l),
(1169.6,1320.,l),
(507.2,72.,l),
(235.2,1320.,l),
(163.2,1320.,l),
(454.4,0,l),
(544.,0,l)
);
}
);
width = 1086;
}
);
leftKerningGroup = V;
rightKerningGroup = V;
unicode = 86;
},
{
color = 1;
glyphname = W;
layers = (
{
layerId = "CEE0B0E0-3C1B-4981-BE10-41B2F4187B00";
shapes = (
{
closed = 1;
nodes = (
(2180.8,1320.,l),
(1737.6,1320.,l),
(1363.2,518.4,l),
(1356.8,518.4,l),
(1297.6,1320.,l),
(1022.4,1320.,l),
(659.2,518.4,l),
(651.2,518.4,l),
(579.2,1320.,l),
(147.2,1320.,l),
(321.6,0,l),
(756.8,0,l),
(1033.6,548.8,l),
(1086.4,0,l),
(1520.,0,l)
);
}
);
width = 2007;
},
{
layerId = "2FCE132C-6D1D-4C23-912A-6327D74CCB4B";
shapes = (
{
closed = 1;
nodes = (
(1750.4,1320.,l),
(1555.2,1320.,l),
(1156.8,270.4,l),
(1148.8,270.4,l),
(1035.2,1320.,l),
(876.8,1320.,l),
(428.8,270.4,l),
(419.2,270.4,l),
(360.,1320.,l),
(169.6,1320.,l),
(272.,0,l),
(468.8,0,l),
(905.6,1003.2,l),
(1017.6,0,l),
(1214.4,0,l)
);
}
);
width = 1600;
},
{
layerId = "7F612C2A-B309-47B1-B60E-6F95A45BF26D";
shapes = (
{
closed = 1;
nodes = (
(1534.4,1320.,l),
(1464.,1320.,l),
(1054.4,147.2,l),
(1044.8,147.2,l),
(904.,1320.,l),
(803.2,1320.,l),
(313.6,147.2,l),
(304.,147.2,l),
(251.2,1320.,l),
(180.8,1320.,l),
(246.4,0,l),
(324.8,0,l),
(841.6,1232.,l),
(982.4,0,l),
(1060.8,0,l)
);
}
);
width = 1396;
}
);
leftKerningGroup = V;
rightKerningGroup = V;
unicode = 87;
},
{
glyphname = Wacute;
layers = (
{
layerId = "CEE0B0E0-3C1B-4981-BE10-41B2F4187B00";
shapes = (
{
closed = 1;
nodes = (
(2180.8,1320.,l),
(1737.6,1320.,l),
(1363.2,518.4,l),
(1356.8,518.4,l),
(1297.6,1320.,l),
(1022.4,1320.,l),
(659.2,518.4,l),
(651.2,518.4,l),
(579.2,1320.,l),
(147.2,1320.,l),
(321.6,0,l),
(756.8,0,l),
(1033.6,548.8,l),
(1086.4,0,l),
(1520.,0,l)
);
},
{
closed = 1;
nodes = (
(1506.196,1643.,l),
(1379.519,1868.6,l),
(978.937,1566.2,l),
(1054.437,1414.2,l)
);
}
);
width = 2009;
},
{
layerId = "2FCE132C-6D1D-4C23-912A-6327D74CCB4B";
shapes = (
{
closed = 1;
nodes = (
(1750.4,1320.,l),
(1555.2,1320.,l),
(1156.8,270.4,l),
(1148.8,270.4,l),
(1035.2,1320.,l),
(876.8,1320.,l),
(428.8,270.4,l),
(419.2,270.4,l),
(360.,1320.,l),
(169.6,1320.,l),
(272.,0,l),
(468.8,0,l),
(905.6,1003.2,l),
(1017.6,0,l),
(1214.4,0,l)
);
},
{
closed = 1;
nodes = (
(1231.072,1681.4,l),
(1147.416,1806.2,l),
(802.632,1555.,l),
(853.506,1470.2,l)
);
}
);
width = 1557;
},
{
layerId = "7F612C2A-B309-47B1-B60E-6F95A45BF26D";
shapes = (
{
closed = 1;
nodes = (
(1534.4,1320.,l),
(1464.,1320.,l),
(1054.4,147.2,l),
(1044.8,147.2,l),
(904.,1320.,l),
(803.2,1320.,l),
(313.6,147.2,l),
(304.,147.2,l),
(251.2,1320.,l),
(180.8,1320.,l),
(246.4,0,l),
(324.8,0,l),
(841.6,1232.,l),
(982.4,0,l),
(1060.8,0,l)
);
},
{
closed = 1;
nodes = (
(1087.003,1700.6,l),
(1040.787,1775.8,l),
(715.436,1550.2,l),
(744.689,1499.,l)
);
}
);
width = 1331;
}
);
leftKerningGroup = V;
rightKerningGroup = V;
unicode = 7810;
},
{
glyphname = Wcircumflex;
layers = (
{
layerId = "CEE0B0E0-3C1B-4981-BE10-41B2F4187B00";
shapes = (
{
closed = 1;
nodes = (
(2180.8,1320.,l),
(1737.6,1320.,l),
(1363.2,518.4,l),
(1356.8,518.4,l),
(1297.6,1320.,l),
(1022.4,1320.,l),
(659.2,518.4,l),
(651.2,518.4,l),
(579.2,1320.,l),
(147.2,1320.,l),
(321.6,0,l),
(756.8,0,l),
(1033.6,548.8,l),
(1086.4,0,l),
(1520.,0,l)
);
},
{
closed = 1;
nodes = (
(1175.,1581.6,l),
(1411.8,1389.6,l),
(1554.2,1564.,l),
(1216.6,1856.8,l),
(775.,1573.6,l),
(898.2,1389.6,l)
);
}
);
width = 2009;
},
{
layerId = "2FCE132C-6D1D-4C23-912A-6327D74CCB4B";
shapes = (
{
closed = 1;
nodes = (
(1750.4,1320.,l),
(1555.2,1320.,l),
(1156.8,270.4,l),
(1148.8,270.4,l),
(1035.2,1320.,l),
(876.8,1320.,l),
(428.8,270.4,l),
(419.2,270.4,l),
(360.,1320.,l),
(169.6,1320.,l),
(272.,0,l),
(468.8,0,l),
(905.6,1003.2,l),
(1017.6,0,l),
(1214.4,0,l)
);
},
{
closed = 1;
nodes = (
(977.6,1659.4,l),
(1187.2,1499.4,l),
(1260.8,1585.8,l),
(1001.6,1817.8,l),
(660.8,1590.6,l),
(720.,1499.4,l)
);
}
);
width = 1557;
},
{
layerId = "7F612C2A-B309-47B1-B60E-6F95A45BF26D";
shapes = (
{
closed = 1;
nodes = (
(1534.4,1320.,l),
(1464.,1320.,l),
(1054.4,147.2,l),
(1044.8,147.2,l),
(904.,1320.,l),
(803.2,1320.,l),
(313.6,147.2,l),
(304.,147.2,l),
(251.2,1320.,l),
(180.8,1320.,l),
(246.4,0,l),
(324.8,0,l),
(841.6,1232.,l),
(982.4,0,l),
(1060.8,0,l)
);
},
{
closed = 1;
nodes = (
(878.4,1699.6,l),
(1075.2,1554.,l),
(1113.6,1597.2,l),
(894.4,1798.8,l),
(603.2,1600.4,l),
(630.4,1554.,l)
);
}
);
width = 1331;
}
);
leftKerningGroup = V;
rightKerningGroup = V;
unicode = 372;
},
{
glyphname = Wdieresis;
layers = (
{
layerId = "CEE0B0E0-3C1B-4981-BE10-41B2F4187B00";
shapes = (
{
closed = 1;
nodes = (
(2180.8,1320.,l),
(1737.6,1320.,l),
(1363.2,518.4,l),
(1356.8,518.4,l),
(1297.6,1320.,l),
(1022.4,1320.,l),
(659.2,518.4,l),
(651.2,518.4,l),
(579.2,1320.,l),
(147.2,1320.,l),
(321.6,0,l),
(756.8,0,l),
(1033.6,548.8,l),
(1086.4,0,l),
(1520.,0,l)
);
},
{
closed = 1;
nodes = (
(735.367,1489.4,o),
(793.29,1411.,o),
(890.89,1411.,cs),
(988.49,1411.,o),
(1087.367,1489.4,o),
(1112.859,1587.,cs),
(1138.351,1684.6,o),
(1080.428,1763.,o),
(982.828,1763.,cs),
(885.228,1763.,o),
(786.351,1684.6,o),
(760.859,1587.,cs)
);
},
{
closed = 1;
nodes = (
(1111.367,1489.4,o),
(1169.29,1411.,o),
(1266.89,1411.,cs),
(1364.49,1411.,o),
(1463.367,1489.4,o),
(1488.859,1587.,cs),
(1514.351,1684.6,o),
(1456.428,1763.,o),
(1358.828,1763.,cs),
(1261.228,1763.,o),
(1162.351,1684.6,o),
(1136.859,1587.,cs)
);
}
);
width = 2009;
},
{
layerId = "2FCE132C-6D1D-4C23-912A-6327D74CCB4B";
shapes = (
{
closed = 1;
nodes = (
(1750.4,1320.,l),
(1555.2,1320.,l),
(1156.8,270.4,l),
(1148.8,270.4,l),
(1035.2,1320.,l),
(876.8,1320.,l),
(428.8,270.4,l),
(419.2,270.4,l),
(360.,1320.,l),
(169.6,1320.,l),
(272.,0,l),
(468.8,0,l),
(905.6,1003.2,l),
(1017.6,0,l),
(1214.4,0,l)
);
},
{
closed = 1;
nodes = (
(666.966,1584.,o),
(712.065,1536.,o),
(771.265,1536.,cs),
(830.465,1536.,o),
(881.366,1584.,o),
(885.041,1644.8,cs),
(888.717,1705.6,o),
(843.618,1753.6,o),
(784.418,1753.6,cs),
(725.218,1753.6,o),
(674.317,1705.6,o),
(670.641,1644.8,cs)
);
},
{
closed = 1;
nodes = (
(1046.166,1584.,o),
(1091.265,1536.,o),
(1150.465,1536.,cs),
(1209.665,1536.,o),
(1260.566,1584.,o),
(1264.241,1644.8,cs),
(1267.917,1705.6,o),
(1222.818,1753.6,o),
(1163.618,1753.6,cs),
(1104.418,1753.6,o),
(1053.517,1705.6,o),
(1049.841,1644.8,cs)
);
}
);
width = 1557;
},
{
layerId = "7F612C2A-B309-47B1-B60E-6F95A45BF26D";
shapes = (
{
closed = 1;
nodes = (
(1534.4,1320.,l),
(1464.,1320.,l),
(1054.4,147.2,l),
(1044.8,147.2,l),
(904.,1320.,l),
(803.2,1320.,l),
(313.6,147.2,l),
(304.,147.2,l),
(251.2,1320.,l),
(180.8,1320.,l),
(246.4,0,l),
(324.8,0,l),
(841.6,1232.,l),
(982.4,0,l),
(1060.8,0,l)
);
},
{
closed = 1;
nodes = (
(996.899,1633.4,o),
(1030.246,1599.8,o),
(1071.846,1599.8,cs),
(1111.846,1599.8,o),
(1142.499,1633.4,o),
(1140.83,1675.,cs),
(1139.226,1715.,o),
(1105.878,1748.6,o),
(1065.878,1748.6,cs),
(1024.278,1748.6,o),
(993.626,1715.,o),
(995.23,1675.,cs)
);
},
{
closed = 1;
nodes = (
(617.699,1633.4,o),
(651.046,1599.8,o),
(692.646,1599.8,cs),
(732.646,1599.8,o),
(763.299,1633.4,o),
(761.63,1675.,cs),
(760.026,1715.,o),
(726.678,1748.6,o),
(686.678,1748.6,cs),
(645.078,1748.6,o),
(614.426,1715.,o),
(616.03,1675.,cs)
);
}
);
width = 1331;
}
);
leftKerningGroup = V;
rightKerningGroup = V;
unicode = 7812;
},
{
glyphname = Wgrave;
layers = (
{
layerId = "CEE0B0E0-3C1B-4981-BE10-41B2F4187B00";
shapes = (
{
closed = 1;
nodes = (
(2180.8,1320.,l),
(1737.6,1320.,l),
(1363.2,518.4,l),
(1356.8,518.4,l),
(1297.6,1320.,l),
(1022.4,1320.,l),
(659.2,518.4,l),
(651.2,518.4,l),
(579.2,1320.,l),
(147.2,1320.,l),
(321.6,0,l),
(756.8,0,l),
(1033.6,548.8,l),
(1086.4,0,l),
(1520.,0,l)
);
},
{
closed = 1;
nodes = (
(1304.737,1569.2,l),
(1025.319,1871.6,l),
(793.596,1646.,l),
(1159.437,1417.2,l)
);
}
);
width = 2009;
},
{
layerId = "2FCE132C-6D1D-4C23-912A-6327D74CCB4B";
shapes = (
{
closed = 1;
nodes = (
(1750.4,1320.,l),
(1555.2,1320.,l),
(1156.8,270.4,l),
(1148.8,270.4,l),
(1035.2,1320.,l),
(876.8,1320.,l),
(428.8,270.4,l),
(419.2,270.4,l),
(360.,1320.,l),
(169.6,1320.,l),
(272.,0,l),
(468.8,0,l),
(905.6,1003.2,l),
(1017.6,0,l),
(1214.4,0,l)
);
},
{
closed = 1;
nodes = (
(1101.632,1558.,l),
(836.816,1809.2,l),
(718.872,1684.4,l),
(1027.706,1473.2,l)
);
}
);
width = 1557;
},
{
layerId = "7F612C2A-B309-47B1-B60E-6F95A45BF26D";
shapes = (
{
closed = 1;
nodes = (
(1534.4,1320.,l),
(1464.,1320.,l),
(1054.4,147.2,l),
(1044.8,147.2,l),
(904.,1320.,l),
(803.2,1320.,l),
(313.6,147.2,l),
(304.,147.2,l),
(251.2,1320.,l),
(180.8,1320.,l),
(246.4,0,l),
(324.8,0,l),
(841.6,1232.,l),
(982.4,0,l),
(1060.8,0,l)
);
},
{
closed = 1;
nodes = (
(1001.836,1553.2,l),
(751.187,1778.8,l),
(675.803,1703.6,l),
(952.689,1502.,l)
);
}
);
width = 1331;
}
);
leftKerningGroup = V;
rightKerningGroup = V;
unicode = 7808;
},
